<svg xmlns="http://www.w3.org/2000/svg" width="373" height="120">
<style>
  .rail { stroke: #333; stroke-width: 2; fill: none; }
  .arrow { stroke: #333; stroke-width: 2; fill: none; }
  .terminal-box { fill: #e8f5e9; stroke: #2e7d32; stroke-width: 2; }
  .terminal-text { font-family: monospace; font-size: 12px; fill: #1b5e20; }
  .nonterminal-box { fill: #e3f2fd; stroke: #1565c0; stroke-width: 2; }
  .nonterminal-text { font-family: sans-serif; font-size: 12px; fill: #0d47a1; }
  .start-circle { fill: #333; stroke: none; }
  .end-circle-outer { fill: none; stroke: #333; stroke-width: 2; }
  .end-circle-inner { fill: #333; stroke: none; }
  rect, g { transition: all 0.3s; }
</style>
<text x="20" y="38" font-size="13" fill="#555" font-family="sans-serif">StringExpression</text>
<circle cx="24" cy="58" r="4" class="start-circle"/>
<line x1="28" y1="58" x2="40" y2="58" class="rail"/>
<g id="891556029">
<g id="1950668134">
<rect x="40" y="44" width="90" height="28" class="nonterminal-box"/>
<text x="85" y="62" text-anchor="middle" class="nonterminal-text">StringTerm</text>
</g>
<line x1="130" y1="58" x2="150" y2="58" class="rail"/>
<polygon points="137,55 143,58 137,61" class="arrow"/>
<g id="1729606006">
<g id="900377920">
<g id="1162015861">
<rect x="166" y="68" width="41" height="28" rx="10" ry="10" class="terminal-box"/>
<text x="186" y="86" text-anchor="middle" class="terminal-text">'+'</text>
</g>
<line x1="207" y1="82" x2="227" y2="82" class="rail"/>
<polygon points="214,79 220,82 214,85" class="arrow"/>
<g id="512469716">
<rect x="227" y="68" width="90" height="28" class="nonterminal-box"/>
<text x="272" y="86" text-anchor="middle" class="nonterminal-text">StringTerm</text>
</g>
</g>
<line x1="150" y1="58" x2="333" y2="58" class="rail"/>
<path d="M166,58 Q158,58 158,66" class="rail" fill="none"/>
<path d="M158,74 Q158,82 150,82" class="rail" fill="none"/>
<line x1="150" y1="82" x2="166" y2="82" class="rail"/>
<line x1="317" y1="82" x2="333" y2="82" class="rail"/>
<path d="M333,82 Q325,82 325,74" class="rail" fill="none"/>
<path d="M325,66 Q325,58 317,58" class="rail" fill="none"/>
<path d="M325,82 Q333,82 333,90" class="rail" fill="none"/>
<path d="M333,98 Q333,106 325,106" class="rail" fill="none"/>
<line x1="158" y1="106" x2="325" y2="106" class="rail"/>
<polygon points="247,103 241,106 247,109" class="arrow"/>
<path d="M158,106 Q150,106 150,98" class="rail" fill="none"/>
<path d="M150,90 Q150,82 158,82" class="rail" fill="none"/>
</g>
</g>
<line x1="333" y1="58" x2="341" y2="58" class="rail"/>
<circle cx="347" cy="58" r="6" class="end-circle-outer"/>
<circle cx="347" cy="58" r="3" class="end-circle-inner"/>
</svg>
