<svg xmlns="http://www.w3.org/2000/svg" xmlns:xlink="http://www.w3.org/1999/xlink" width="996" height="112">
<style>
  svg { background: white; font-family: sans-serif; }
  .rail { stroke: #333; stroke-width: 2; fill: none; }
  .arrow { fill: #333; }
  .terminal-box { fill: #E8F4FD; stroke: #2196F3; stroke-width: 2; rx: 10; ry: 10; }
  .nonterminal-box { fill: #E8F5E9; stroke: #4CAF50; stroke-width: 2; }
  .nonterminal-box:hover { fill: #C8E6C9; stroke: #2E7D32; cursor: pointer; }
  .terminal-text { font-family: monospace; font-size: 14px; fill: #0D47A1; }
  .nonterminal-text { font-family: sans-serif; font-size: 14px; fill: #1B5E20; }
  a:hover .nonterminal-text { fill: #1B5E20; text-decoration: underline; }
  .start-circle { fill: #333; stroke: none; }
  .end-circle-outer { fill: #333; stroke: none; }
  .end-circle-inner { fill: white; stroke: none; }
</style>
<text x="20" y="38" font-size="13" fill="#555" font-family="sans-serif">Slice</text>
<circle cx="26" cy="79" r="6" class="start-circle"/>
<line x1="32" y1="79" x2="50" y2="79" class="rail"/>
<rect x="50" y="66" width="47" height="26" rx="10" ry="10" class="terminal-box"/>
<text x="73" y="84" text-anchor="middle" class="terminal-text">'['</text>
<line x1="97" y1="79" x2="113" y2="79" class="rail"/>
<polygon points="102,76 108,79 102,82" class="arrow"/>
<a xlink:href="#NumberExpression" target="_top">
<rect x="133" y="66" width="164" height="26" class="nonterminal-box"/>
<text x="215" y="84" text-anchor="middle" class="nonterminal-text">NumberExpression</text>
</a>
<line x1="113" y1="79" x2="133" y2="79" class="rail"/>
<line x1="297" y1="79" x2="317" y2="79" class="rail"/>
<path d="M 113,79 Q 123,79 123,69" class="rail"/>
<line x1="123" y1="69" x2="123" y2="64" class="rail"/>
<path d="M 123,64 Q 123,54 133,54" class="rail"/>
<line x1="133" y1="54" x2="297" y2="54" class="rail"/>
<path d="M 297,54 Q 307,54 307,64" class="rail"/>
<line x1="307" y1="64" x2="307" y2="69" class="rail"/>
<path d="M 307,69 Q 307,79 317,79" class="rail"/>
<line x1="317" y1="79" x2="333" y2="79" class="rail"/>
<polygon points="322,76 328,79 322,82" class="arrow"/>
<rect x="333" y="66" width="47" height="26" rx="10" ry="10" class="terminal-box"/>
<text x="356" y="84" text-anchor="middle" class="terminal-text">':'</text>
<line x1="380" y1="79" x2="396" y2="79" class="rail"/>
<polygon points="385,76 391,79 385,82" class="arrow"/>
<a xlink:href="#NumberExpression" target="_top">
<rect x="416" y="66" width="164" height="26" class="nonterminal-box"/>
<text x="498" y="84" text-anchor="middle" class="nonterminal-text">NumberExpression</text>
</a>
<line x1="396" y1="79" x2="416" y2="79" class="rail"/>
<line x1="580" y1="79" x2="600" y2="79" class="rail"/>
<path d="M 396,79 Q 406,79 406,69" class="rail"/>
<line x1="406" y1="69" x2="406" y2="64" class="rail"/>
<path d="M 406,64 Q 406,54 416,54" class="rail"/>
<line x1="416" y1="54" x2="580" y2="54" class="rail"/>
<path d="M 580,54 Q 590,54 590,64" class="rail"/>
<line x1="590" y1="64" x2="590" y2="69" class="rail"/>
<path d="M 590,69 Q 590,79 600,79" class="rail"/>
<line x1="600" y1="79" x2="616" y2="79" class="rail"/>
<polygon points="605,76 611,79 605,82" class="arrow"/>
<rect x="636" y="66" width="47" height="26" rx="10" ry="10" class="terminal-box"/>
<text x="659" y="84" text-anchor="middle" class="terminal-text">':'</text>
<line x1="683" y1="79" x2="699" y2="79" class="rail"/>
<polygon points="688,76 694,79 688,82" class="arrow"/>
<a xlink:href="#NumberExpression" target="_top">
<rect x="699" y="66" width="164" height="26" class="nonterminal-box"/>
<text x="781" y="84" text-anchor="middle" class="nonterminal-text">NumberExpression</text>
</a>
<line x1="616" y1="79" x2="636" y2="79" class="rail"/>
<line x1="863" y1="79" x2="883" y2="79" class="rail"/>
<path d="M 616,79 Q 626,79 626,69" class="rail"/>
<line x1="626" y1="69" x2="626" y2="64" class="rail"/>
<path d="M 626,64 Q 626,54 636,54" class="rail"/>
<line x1="636" y1="54" x2="863" y2="54" class="rail"/>
<path d="M 863,54 Q 873,54 873,64" class="rail"/>
<line x1="873" y1="64" x2="873" y2="69" class="rail"/>
<path d="M 873,69 Q 873,79 883,79" class="rail"/>
<line x1="883" y1="79" x2="899" y2="79" class="rail"/>
<polygon points="888,76 894,79 888,82" class="arrow"/>
<rect x="899" y="66" width="47" height="26" rx="10" ry="10" class="terminal-box"/>
<text x="922" y="84" text-anchor="middle" class="terminal-text">']'</text>
<line x1="946" y1="79" x2="960" y2="79" class="rail"/>
<circle cx="968" cy="79" r="8" class="end-circle-outer"/>
<circle cx="968" cy="79" r="5" class="end-circle-inner"/>
</svg>
