<svg xmlns="http://www.w3.org/2000/svg" width="251" height="206">
<style>
  .rail { stroke: #333; stroke-width: 2; fill: none; }
  .arrow { stroke: #333; stroke-width: 2; fill: none; }
  .terminal-box { fill: #e8f5e9; stroke: #2e7d32; stroke-width: 2; }
  .terminal-text { font-family: monospace; font-size: 12px; fill: #1b5e20; }
  .nonterminal-box { fill: #e3f2fd; stroke: #1565c0; stroke-width: 2; }
  .nonterminal-text { font-family: sans-serif; font-size: 12px; fill: #0d47a1; }
  .start-circle { fill: #333; stroke: none; }
  .end-circle-outer { fill: none; stroke: #333; stroke-width: 2; }
  .end-circle-inner { fill: #333; stroke: none; }
  rect, g { transition: all 0.3s; }
</style>
<text x="20" y="38" font-size="13" fill="#555" font-family="sans-serif">ReturnType</text>
<circle cx="24" cy="58" r="4" class="start-circle"/>
<line x1="28" y1="58" x2="40" y2="58" class="rail"/>
<g id="871890827">
<g id="783987189">
<rect x="59" y="44" width="132" height="28" class="nonterminal-box"/>
<text x="125" y="62" text-anchor="middle" class="nonterminal-text">NumberReturnType</text>
</g>
<line x1="56" y1="58" x2="59" y2="58" class="rail"/>
<line x1="191" y1="58" x2="195" y2="58" class="rail"/>
<line x1="40" y1="58" x2="56" y2="58" class="rail"/>
<line x1="195" y1="58" x2="211" y2="58" class="rail"/>
<g id="102734902">
<rect x="59" y="82" width="132" height="28" class="nonterminal-box"/>
<text x="125" y="100" text-anchor="middle" class="nonterminal-text">StringReturnType</text>
</g>
<line x1="56" y1="96" x2="59" y2="96" class="rail"/>
<line x1="191" y1="96" x2="195" y2="96" class="rail"/>
<path d="M40,58 Q48,58 48,66" class="rail" fill="none"/>
<path d="M48,88 Q48,96 56,96" class="rail" fill="none"/>
<path d="M195,96 Q203,96 203,88" class="rail" fill="none"/>
<path d="M203,66 Q203,58 211,58" class="rail" fill="none"/>
<g id="1450904736">
<rect x="56" y="120" width="139" height="28" class="nonterminal-box"/>
<text x="125" y="138" text-anchor="middle" class="nonterminal-text">BooleanReturnType</text>
</g>
<line x1="56" y1="134" x2="56" y2="134" class="rail"/>
<line x1="195" y1="134" x2="195" y2="134" class="rail"/>
<path d="M40,58 Q48,58 48,66" class="rail" fill="none"/>
<path d="M48,126 Q48,134 56,134" class="rail" fill="none"/>
<path d="M195,134 Q203,134 203,126" class="rail" fill="none"/>
<path d="M203,66 Q203,58 211,58" class="rail" fill="none"/>
<g id="1211751008">
<rect x="59" y="158" width="132" height="28" class="nonterminal-box"/>
<text x="125" y="176" text-anchor="middle" class="nonterminal-text">ObjectReturnType</text>
</g>
<line x1="56" y1="172" x2="59" y2="172" class="rail"/>
<line x1="191" y1="172" x2="195" y2="172" class="rail"/>
<path d="M40,58 Q48,58 48,66" class="rail" fill="none"/>
<path d="M48,164 Q48,172 56,172" class="rail" fill="none"/>
<path d="M195,172 Q203,172 203,164" class="rail" fill="none"/>
<path d="M203,66 Q203,58 211,58" class="rail" fill="none"/>
</g>
<line x1="211" y1="58" x2="219" y2="58" class="rail"/>
<circle cx="225" cy="58" r="6" class="end-circle-outer"/>
<circle cx="225" cy="58" r="3" class="end-circle-inner"/>
</svg>
