<svg xmlns="http://www.w3.org/2000/svg" width="443" height="120">
<style>
  .rail { stroke: #333; stroke-width: 2; fill: none; }
  .arrow { stroke: #333; stroke-width: 2; fill: none; }
  .terminal-box { fill: #e8f5e9; stroke: #2e7d32; stroke-width: 2; }
  .terminal-text { font-family: monospace; font-size: 12px; fill: #1b5e20; }
  .nonterminal-box { fill: #e3f2fd; stroke: #1565c0; stroke-width: 2; }
  .nonterminal-text { font-family: sans-serif; font-size: 12px; fill: #0d47a1; }
  .start-circle { fill: #333; stroke: none; }
  .end-circle-outer { fill: none; stroke: #333; stroke-width: 2; }
  .end-circle-inner { fill: #333; stroke: none; }
  rect, g { transition: all 0.3s; }
</style>
<text x="20" y="38" font-size="13" fill="#555" font-family="sans-serif">MethodParameters</text>
<circle cx="24" cy="58" r="4" class="start-circle"/>
<line x1="28" y1="58" x2="40" y2="58" class="rail"/>
<g id="2128812251">
<g id="741530611">
<rect x="40" y="44" width="125" height="28" class="nonterminal-box"/>
<text x="102" y="62" text-anchor="middle" class="nonterminal-text">MethodParameter</text>
</g>
<line x1="165" y1="58" x2="185" y2="58" class="rail"/>
<polygon points="172,55 178,58 172,61" class="arrow"/>
<g id="1226591508">
<g id="1934360013">
<g id="1835750520">
<rect x="201" y="68" width="41" height="28" rx="10" ry="10" class="terminal-box"/>
<text x="221" y="86" text-anchor="middle" class="terminal-text">','</text>
</g>
<line x1="242" y1="82" x2="262" y2="82" class="rail"/>
<polygon points="249,79 255,82 249,85" class="arrow"/>
<g id="393485445">
<rect x="262" y="68" width="125" height="28" class="nonterminal-box"/>
<text x="324" y="86" text-anchor="middle" class="nonterminal-text">MethodParameter</text>
</g>
</g>
<line x1="185" y1="58" x2="403" y2="58" class="rail"/>
<path d="M201,58 Q193,58 193,66" class="rail" fill="none"/>
<path d="M193,74 Q193,82 185,82" class="rail" fill="none"/>
<line x1="185" y1="82" x2="201" y2="82" class="rail"/>
<line x1="387" y1="82" x2="403" y2="82" class="rail"/>
<path d="M403,82 Q395,82 395,74" class="rail" fill="none"/>
<path d="M395,66 Q395,58 387,58" class="rail" fill="none"/>
<path d="M395,82 Q403,82 403,90" class="rail" fill="none"/>
<path d="M403,98 Q403,106 395,106" class="rail" fill="none"/>
<line x1="193" y1="106" x2="395" y2="106" class="rail"/>
<polygon points="300,103 294,106 300,109" class="arrow"/>
<path d="M193,106 Q185,106 185,98" class="rail" fill="none"/>
<path d="M185,90 Q185,82 193,82" class="rail" fill="none"/>
</g>
</g>
<line x1="403" y1="58" x2="411" y2="58" class="rail"/>
<circle cx="417" cy="58" r="6" class="end-circle-outer"/>
<circle cx="417" cy="58" r="3" class="end-circle-inner"/>
</svg>
