<svg xmlns="http://www.w3.org/2000/svg" width="561" height="92">
<style>
  .rail { stroke: #333; stroke-width: 2; fill: none; }
  .arrow { stroke: #333; stroke-width: 2; fill: none; }
  .terminal-box { fill: #e8f5e9; stroke: #2e7d32; stroke-width: 2; }
  .terminal-text { font-family: monospace; font-size: 12px; fill: #1b5e20; }
  .nonterminal-box { fill: #e3f2fd; stroke: #1565c0; stroke-width: 2; }
  .nonterminal-text { font-family: sans-serif; font-size: 12px; fill: #0d47a1; }
  .start-circle { fill: #333; stroke: none; }
  .end-circle-outer { fill: none; stroke: #333; stroke-width: 2; }
  .end-circle-inner { fill: #333; stroke: none; }
  rect, g { transition: all 0.3s; }
</style>
<text x="20" y="38" font-size="13" fill="#555" font-family="sans-serif">ArgumentTernary</text>
<circle cx="24" cy="58" r="4" class="start-circle"/>
<line x1="28" y1="58" x2="40" y2="58" class="rail"/>
<g id="105354076">
<g id="1281852073">
<rect x="40" y="44" width="139" height="28" class="nonterminal-box"/>
<text x="109" y="62" text-anchor="middle" class="nonterminal-text">BooleanExpression</text>
</g>
<line x1="179" y1="58" x2="199" y2="58" class="rail"/>
<polygon points="186,55 192,58 186,61" class="arrow"/>
<g id="896006894">
<rect x="199" y="44" width="41" height="28" rx="10" ry="10" class="terminal-box"/>
<text x="219" y="62" text-anchor="middle" class="terminal-text">'?'</text>
</g>
<line x1="240" y1="58" x2="260" y2="58" class="rail"/>
<polygon points="247,55 253,58 247,61" class="arrow"/>
<g id="1564778497">
<rect x="260" y="44" width="90" height="28" class="nonterminal-box"/>
<text x="305" y="62" text-anchor="middle" class="nonterminal-text">Expression</text>
</g>
<line x1="350" y1="58" x2="370" y2="58" class="rail"/>
<polygon points="357,55 363,58 357,61" class="arrow"/>
<g id="2088701771">
<rect x="370" y="44" width="41" height="28" rx="10" ry="10" class="terminal-box"/>
<text x="390" y="62" text-anchor="middle" class="terminal-text">':'</text>
</g>
<line x1="411" y1="58" x2="431" y2="58" class="rail"/>
<polygon points="418,55 424,58 418,61" class="arrow"/>
<g id="217950375">
<rect x="431" y="44" width="90" height="28" class="nonterminal-box"/>
<text x="476" y="62" text-anchor="middle" class="nonterminal-text">Expression</text>
</g>
</g>
<line x1="521" y1="58" x2="529" y2="58" class="rail"/>
<circle cx="535" cy="58" r="6" class="end-circle-outer"/>
<circle cx="535" cy="58" r="3" class="end-circle-inner"/>
</svg>
