<svg xmlns="http://www.w3.org/2000/svg" xmlns:xlink="http://www.w3.org/1999/xlink" width="714" height="90">
<style>
  svg { background: white; font-family: sans-serif; }
  .rail { stroke: #333; stroke-width: 2; fill: none; }
  .arrow { fill: #333; }
  .terminal-box { fill: #E8F4FD; stroke: #2196F3; stroke-width: 2; rx: 10; ry: 10; }
  .nonterminal-box { fill: #E8F5E9; stroke: #4CAF50; stroke-width: 2; }
  .nonterminal-box:hover { fill: #C8E6C9; stroke: #2E7D32; cursor: pointer; }
  .terminal-text { font-family: monospace; font-size: 14px; fill: #0D47A1; }
  .nonterminal-text { font-family: sans-serif; font-size: 14px; fill: #1B5E20; }
  a:hover .nonterminal-text { fill: #1B5E20; text-decoration: underline; }
  .start-circle { fill: #333; stroke: none; }
  .end-circle-outer { fill: #333; stroke: none; }
  .end-circle-inner { fill: white; stroke: none; }
</style>
<text x="20" y="38" font-size="13" fill="#555" font-family="sans-serif">MaxFunction</text>
<circle cx="26" cy="57" r="6" class="start-circle"/>
<line x1="32" y1="57" x2="50" y2="57" class="rail"/>
<rect x="50" y="44" width="65" height="26" rx="10" ry="10" class="terminal-box"/>
<text x="82" y="62" text-anchor="middle" class="terminal-text">'max'</text>
<line x1="115" y1="57" x2="131" y2="57" class="rail"/>
<polygon points="120,54 126,57 120,60" class="arrow"/>
<rect x="131" y="44" width="47" height="26" rx="10" ry="10" class="terminal-box"/>
<text x="154" y="62" text-anchor="middle" class="terminal-text">'('</text>
<line x1="178" y1="57" x2="194" y2="57" class="rail"/>
<polygon points="183,54 189,57 183,60" class="arrow"/>
<a xlink:href="#NumberExpression" target="_top">
<rect x="194" y="44" width="164" height="26" class="nonterminal-box"/>
<text x="276" y="62" text-anchor="middle" class="nonterminal-text">NumberExpression</text>
</a>
<line x1="358" y1="57" x2="374" y2="57" class="rail"/>
<polygon points="363,54 369,57 363,60" class="arrow"/>
<rect x="374" y="44" width="47" height="26" rx="10" ry="10" class="terminal-box"/>
<text x="397" y="62" text-anchor="middle" class="terminal-text">','</text>
<line x1="421" y1="57" x2="437" y2="57" class="rail"/>
<polygon points="426,54 432,57 426,60" class="arrow"/>
<a xlink:href="#NumberExpression" target="_top">
<rect x="437" y="44" width="164" height="26" class="nonterminal-box"/>
<text x="519" y="62" text-anchor="middle" class="nonterminal-text">NumberExpression</text>
</a>
<line x1="601" y1="57" x2="617" y2="57" class="rail"/>
<polygon points="606,54 612,57 606,60" class="arrow"/>
<rect x="617" y="44" width="47" height="26" rx="10" ry="10" class="terminal-box"/>
<text x="640" y="62" text-anchor="middle" class="terminal-text">')'</text>
<line x1="664" y1="57" x2="678" y2="57" class="rail"/>
<circle cx="686" cy="57" r="8" class="end-circle-outer"/>
<circle cx="686" cy="57" r="5" class="end-circle-inner"/>
</svg>
