<svg xmlns="http://www.w3.org/2000/svg" width="825" height="120">
<style>
  .rail { stroke: #333; stroke-width: 2; fill: none; }
  .arrow { stroke: #333; stroke-width: 2; fill: none; }
  .terminal-box { fill: #e8f5e9; stroke: #2e7d32; stroke-width: 2; }
  .terminal-text { font-family: monospace; font-size: 12px; fill: #1b5e20; }
  .nonterminal-box { fill: #e3f2fd; stroke: #1565c0; stroke-width: 2; }
  .nonterminal-text { font-family: sans-serif; font-size: 12px; fill: #0d47a1; }
  .start-circle { fill: #333; stroke: none; }
  .end-circle-outer { fill: none; stroke: #333; stroke-width: 2; }
  .end-circle-inner { fill: #333; stroke: none; }
  rect, g { transition: all 0.3s; }
</style>
<text x="20" y="38" font-size="13" fill="#555" font-family="sans-serif">BooleanMatchExpression</text>
<circle cx="24" cy="58" r="4" class="start-circle"/>
<line x1="28" y1="58" x2="40" y2="58" class="rail"/>
<g id="734954686">
<g id="1921710598">
<rect x="40" y="44" width="69" height="28" rx="10" ry="10" class="terminal-box"/>
<text x="74" y="62" text-anchor="middle" class="terminal-text">'match'</text>
</g>
<line x1="109" y1="58" x2="129" y2="58" class="rail"/>
<polygon points="116,55 122,58 116,61" class="arrow"/>
<g id="1907267316">
<rect x="129" y="44" width="41" height="28" rx="10" ry="10" class="terminal-box"/>
<text x="149" y="62" text-anchor="middle" class="terminal-text">'{'</text>
</g>
<line x1="170" y1="58" x2="190" y2="58" class="rail"/>
<polygon points="177,55 183,58 177,61" class="arrow"/>
<g id="1689674608">
<rect x="190" y="44" width="97" height="28" class="nonterminal-box"/>
<text x="238" y="62" text-anchor="middle" class="nonterminal-text">BooleanCase</text>
</g>
<line x1="287" y1="58" x2="307" y2="58" class="rail"/>
<polygon points="294,55 300,58 294,61" class="arrow"/>
<g id="2009437727">
<g id="541056139">
<g id="6055722">
<rect x="323" y="68" width="41" height="28" rx="10" ry="10" class="terminal-box"/>
<text x="343" y="86" text-anchor="middle" class="terminal-text">','</text>
</g>
<line x1="364" y1="82" x2="384" y2="82" class="rail"/>
<polygon points="371,79 377,82 371,85" class="arrow"/>
<g id="623114221">
<rect x="384" y="68" width="97" height="28" class="nonterminal-box"/>
<text x="432" y="86" text-anchor="middle" class="nonterminal-text">BooleanCase</text>
</g>
</g>
<line x1="307" y1="58" x2="497" y2="58" class="rail"/>
<path d="M323,58 Q315,58 315,66" class="rail" fill="none"/>
<path d="M315,74 Q315,82 307,82" class="rail" fill="none"/>
<line x1="307" y1="82" x2="323" y2="82" class="rail"/>
<line x1="481" y1="82" x2="497" y2="82" class="rail"/>
<path d="M497,82 Q489,82 489,74" class="rail" fill="none"/>
<path d="M489,66 Q489,58 481,58" class="rail" fill="none"/>
<path d="M489,82 Q497,82 497,90" class="rail" fill="none"/>
<path d="M497,98 Q497,106 489,106" class="rail" fill="none"/>
<line x1="315" y1="106" x2="489" y2="106" class="rail"/>
<polygon points="408,103 402,106 408,109" class="arrow"/>
<path d="M315,106 Q307,106 307,98" class="rail" fill="none"/>
<path d="M307,90 Q307,82 315,82" class="rail" fill="none"/>
</g>
<line x1="497" y1="58" x2="517" y2="58" class="rail"/>
<polygon points="504,55 510,58 504,61" class="arrow"/>
<g id="339987194">
<rect x="517" y="44" width="41" height="28" rx="10" ry="10" class="terminal-box"/>
<text x="537" y="62" text-anchor="middle" class="terminal-text">','</text>
</g>
<line x1="558" y1="58" x2="578" y2="58" class="rail"/>
<polygon points="565,55 571,58 565,61" class="arrow"/>
<g id="786815744">
<rect x="578" y="44" width="146" height="28" class="nonterminal-box"/>
<text x="651" y="62" text-anchor="middle" class="nonterminal-text">BooleanDefaultCase</text>
</g>
<line x1="724" y1="58" x2="744" y2="58" class="rail"/>
<polygon points="731,55 737,58 731,61" class="arrow"/>
<g id="1893765587">
<rect x="744" y="44" width="41" height="28" rx="10" ry="10" class="terminal-box"/>
<text x="764" y="62" text-anchor="middle" class="terminal-text">'}'</text>
</g>
</g>
<line x1="785" y1="58" x2="793" y2="58" class="rail"/>
<circle cx="799" cy="58" r="6" class="end-circle-outer"/>
<circle cx="799" cy="58" r="3" class="end-circle-inner"/>
</svg>
