<svg xmlns="http://www.w3.org/2000/svg" xmlns:xlink="http://www.w3.org/1999/xlink" width="430" height="470">
<style>
  svg { background: white; font-family: sans-serif; }
  .rail { stroke: #333; stroke-width: 2; fill: none; }
  .arrow { fill: #333; }
  .terminal-box { fill: #E8F4FD; stroke: #2196F3; stroke-width: 2; rx: 10; ry: 10; }
  .nonterminal-box { fill: #E8F5E9; stroke: #4CAF50; stroke-width: 2; }
  .nonterminal-box:hover { fill: #C8E6C9; stroke: #2E7D32; cursor: pointer; }
  .terminal-text { font-family: monospace; font-size: 14px; fill: #0D47A1; }
  .nonterminal-text { font-family: sans-serif; font-size: 14px; fill: #1B5E20; }
  a:hover .nonterminal-text { fill: #1B5E20; text-decoration: underline; }
  .start-circle { fill: #333; stroke: none; }
  .end-circle-outer { fill: #333; stroke: none; }
  .end-circle-inner { fill: white; stroke: none; }
</style>
<text x="20" y="38" font-size="13" fill="#555" font-family="sans-serif">NumberFactor</text>
<circle cx="26" cy="57" r="6" class="start-circle"/>
<line x1="32" y1="57" x2="50" y2="57" class="rail"/>
<a xlink:href="#TernaryExpression" target="_top">
<rect x="128" y="44" width="173" height="26" class="nonterminal-box"/>
<text x="214" y="62" text-anchor="middle" class="nonterminal-text">TernaryExpression</text>
</a>
<line x1="70" y1="57" x2="128" y2="57" class="rail"/>
<line x1="301" y1="57" x2="360" y2="57" class="rail"/>
<line x1="50" y1="57" x2="70" y2="57" class="rail"/>
<line x1="360" y1="57" x2="380" y2="57" class="rail"/>
<a xlink:href="#NumberMatchExpression" target="_top">
<rect x="110" y="82" width="209" height="26" class="nonterminal-box"/>
<text x="214" y="100" text-anchor="middle" class="nonterminal-text">NumberMatchExpression</text>
</a>
<line x1="70" y1="95" x2="110" y2="95" class="rail"/>
<line x1="319" y1="95" x2="360" y2="95" class="rail"/>
<path d="M 50,57 Q 60,57 60,67" class="rail"/>
<line x1="60" y1="67" x2="60" y2="85" class="rail"/>
<path d="M 60,85 Q 60,95 70,95" class="rail"/>
<path d="M 360,95 Q 370,95 370,85" class="rail"/>
<line x1="370" y1="85" x2="370" y2="67" class="rail"/>
<path d="M 370,67 Q 370,57 380,57" class="rail"/>
<a xlink:href="#IfExpression" target="_top">
<rect x="151" y="120" width="128" height="26" class="nonterminal-box"/>
<text x="215" y="138" text-anchor="middle" class="nonterminal-text">IfExpression</text>
</a>
<line x1="70" y1="133" x2="151" y2="133" class="rail"/>
<line x1="279" y1="133" x2="360" y2="133" class="rail"/>
<path d="M 50,57 Q 60,57 60,67" class="rail"/>
<line x1="60" y1="67" x2="60" y2="123" class="rail"/>
<path d="M 60,123 Q 60,133 70,133" class="rail"/>
<path d="M 360,133 Q 370,133 370,123" class="rail"/>
<line x1="370" y1="123" x2="370" y2="67" class="rail"/>
<path d="M 370,67 Q 370,57 380,57" class="rail"/>
<a xlink:href="#MathFunction" target="_top">
<rect x="151" y="158" width="128" height="26" class="nonterminal-box"/>
<text x="215" y="176" text-anchor="middle" class="nonterminal-text">MathFunction</text>
</a>
<line x1="70" y1="171" x2="151" y2="171" class="rail"/>
<line x1="279" y1="171" x2="360" y2="171" class="rail"/>
<path d="M 50,57 Q 60,57 60,67" class="rail"/>
<line x1="60" y1="67" x2="60" y2="161" class="rail"/>
<path d="M 60,161 Q 60,171 70,171" class="rail"/>
<path d="M 360,171 Q 370,171 370,161" class="rail"/>
<line x1="370" y1="161" x2="370" y2="67" class="rail"/>
<path d="M 370,67 Q 370,57 380,57" class="rail"/>
<a xlink:href="#ToNumFunction" target="_top">
<rect x="146" y="196" width="137" height="26" class="nonterminal-box"/>
<text x="214" y="214" text-anchor="middle" class="nonterminal-text">ToNumFunction</text>
</a>
<line x1="70" y1="209" x2="146" y2="209" class="rail"/>
<line x1="283" y1="209" x2="360" y2="209" class="rail"/>
<path d="M 50,57 Q 60,57 60,67" class="rail"/>
<line x1="60" y1="67" x2="60" y2="199" class="rail"/>
<path d="M 60,199 Q 60,209 70,209" class="rail"/>
<path d="M 360,209 Q 370,209 370,199" class="rail"/>
<line x1="370" y1="199" x2="370" y2="67" class="rail"/>
<path d="M 370,67 Q 370,57 380,57" class="rail"/>
<a xlink:href="#ExternalNumberInvocation" target="_top">
<rect x="97" y="234" width="236" height="26" class="nonterminal-box"/>
<text x="215" y="252" text-anchor="middle" class="nonterminal-text">ExternalNumberInvocation</text>
</a>
<line x1="70" y1="247" x2="97" y2="247" class="rail"/>
<line x1="333" y1="247" x2="360" y2="247" class="rail"/>
<path d="M 50,57 Q 60,57 60,67" class="rail"/>
<line x1="60" y1="67" x2="60" y2="237" class="rail"/>
<path d="M 60,237 Q 60,247 70,247" class="rail"/>
<path d="M 360,247 Q 370,247 370,237" class="rail"/>
<line x1="370" y1="237" x2="370" y2="67" class="rail"/>
<path d="M 370,67 Q 370,57 380,57" class="rail"/>
<a xlink:href="#SideEffectNumberExpression" target="_top">
<rect x="88" y="272" width="254" height="26" class="nonterminal-box"/>
<text x="215" y="290" text-anchor="middle" class="nonterminal-text">SideEffectNumberExpression</text>
</a>
<line x1="70" y1="285" x2="88" y2="285" class="rail"/>
<line x1="342" y1="285" x2="360" y2="285" class="rail"/>
<path d="M 50,57 Q 60,57 60,67" class="rail"/>
<line x1="60" y1="67" x2="60" y2="275" class="rail"/>
<path d="M 60,275 Q 60,285 70,285" class="rail"/>
<path d="M 360,285 Q 370,285 370,275" class="rail"/>
<line x1="370" y1="275" x2="370" y2="67" class="rail"/>
<path d="M 370,67 Q 370,57 380,57" class="rail"/>
<a xlink:href="#NUMBER" target="_top">
<rect x="178" y="310" width="74" height="26" class="nonterminal-box"/>
<text x="215" y="328" text-anchor="middle" class="nonterminal-text">NUMBER</text>
</a>
<line x1="70" y1="323" x2="178" y2="323" class="rail"/>
<line x1="252" y1="323" x2="360" y2="323" class="rail"/>
<path d="M 50,57 Q 60,57 60,67" class="rail"/>
<line x1="60" y1="67" x2="60" y2="313" class="rail"/>
<path d="M 60,313 Q 60,323 70,323" class="rail"/>
<path d="M 360,323 Q 370,323 370,313" class="rail"/>
<line x1="370" y1="313" x2="370" y2="67" class="rail"/>
<path d="M 370,67 Q 370,57 380,57" class="rail"/>
<a xlink:href="#VariableRef" target="_top">
<rect x="155" y="348" width="119" height="26" class="nonterminal-box"/>
<text x="214" y="366" text-anchor="middle" class="nonterminal-text">VariableRef</text>
</a>
<line x1="70" y1="361" x2="155" y2="361" class="rail"/>
<line x1="274" y1="361" x2="360" y2="361" class="rail"/>
<path d="M 50,57 Q 60,57 60,67" class="rail"/>
<line x1="60" y1="67" x2="60" y2="351" class="rail"/>
<path d="M 60,351 Q 60,361 70,361" class="rail"/>
<path d="M 360,361 Q 370,361 370,351" class="rail"/>
<line x1="370" y1="351" x2="370" y2="67" class="rail"/>
<path d="M 370,67 Q 370,57 380,57" class="rail"/>
<a xlink:href="#MethodInvocation" target="_top">
<rect x="133" y="386" width="164" height="26" class="nonterminal-box"/>
<text x="215" y="404" text-anchor="middle" class="nonterminal-text">MethodInvocation</text>
</a>
<line x1="70" y1="399" x2="133" y2="399" class="rail"/>
<line x1="297" y1="399" x2="360" y2="399" class="rail"/>
<path d="M 50,57 Q 60,57 60,67" class="rail"/>
<line x1="60" y1="67" x2="60" y2="389" class="rail"/>
<path d="M 60,389 Q 60,399 70,399" class="rail"/>
<path d="M 360,399 Q 370,399 370,389" class="rail"/>
<line x1="370" y1="389" x2="370" y2="67" class="rail"/>
<path d="M 370,67 Q 370,57 380,57" class="rail"/>
<rect x="70" y="424" width="47" height="26" rx="10" ry="10" class="terminal-box"/>
<text x="93" y="442" text-anchor="middle" class="terminal-text">'('</text>
<line x1="117" y1="437" x2="133" y2="437" class="rail"/>
<polygon points="122,434 128,437 122,440" class="arrow"/>
<a xlink:href="#NumberExpression" target="_top">
<rect x="133" y="424" width="164" height="26" class="nonterminal-box"/>
<text x="215" y="442" text-anchor="middle" class="nonterminal-text">NumberExpression</text>
</a>
<line x1="297" y1="437" x2="313" y2="437" class="rail"/>
<polygon points="302,434 308,437 302,440" class="arrow"/>
<rect x="313" y="424" width="47" height="26" rx="10" ry="10" class="terminal-box"/>
<text x="336" y="442" text-anchor="middle" class="terminal-text">')'</text>
<path d="M 50,57 Q 60,57 60,67" class="rail"/>
<line x1="60" y1="67" x2="60" y2="427" class="rail"/>
<path d="M 60,427 Q 60,437 70,437" class="rail"/>
<path d="M 360,437 Q 370,437 370,427" class="rail"/>
<line x1="370" y1="427" x2="370" y2="67" class="rail"/>
<path d="M 370,67 Q 370,57 380,57" class="rail"/>
<line x1="380" y1="57" x2="394" y2="57" class="rail"/>
<circle cx="402" cy="57" r="8" class="end-circle-outer"/>
<circle cx="402" cy="57" r="5" class="end-circle-inner"/>
</svg>
