<svg xmlns="http://www.w3.org/2000/svg" width="891" height="130">
<style>
  .rail { stroke: #333; stroke-width: 2; fill: none; }
  .arrow { stroke: #333; stroke-width: 2; fill: none; }
  .terminal-box { fill: #e8f5e9; stroke: #2e7d32; stroke-width: 2; }
  .terminal-text { font-family: monospace; font-size: 12px; fill: #1b5e20; }
  .nonterminal-box { fill: #e3f2fd; stroke: #1565c0; stroke-width: 2; }
  .nonterminal-text { font-family: sans-serif; font-size: 12px; fill: #0d47a1; }
  .start-circle { fill: #333; stroke: none; }
  .end-circle-outer { fill: none; stroke: #333; stroke-width: 2; }
  .end-circle-inner { fill: #333; stroke: none; }
  rect, g { transition: all 0.3s; }
</style>
<text x="20" y="38" font-size="13" fill="#555" font-family="sans-serif">BooleanVariableDeclaration</text>
<circle cx="24" cy="76" r="4" class="start-circle"/>
<line x1="28" y1="76" x2="40" y2="76" class="rail"/>
<g id="793486404">
<g id="962097694">
<g id="2019900443">
<rect x="73" y="62" width="55" height="28" rx="10" ry="10" class="terminal-box"/>
<text x="100" y="80" text-anchor="middle" class="terminal-text">'var'</text>
</g>
<line x1="56" y1="76" x2="73" y2="76" class="rail"/>
<line x1="128" y1="76" x2="146" y2="76" class="rail"/>
<line x1="40" y1="76" x2="56" y2="76" class="rail"/>
<line x1="146" y1="76" x2="162" y2="76" class="rail"/>
<g id="956525128">
<rect x="56" y="100" width="90" height="28" rx="10" ry="10" class="terminal-box"/>
<text x="101" y="118" text-anchor="middle" class="terminal-text">'variable'</text>
</g>
<line x1="56" y1="114" x2="56" y2="114" class="rail"/>
<line x1="146" y1="114" x2="146" y2="114" class="rail"/>
<path d="M40,76 Q48,76 48,84" class="rail" fill="none"/>
<path d="M48,106 Q48,114 56,114" class="rail" fill="none"/>
<path d="M146,114 Q154,114 154,106" class="rail" fill="none"/>
<path d="M154,84 Q154,76 162,76" class="rail" fill="none"/>
</g>
<line x1="162" y1="76" x2="182" y2="76" class="rail"/>
<polygon points="169,73 175,76 169,79" class="arrow"/>
<g id="161941381">
<rect x="182" y="62" width="41" height="28" rx="10" ry="10" class="terminal-box"/>
<text x="202" y="80" text-anchor="middle" class="terminal-text">'$'</text>
</g>
<line x1="223" y1="76" x2="243" y2="76" class="rail"/>
<polygon points="230,73 236,76 230,79" class="arrow"/>
<g id="726957523">
<rect x="243" y="62" width="90" height="28" class="nonterminal-box"/>
<text x="288" y="80" text-anchor="middle" class="nonterminal-text">IDENTIFIER</text>
</g>
<line x1="333" y1="76" x2="353" y2="76" class="rail"/>
<polygon points="340,73 346,76 340,79" class="arrow"/>
<g id="314408224">
<g id="1374036517">
<rect x="369" y="62" width="125" height="28" class="nonterminal-box"/>
<text x="431" y="80" text-anchor="middle" class="nonterminal-text">BooleanTypeHint</text>
</g>
<line x1="353" y1="76" x2="369" y2="76" class="rail"/>
<line x1="494" y1="76" x2="510" y2="76" class="rail"/>
<path d="M353,76 Q361,76 361,68" class="rail" fill="none"/>
<path d="M361,60 Q361,52 369,52" class="rail" fill="none"/>
<line x1="369" y1="52" x2="494" y2="52" class="rail"/>
<path d="M494,52 Q502,52 502,60" class="rail" fill="none"/>
<path d="M502,68 Q502,76 510,76" class="rail" fill="none"/>
</g>
<line x1="510" y1="76" x2="530" y2="76" class="rail"/>
<polygon points="517,73 523,76 517,79" class="arrow"/>
<g id="732270729">
<g id="588766173">
<rect x="546" y="62" width="111" height="28" class="nonterminal-box"/>
<text x="601" y="80" text-anchor="middle" class="nonterminal-text">BooleanSetter</text>
</g>
<line x1="530" y1="76" x2="546" y2="76" class="rail"/>
<line x1="657" y1="76" x2="673" y2="76" class="rail"/>
<path d="M530,76 Q538,76 538,68" class="rail" fill="none"/>
<path d="M538,60 Q538,52 546,52" class="rail" fill="none"/>
<line x1="546" y1="52" x2="657" y2="52" class="rail"/>
<path d="M657,52 Q665,52 665,60" class="rail" fill="none"/>
<path d="M665,68 Q665,76 673,76" class="rail" fill="none"/>
</g>
<line x1="673" y1="76" x2="693" y2="76" class="rail"/>
<polygon points="680,73 686,76 680,79" class="arrow"/>
<g id="1269987538">
<rect x="693" y="62" width="97" height="28" class="nonterminal-box"/>
<text x="741" y="80" text-anchor="middle" class="nonterminal-text">Description</text>
</g>
<line x1="790" y1="76" x2="810" y2="76" class="rail"/>
<polygon points="797,73 803,76 797,79" class="arrow"/>
<g id="849303801">
<rect x="810" y="62" width="41" height="28" rx="10" ry="10" class="terminal-box"/>
<text x="830" y="80" text-anchor="middle" class="terminal-text">';'</text>
</g>
</g>
<line x1="851" y1="76" x2="859" y2="76" class="rail"/>
<circle cx="865" cy="76" r="6" class="end-circle-outer"/>
<circle cx="865" cy="76" r="3" class="end-circle-inner"/>
</svg>
