<svg xmlns="http://www.w3.org/2000/svg" xmlns:xlink="http://www.w3.org/1999/xlink" width="1042" height="112">
<style>
  svg { background: white; font-family: sans-serif; }
  .rail { stroke: #333; stroke-width: 2; fill: none; }
  .arrow { fill: #333; }
  .terminal-box { fill: #E8F4FD; stroke: #2196F3; stroke-width: 2; rx: 10; ry: 10; }
  .nonterminal-box { fill: #E8F5E9; stroke: #4CAF50; stroke-width: 2; }
  .nonterminal-box:hover { fill: #C8E6C9; stroke: #2E7D32; cursor: pointer; }
  .terminal-text { font-family: monospace; font-size: 14px; fill: #0D47A1; }
  .nonterminal-text { font-family: sans-serif; font-size: 14px; fill: #1B5E20; }
  a:hover .nonterminal-text { fill: #1B5E20; text-decoration: underline; }
  .start-circle { fill: #333; stroke: none; }
  .end-circle-outer { fill: #333; stroke: none; }
  .end-circle-inner { fill: white; stroke: none; }
</style>
<text x="20" y="38" font-size="13" fill="#555" font-family="sans-serif">ObjectMethodDeclaration</text>
<circle cx="26" cy="79" r="6" class="start-circle"/>
<line x1="32" y1="79" x2="50" y2="79" class="rail"/>
<a xlink:href="#ObjectReturnType" target="_top">
<rect x="50" y="66" width="164" height="26" class="nonterminal-box"/>
<text x="132" y="84" text-anchor="middle" class="nonterminal-text">ObjectReturnType</text>
</a>
<line x1="214" y1="79" x2="230" y2="79" class="rail"/>
<polygon points="219,76 225,79 219,82" class="arrow"/>
<a xlink:href="#IDENTIFIER" target="_top">
<rect x="230" y="66" width="110" height="26" class="nonterminal-box"/>
<text x="285" y="84" text-anchor="middle" class="nonterminal-text">IDENTIFIER</text>
</a>
<line x1="340" y1="79" x2="356" y2="79" class="rail"/>
<polygon points="345,76 351,79 345,82" class="arrow"/>
<rect x="356" y="66" width="47" height="26" rx="10" ry="10" class="terminal-box"/>
<text x="379" y="84" text-anchor="middle" class="terminal-text">'('</text>
<line x1="403" y1="79" x2="419" y2="79" class="rail"/>
<polygon points="408,76 414,79 408,82" class="arrow"/>
<a xlink:href="#MethodParameters" target="_top">
<rect x="439" y="66" width="164" height="26" class="nonterminal-box"/>
<text x="521" y="84" text-anchor="middle" class="nonterminal-text">MethodParameters</text>
</a>
<line x1="419" y1="79" x2="439" y2="79" class="rail"/>
<line x1="603" y1="79" x2="623" y2="79" class="rail"/>
<path d="M 419,79 Q 429,79 429,69" class="rail"/>
<line x1="429" y1="69" x2="429" y2="64" class="rail"/>
<path d="M 429,64 Q 429,54 439,54" class="rail"/>
<line x1="439" y1="54" x2="603" y2="54" class="rail"/>
<path d="M 603,54 Q 613,54 613,64" class="rail"/>
<line x1="613" y1="64" x2="613" y2="69" class="rail"/>
<path d="M 613,69 Q 613,79 623,79" class="rail"/>
<line x1="623" y1="79" x2="639" y2="79" class="rail"/>
<polygon points="628,76 634,79 628,82" class="arrow"/>
<rect x="639" y="66" width="47" height="26" rx="10" ry="10" class="terminal-box"/>
<text x="662" y="84" text-anchor="middle" class="terminal-text">')'</text>
<line x1="686" y1="79" x2="702" y2="79" class="rail"/>
<polygon points="691,76 697,79 691,82" class="arrow"/>
<rect x="702" y="66" width="47" height="26" rx="10" ry="10" class="terminal-box"/>
<text x="725" y="84" text-anchor="middle" class="terminal-text">'{'</text>
<line x1="749" y1="79" x2="765" y2="79" class="rail"/>
<polygon points="754,76 760,79 754,82" class="arrow"/>
<a xlink:href="#ObjectExpression" target="_top">
<rect x="765" y="66" width="164" height="26" class="nonterminal-box"/>
<text x="847" y="84" text-anchor="middle" class="nonterminal-text">ObjectExpression</text>
</a>
<line x1="929" y1="79" x2="945" y2="79" class="rail"/>
<polygon points="934,76 940,79 934,82" class="arrow"/>
<rect x="945" y="66" width="47" height="26" rx="10" ry="10" class="terminal-box"/>
<text x="968" y="84" text-anchor="middle" class="terminal-text">'}'</text>
<line x1="992" y1="79" x2="1006" y2="79" class="rail"/>
<circle cx="1014" cy="79" r="8" class="end-circle-outer"/>
<circle cx="1014" cy="79" r="5" class="end-circle-inner"/>
</svg>
