<svg xmlns="http://www.w3.org/2000/svg" width="230" height="586">
<style>
  .rail { stroke: #333; stroke-width: 2; fill: none; }
  .arrow { stroke: #333; stroke-width: 2; fill: none; }
  .terminal-box { fill: #e8f5e9; stroke: #2e7d32; stroke-width: 2; }
  .terminal-text { font-family: monospace; font-size: 12px; fill: #1b5e20; }
  .nonterminal-box { fill: #e3f2fd; stroke: #1565c0; stroke-width: 2; }
  .nonterminal-text { font-family: sans-serif; font-size: 12px; fill: #0d47a1; }
  .start-circle { fill: #333; stroke: none; }
  .end-circle-outer { fill: none; stroke: #333; stroke-width: 2; }
  .end-circle-inner { fill: #333; stroke: none; }
  rect, g { transition: all 0.3s; }
</style>
<text x="20" y="38" font-size="13" fill="#555" font-family="sans-serif">MathFunction</text>
<circle cx="24" cy="58" r="4" class="start-circle"/>
<line x1="28" y1="58" x2="40" y2="58" class="rail"/>
<g id="1078775689">
<g id="854923266">
<rect x="66" y="44" width="97" height="28" class="nonterminal-box"/>
<text x="114" y="62" text-anchor="middle" class="nonterminal-text">SinFunction</text>
</g>
<line x1="56" y1="58" x2="66" y2="58" class="rail"/>
<line x1="163" y1="58" x2="174" y2="58" class="rail"/>
<line x1="40" y1="58" x2="56" y2="58" class="rail"/>
<line x1="174" y1="58" x2="190" y2="58" class="rail"/>
<g id="939508817">
<rect x="66" y="82" width="97" height="28" class="nonterminal-box"/>
<text x="114" y="100" text-anchor="middle" class="nonterminal-text">CosFunction</text>
</g>
<line x1="56" y1="96" x2="66" y2="96" class="rail"/>
<line x1="163" y1="96" x2="174" y2="96" class="rail"/>
<path d="M40,58 Q48,58 48,66" class="rail" fill="none"/>
<path d="M48,88 Q48,96 56,96" class="rail" fill="none"/>
<path d="M174,96 Q182,96 182,88" class="rail" fill="none"/>
<path d="M182,66 Q182,58 190,58" class="rail" fill="none"/>
<g id="534340601">
<rect x="66" y="120" width="97" height="28" class="nonterminal-box"/>
<text x="114" y="138" text-anchor="middle" class="nonterminal-text">TanFunction</text>
</g>
<line x1="56" y1="134" x2="66" y2="134" class="rail"/>
<line x1="163" y1="134" x2="174" y2="134" class="rail"/>
<path d="M40,58 Q48,58 48,66" class="rail" fill="none"/>
<path d="M48,126 Q48,134 56,134" class="rail" fill="none"/>
<path d="M174,134 Q182,134 182,126" class="rail" fill="none"/>
<path d="M182,66 Q182,58 190,58" class="rail" fill="none"/>
<g id="1884785804">
<rect x="63" y="158" width="104" height="28" class="nonterminal-box"/>
<text x="115" y="176" text-anchor="middle" class="nonterminal-text">SqrtFunction</text>
</g>
<line x1="56" y1="172" x2="63" y2="172" class="rail"/>
<line x1="167" y1="172" x2="174" y2="172" class="rail"/>
<path d="M40,58 Q48,58 48,66" class="rail" fill="none"/>
<path d="M48,164 Q48,172 56,172" class="rail" fill="none"/>
<path d="M174,172 Q182,172 182,164" class="rail" fill="none"/>
<path d="M182,66 Q182,58 190,58" class="rail" fill="none"/>
<g id="1786298252">
<rect x="66" y="196" width="97" height="28" class="nonterminal-box"/>
<text x="114" y="214" text-anchor="middle" class="nonterminal-text">MinFunction</text>
</g>
<line x1="56" y1="210" x2="66" y2="210" class="rail"/>
<line x1="163" y1="210" x2="174" y2="210" class="rail"/>
<path d="M40,58 Q48,58 48,66" class="rail" fill="none"/>
<path d="M48,202 Q48,210 56,210" class="rail" fill="none"/>
<path d="M174,210 Q182,210 182,202" class="rail" fill="none"/>
<path d="M182,66 Q182,58 190,58" class="rail" fill="none"/>
<g id="602678238">
<rect x="66" y="234" width="97" height="28" class="nonterminal-box"/>
<text x="114" y="252" text-anchor="middle" class="nonterminal-text">MaxFunction</text>
</g>
<line x1="56" y1="248" x2="66" y2="248" class="rail"/>
<line x1="163" y1="248" x2="174" y2="248" class="rail"/>
<path d="M40,58 Q48,58 48,66" class="rail" fill="none"/>
<path d="M48,240 Q48,248 56,248" class="rail" fill="none"/>
<path d="M174,248 Q182,248 182,240" class="rail" fill="none"/>
<path d="M182,66 Q182,58 190,58" class="rail" fill="none"/>
<g id="2013154033">
<rect x="56" y="272" width="118" height="28" class="nonterminal-box"/>
<text x="115" y="290" text-anchor="middle" class="nonterminal-text">RandomFunction</text>
</g>
<line x1="56" y1="286" x2="56" y2="286" class="rail"/>
<line x1="174" y1="286" x2="174" y2="286" class="rail"/>
<path d="M40,58 Q48,58 48,66" class="rail" fill="none"/>
<path d="M48,278 Q48,286 56,286" class="rail" fill="none"/>
<path d="M174,286 Q182,286 182,278" class="rail" fill="none"/>
<path d="M182,66 Q182,58 190,58" class="rail" fill="none"/>
<g id="989956974">
<rect x="66" y="310" width="97" height="28" class="nonterminal-box"/>
<text x="114" y="328" text-anchor="middle" class="nonterminal-text">AbsFunction</text>
</g>
<line x1="56" y1="324" x2="66" y2="324" class="rail"/>
<line x1="163" y1="324" x2="174" y2="324" class="rail"/>
<path d="M40,58 Q48,58 48,66" class="rail" fill="none"/>
<path d="M48,316 Q48,324 56,324" class="rail" fill="none"/>
<path d="M174,324 Q182,324 182,316" class="rail" fill="none"/>
<path d="M182,66 Q182,58 190,58" class="rail" fill="none"/>
<g id="338351965">
<rect x="59" y="348" width="111" height="28" class="nonterminal-box"/>
<text x="114" y="366" text-anchor="middle" class="nonterminal-text">RoundFunction</text>
</g>
<line x1="56" y1="362" x2="59" y2="362" class="rail"/>
<line x1="170" y1="362" x2="174" y2="362" class="rail"/>
<path d="M40,58 Q48,58 48,66" class="rail" fill="none"/>
<path d="M48,354 Q48,362 56,362" class="rail" fill="none"/>
<path d="M174,362 Q182,362 182,354" class="rail" fill="none"/>
<path d="M182,66 Q182,58 190,58" class="rail" fill="none"/>
<g id="1452991701">
<rect x="63" y="386" width="104" height="28" class="nonterminal-box"/>
<text x="115" y="404" text-anchor="middle" class="nonterminal-text">CeilFunction</text>
</g>
<line x1="56" y1="400" x2="63" y2="400" class="rail"/>
<line x1="167" y1="400" x2="174" y2="400" class="rail"/>
<path d="M40,58 Q48,58 48,66" class="rail" fill="none"/>
<path d="M48,392 Q48,400 56,400" class="rail" fill="none"/>
<path d="M174,400 Q182,400 182,392" class="rail" fill="none"/>
<path d="M182,66 Q182,58 190,58" class="rail" fill="none"/>
<g id="1396086069">
<rect x="59" y="424" width="111" height="28" class="nonterminal-box"/>
<text x="114" y="442" text-anchor="middle" class="nonterminal-text">FloorFunction</text>
</g>
<line x1="56" y1="438" x2="59" y2="438" class="rail"/>
<line x1="170" y1="438" x2="174" y2="438" class="rail"/>
<path d="M40,58 Q48,58 48,66" class="rail" fill="none"/>
<path d="M48,430 Q48,438 56,438" class="rail" fill="none"/>
<path d="M174,438 Q182,438 182,430" class="rail" fill="none"/>
<path d="M182,66 Q182,58 190,58" class="rail" fill="none"/>
<g id="1683697350">
<rect x="66" y="462" width="97" height="28" class="nonterminal-box"/>
<text x="114" y="480" text-anchor="middle" class="nonterminal-text">PowFunction</text>
</g>
<line x1="56" y1="476" x2="66" y2="476" class="rail"/>
<line x1="163" y1="476" x2="174" y2="476" class="rail"/>
<path d="M40,58 Q48,58 48,66" class="rail" fill="none"/>
<path d="M48,468 Q48,476 56,476" class="rail" fill="none"/>
<path d="M174,476 Q182,476 182,468" class="rail" fill="none"/>
<path d="M182,66 Q182,58 190,58" class="rail" fill="none"/>
<g id="638164271">
<rect x="66" y="500" width="97" height="28" class="nonterminal-box"/>
<text x="114" y="518" text-anchor="middle" class="nonterminal-text">LogFunction</text>
</g>
<line x1="56" y1="514" x2="66" y2="514" class="rail"/>
<line x1="163" y1="514" x2="174" y2="514" class="rail"/>
<path d="M40,58 Q48,58 48,66" class="rail" fill="none"/>
<path d="M48,506 Q48,514 56,514" class="rail" fill="none"/>
<path d="M174,514 Q182,514 182,506" class="rail" fill="none"/>
<path d="M182,66 Q182,58 190,58" class="rail" fill="none"/>
<g id="666134903">
<rect x="66" y="538" width="97" height="28" class="nonterminal-box"/>
<text x="114" y="556" text-anchor="middle" class="nonterminal-text">ExpFunction</text>
</g>
<line x1="56" y1="552" x2="66" y2="552" class="rail"/>
<line x1="163" y1="552" x2="174" y2="552" class="rail"/>
<path d="M40,58 Q48,58 48,66" class="rail" fill="none"/>
<path d="M48,544 Q48,552 56,552" class="rail" fill="none"/>
<path d="M174,552 Q182,552 182,544" class="rail" fill="none"/>
<path d="M182,66 Q182,58 190,58" class="rail" fill="none"/>
</g>
<line x1="190" y1="58" x2="198" y2="58" class="rail"/>
<circle cx="204" cy="58" r="6" class="end-circle-outer"/>
<circle cx="204" cy="58" r="3" class="end-circle-inner"/>
</svg>
