<svg xmlns="http://www.w3.org/2000/svg" width="1095" height="120">
<style>
  .rail { stroke: #333; stroke-width: 2; fill: none; }
  .arrow { stroke: #333; stroke-width: 2; fill: none; }
  .terminal-box { fill: #e8f5e9; stroke: #2e7d32; stroke-width: 2; }
  .terminal-text { font-family: monospace; font-size: 12px; fill: #1b5e20; }
  .nonterminal-box { fill: #e3f2fd; stroke: #1565c0; stroke-width: 2; }
  .nonterminal-text { font-family: sans-serif; font-size: 12px; fill: #0d47a1; }
  .start-circle { fill: #333; stroke: none; }
  .end-circle-outer { fill: none; stroke: #333; stroke-width: 2; }
  .end-circle-inner { fill: #333; stroke: none; }
  rect, g { transition: all 0.3s; }
</style>
<text x="20" y="38" font-size="13" fill="#555" font-family="sans-serif">Formula</text>
<circle cx="24" cy="58" r="4" class="start-circle"/>
<line x1="28" y1="58" x2="40" y2="58" class="rail"/>
<g id="771129837">
<g id="690550927">
<g id="299037511">
<rect x="56" y="68" width="83" height="28" class="nonterminal-box"/>
<text x="97" y="86" text-anchor="middle" class="nonterminal-text">CodeBlock</text>
</g>
<line x1="40" y1="58" x2="155" y2="58" class="rail"/>
<path d="M56,58 Q48,58 48,66" class="rail" fill="none"/>
<path d="M48,74 Q48,82 40,82" class="rail" fill="none"/>
<line x1="40" y1="82" x2="56" y2="82" class="rail"/>
<line x1="139" y1="82" x2="155" y2="82" class="rail"/>
<path d="M155,82 Q147,82 147,74" class="rail" fill="none"/>
<path d="M147,66 Q147,58 139,58" class="rail" fill="none"/>
<path d="M147,82 Q155,82 155,90" class="rail" fill="none"/>
<path d="M155,98 Q155,106 147,106" class="rail" fill="none"/>
<line x1="48" y1="106" x2="147" y2="106" class="rail"/>
<polygon points="103,103 97,106 103,109" class="arrow"/>
<path d="M48,106 Q40,106 40,98" class="rail" fill="none"/>
<path d="M40,90 Q40,82 48,82" class="rail" fill="none"/>
</g>
<line x1="155" y1="58" x2="175" y2="58" class="rail"/>
<polygon points="162,55 168,58 162,61" class="arrow"/>
<g id="1580328980">
<g id="1179924586">
<rect x="191" y="68" width="139" height="28" class="nonterminal-box"/>
<text x="260" y="86" text-anchor="middle" class="nonterminal-text">ImportDeclaration</text>
</g>
<line x1="175" y1="58" x2="346" y2="58" class="rail"/>
<path d="M191,58 Q183,58 183,66" class="rail" fill="none"/>
<path d="M183,74 Q183,82 175,82" class="rail" fill="none"/>
<line x1="175" y1="82" x2="191" y2="82" class="rail"/>
<line x1="330" y1="82" x2="346" y2="82" class="rail"/>
<path d="M346,82 Q338,82 338,74" class="rail" fill="none"/>
<path d="M338,66 Q338,58 330,58" class="rail" fill="none"/>
<path d="M338,82 Q346,82 346,90" class="rail" fill="none"/>
<path d="M346,98 Q346,106 338,106" class="rail" fill="none"/>
<line x1="183" y1="106" x2="338" y2="106" class="rail"/>
<polygon points="266,103 260,106 266,109" class="arrow"/>
<path d="M183,106 Q175,106 175,98" class="rail" fill="none"/>
<path d="M175,90 Q175,82 183,82" class="rail" fill="none"/>
</g>
<line x1="346" y1="58" x2="366" y2="58" class="rail"/>
<polygon points="353,55 359,58 353,61" class="arrow"/>
<g id="750686451">
<g id="1111291067">
<rect x="382" y="68" width="153" height="28" class="nonterminal-box"/>
<text x="458" y="86" text-anchor="middle" class="nonterminal-text">VariableDeclaration</text>
</g>
<line x1="366" y1="58" x2="551" y2="58" class="rail"/>
<path d="M382,58 Q374,58 374,66" class="rail" fill="none"/>
<path d="M374,74 Q374,82 366,82" class="rail" fill="none"/>
<line x1="366" y1="82" x2="382" y2="82" class="rail"/>
<line x1="535" y1="82" x2="551" y2="82" class="rail"/>
<path d="M551,82 Q543,82 543,74" class="rail" fill="none"/>
<path d="M543,66 Q543,58 535,58" class="rail" fill="none"/>
<path d="M543,82 Q551,82 551,90" class="rail" fill="none"/>
<path d="M551,98 Q551,106 543,106" class="rail" fill="none"/>
<line x1="374" y1="106" x2="543" y2="106" class="rail"/>
<polygon points="464,103 458,106 464,109" class="arrow"/>
<path d="M374,106 Q366,106 366,98" class="rail" fill="none"/>
<path d="M366,90 Q366,82 374,82" class="rail" fill="none"/>
</g>
<line x1="551" y1="58" x2="571" y2="58" class="rail"/>
<polygon points="558,55 564,58 558,61" class="arrow"/>
<g id="443439699">
<g id="1263430246">
<rect x="587" y="68" width="90" height="28" class="nonterminal-box"/>
<text x="632" y="86" text-anchor="middle" class="nonterminal-text">Annotation</text>
</g>
<line x1="571" y1="58" x2="693" y2="58" class="rail"/>
<path d="M587,58 Q579,58 579,66" class="rail" fill="none"/>
<path d="M579,74 Q579,82 571,82" class="rail" fill="none"/>
<line x1="571" y1="82" x2="587" y2="82" class="rail"/>
<line x1="677" y1="82" x2="693" y2="82" class="rail"/>
<path d="M693,82 Q685,82 685,74" class="rail" fill="none"/>
<path d="M685,66 Q685,58 677,58" class="rail" fill="none"/>
<path d="M685,82 Q693,82 693,90" class="rail" fill="none"/>
<path d="M693,98 Q693,106 685,106" class="rail" fill="none"/>
<line x1="579" y1="106" x2="685" y2="106" class="rail"/>
<polygon points="638,103 632,106 638,109" class="arrow"/>
<path d="M579,106 Q571,106 571,98" class="rail" fill="none"/>
<path d="M571,90 Q571,82 579,82" class="rail" fill="none"/>
</g>
<line x1="693" y1="58" x2="713" y2="58" class="rail"/>
<polygon points="700,55 706,58 700,61" class="arrow"/>
<g id="1062399113">
<rect x="713" y="44" width="90" height="28" class="nonterminal-box"/>
<text x="758" y="62" text-anchor="middle" class="nonterminal-text">Expression</text>
</g>
<line x1="803" y1="58" x2="823" y2="58" class="rail"/>
<polygon points="810,55 816,58 810,61" class="arrow"/>
<g id="1603699026">
<g id="1739836056">
<rect x="839" y="68" width="139" height="28" class="nonterminal-box"/>
<text x="908" y="86" text-anchor="middle" class="nonterminal-text">MethodDeclaration</text>
</g>
<line x1="823" y1="58" x2="994" y2="58" class="rail"/>
<path d="M839,58 Q831,58 831,66" class="rail" fill="none"/>
<path d="M831,74 Q831,82 823,82" class="rail" fill="none"/>
<line x1="823" y1="82" x2="839" y2="82" class="rail"/>
<line x1="978" y1="82" x2="994" y2="82" class="rail"/>
<path d="M994,82 Q986,82 986,74" class="rail" fill="none"/>
<path d="M986,66 Q986,58 978,58" class="rail" fill="none"/>
<path d="M986,82 Q994,82 994,90" class="rail" fill="none"/>
<path d="M994,98 Q994,106 986,106" class="rail" fill="none"/>
<line x1="831" y1="106" x2="986" y2="106" class="rail"/>
<polygon points="914,103 908,106 914,109" class="arrow"/>
<path d="M831,106 Q823,106 823,98" class="rail" fill="none"/>
<path d="M823,90 Q823,82 831,82" class="rail" fill="none"/>
</g>
<line x1="994" y1="58" x2="1014" y2="58" class="rail"/>
<polygon points="1001,55 1007,58 1001,61" class="arrow"/>
<g id="927134769">
<rect x="1014" y="44" width="41" height="28" class="nonterminal-box"/>
<text x="1034" y="62" text-anchor="middle" class="nonterminal-text">EOF</text>
</g>
</g>
<line x1="1055" y1="58" x2="1063" y2="58" class="rail"/>
<circle cx="1069" cy="58" r="6" class="end-circle-outer"/>
<circle cx="1069" cy="58" r="3" class="end-circle-inner"/>
</svg>
