<svg xmlns="http://www.w3.org/2000/svg" xmlns:xlink="http://www.w3.org/1999/xlink" width="1006" height="112">
<style>
  svg { background: white; font-family: sans-serif; }
  .rail { stroke: #333; stroke-width: 2; fill: none; }
  .arrow { fill: #333; }
  .terminal-box { fill: #E8F4FD; stroke: #2196F3; stroke-width: 2; rx: 10; ry: 10; }
  .nonterminal-box { fill: #E8F5E9; stroke: #4CAF50; stroke-width: 2; }
  .nonterminal-box:hover { fill: #C8E6C9; stroke: #2E7D32; cursor: pointer; }
  .terminal-text { font-family: monospace; font-size: 14px; fill: #0D47A1; }
  .nonterminal-text { font-family: sans-serif; font-size: 14px; fill: #1B5E20; }
  a:hover .nonterminal-text { fill: #1B5E20; text-decoration: underline; }
  .start-circle { fill: #333; stroke: none; }
  .end-circle-outer { fill: #333; stroke: none; }
  .end-circle-inner { fill: white; stroke: none; }
</style>
<text x="20" y="38" font-size="13" fill="#555" font-family="sans-serif">ExternalNumberInvocation</text>
<circle cx="26" cy="79" r="6" class="start-circle"/>
<line x1="32" y1="79" x2="50" y2="79" class="rail"/>
<rect x="50" y="66" width="110" height="26" rx="10" ry="10" class="terminal-box"/>
<text x="105" y="84" text-anchor="middle" class="terminal-text">'external'</text>
<line x1="160" y1="79" x2="176" y2="79" class="rail"/>
<polygon points="165,76 171,79 165,82" class="arrow"/>
<rect x="176" y="66" width="119" height="26" rx="10" ry="10" class="terminal-box"/>
<text x="235" y="84" text-anchor="middle" class="terminal-text">'returning'</text>
<line x1="295" y1="79" x2="311" y2="79" class="rail"/>
<polygon points="300,76 306,79 300,82" class="arrow"/>
<rect x="311" y="66" width="56" height="26" rx="10" ry="10" class="terminal-box"/>
<text x="339" y="84" text-anchor="middle" class="terminal-text">'as'</text>
<line x1="367" y1="79" x2="383" y2="79" class="rail"/>
<polygon points="372,76 378,79 372,82" class="arrow"/>
<a xlink:href="#NumberReturnType" target="_top">
<rect x="383" y="66" width="164" height="26" class="nonterminal-box"/>
<text x="465" y="84" text-anchor="middle" class="nonterminal-text">NumberReturnType</text>
</a>
<line x1="547" y1="79" x2="563" y2="79" class="rail"/>
<polygon points="552,76 558,79 552,82" class="arrow"/>
<a xlink:href="#IDENTIFIER" target="_top">
<rect x="563" y="66" width="110" height="26" class="nonterminal-box"/>
<text x="618" y="84" text-anchor="middle" class="nonterminal-text">IDENTIFIER</text>
</a>
<line x1="673" y1="79" x2="689" y2="79" class="rail"/>
<polygon points="678,76 684,79 678,82" class="arrow"/>
<rect x="689" y="66" width="47" height="26" rx="10" ry="10" class="terminal-box"/>
<text x="712" y="84" text-anchor="middle" class="terminal-text">'('</text>
<line x1="736" y1="79" x2="752" y2="79" class="rail"/>
<polygon points="741,76 747,79 741,82" class="arrow"/>
<a xlink:href="#Arguments" target="_top">
<rect x="772" y="66" width="101" height="26" class="nonterminal-box"/>
<text x="822" y="84" text-anchor="middle" class="nonterminal-text">Arguments</text>
</a>
<line x1="752" y1="79" x2="772" y2="79" class="rail"/>
<line x1="873" y1="79" x2="893" y2="79" class="rail"/>
<path d="M 752,79 Q 762,79 762,69" class="rail"/>
<line x1="762" y1="69" x2="762" y2="64" class="rail"/>
<path d="M 762,64 Q 762,54 772,54" class="rail"/>
<line x1="772" y1="54" x2="873" y2="54" class="rail"/>
<path d="M 873,54 Q 883,54 883,64" class="rail"/>
<line x1="883" y1="64" x2="883" y2="69" class="rail"/>
<path d="M 883,69 Q 883,79 893,79" class="rail"/>
<line x1="893" y1="79" x2="909" y2="79" class="rail"/>
<polygon points="898,76 904,79 898,82" class="arrow"/>
<rect x="909" y="66" width="47" height="26" rx="10" ry="10" class="terminal-box"/>
<text x="932" y="84" text-anchor="middle" class="terminal-text">')'</text>
<line x1="956" y1="79" x2="970" y2="79" class="rail"/>
<circle cx="978" cy="79" r="8" class="end-circle-outer"/>
<circle cx="978" cy="79" r="5" class="end-circle-inner"/>
</svg>
