<svg xmlns="http://www.w3.org/2000/svg" width="279" height="130">
<style>
  .rail { stroke: #333; stroke-width: 2; fill: none; }
  .arrow { stroke: #333; stroke-width: 2; fill: none; }
  .terminal-box { fill: #e8f5e9; stroke: #2e7d32; stroke-width: 2; }
  .terminal-text { font-family: monospace; font-size: 12px; fill: #1b5e20; }
  .nonterminal-box { fill: #e3f2fd; stroke: #1565c0; stroke-width: 2; }
  .nonterminal-text { font-family: sans-serif; font-size: 12px; fill: #0d47a1; }
  .start-circle { fill: #333; stroke: none; }
  .end-circle-outer { fill: none; stroke: #333; stroke-width: 2; }
  .end-circle-inner { fill: #333; stroke: none; }
  rect, g { transition: all 0.3s; }
</style>
<text x="20" y="38" font-size="13" fill="#555" font-family="sans-serif">SliceExpression</text>
<circle cx="24" cy="58" r="4" class="start-circle"/>
<line x1="28" y1="58" x2="40" y2="58" class="rail"/>
<g id="165469024">
<g id="1464422449">
<rect x="56" y="44" width="167" height="28" class="nonterminal-box"/>
<text x="139" y="62" text-anchor="middle" class="nonterminal-text">SliceNestedExpression</text>
</g>
<line x1="56" y1="58" x2="56" y2="58" class="rail"/>
<line x1="223" y1="58" x2="223" y2="58" class="rail"/>
<line x1="40" y1="58" x2="56" y2="58" class="rail"/>
<line x1="223" y1="58" x2="239" y2="58" class="rail"/>
<g id="6547689">
<rect x="63" y="82" width="153" height="28" class="nonterminal-box"/>
<text x="139" y="100" text-anchor="middle" class="nonterminal-text">SliceBaseExpression</text>
</g>
<line x1="56" y1="96" x2="63" y2="96" class="rail"/>
<line x1="216" y1="96" x2="223" y2="96" class="rail"/>
<path d="M40,58 Q48,58 48,66" class="rail" fill="none"/>
<path d="M48,88 Q48,96 56,96" class="rail" fill="none"/>
<path d="M223,96 Q231,96 231,88" class="rail" fill="none"/>
<path d="M231,66 Q231,58 239,58" class="rail" fill="none"/>
</g>
<line x1="239" y1="58" x2="247" y2="58" class="rail"/>
<circle cx="253" cy="58" r="6" class="end-circle-outer"/>
<circle cx="253" cy="58" r="3" class="end-circle-inner"/>
</svg>
