<svg xmlns="http://www.w3.org/2000/svg" width="432" height="92">
<style>
  .rail { stroke: #333; stroke-width: 2; fill: none; }
  .arrow { stroke: #333; stroke-width: 2; fill: none; }
  .terminal-box { fill: #e8f5e9; stroke: #2e7d32; stroke-width: 2; }
  .terminal-text { font-family: monospace; font-size: 12px; fill: #1b5e20; }
  .nonterminal-box { fill: #e3f2fd; stroke: #1565c0; stroke-width: 2; }
  .nonterminal-text { font-family: sans-serif; font-size: 12px; fill: #0d47a1; }
  .start-circle { fill: #333; stroke: none; }
  .end-circle-outer { fill: none; stroke: #333; stroke-width: 2; }
  .end-circle-inner { fill: #333; stroke: none; }
  rect, g { transition: all 0.3s; }
</style>
<text x="20" y="38" font-size="13" fill="#555" font-family="sans-serif">StringCase</text>
<circle cx="24" cy="58" r="4" class="start-circle"/>
<line x1="28" y1="58" x2="40" y2="58" class="rail"/>
<g id="185399334">
<g id="490934263">
<rect x="40" y="44" width="139" height="28" class="nonterminal-box"/>
<text x="109" y="62" text-anchor="middle" class="nonterminal-text">BooleanExpression</text>
</g>
<line x1="179" y1="58" x2="199" y2="58" class="rail"/>
<polygon points="186,55 192,58 186,61" class="arrow"/>
<g id="1877443329">
<rect x="199" y="44" width="48" height="28" rx="10" ry="10" class="terminal-box"/>
<text x="223" y="62" text-anchor="middle" class="terminal-text">'-&gt;'</text>
</g>
<line x1="247" y1="58" x2="267" y2="58" class="rail"/>
<polygon points="254,55 260,58 254,61" class="arrow"/>
<g id="2005565987">
<rect x="267" y="44" width="125" height="28" class="nonterminal-box"/>
<text x="329" y="62" text-anchor="middle" class="nonterminal-text">StringCaseValue</text>
</g>
</g>
<line x1="392" y1="58" x2="400" y2="58" class="rail"/>
<circle cx="406" cy="58" r="6" class="end-circle-outer"/>
<circle cx="406" cy="58" r="3" class="end-circle-inner"/>
</svg>
