<svg xmlns="http://www.w3.org/2000/svg" xmlns:xlink="http://www.w3.org/1999/xlink" width="480" height="90">
<style>
  svg { background: white; font-family: sans-serif; }
  .rail { stroke: #333; stroke-width: 2; fill: none; }
  .arrow { fill: #333; }
  .terminal-box { fill: #E8F4FD; stroke: #2196F3; stroke-width: 2; rx: 10; ry: 10; }
  .nonterminal-box { fill: #E8F5E9; stroke: #4CAF50; stroke-width: 2; }
  .nonterminal-box:hover { fill: #C8E6C9; stroke: #2E7D32; cursor: pointer; }
  .terminal-text { font-family: monospace; font-size: 14px; fill: #0D47A1; }
  .nonterminal-text { font-family: sans-serif; font-size: 14px; fill: #1B5E20; }
  a:hover .nonterminal-text { fill: #1B5E20; text-decoration: underline; }
  .start-circle { fill: #333; stroke: none; }
  .end-circle-outer { fill: #333; stroke: none; }
  .end-circle-inner { fill: white; stroke: none; }
</style>
<text x="20" y="38" font-size="13" fill="#555" font-family="sans-serif">IsPresentFunction</text>
<circle cx="26" cy="57" r="6" class="start-circle"/>
<line x1="32" y1="57" x2="50" y2="57" class="rail"/>
<rect x="50" y="44" width="119" height="26" rx="10" ry="10" class="terminal-box"/>
<text x="109" y="62" text-anchor="middle" class="terminal-text">'isPresent'</text>
<line x1="169" y1="57" x2="185" y2="57" class="rail"/>
<polygon points="174,54 180,57 174,60" class="arrow"/>
<rect x="185" y="44" width="47" height="26" rx="10" ry="10" class="terminal-box"/>
<text x="208" y="62" text-anchor="middle" class="terminal-text">'('</text>
<line x1="232" y1="57" x2="248" y2="57" class="rail"/>
<polygon points="237,54 243,57 237,60" class="arrow"/>
<a xlink:href="#VariableRef" target="_top">
<rect x="248" y="44" width="119" height="26" class="nonterminal-box"/>
<text x="307" y="62" text-anchor="middle" class="nonterminal-text">VariableRef</text>
</a>
<line x1="367" y1="57" x2="383" y2="57" class="rail"/>
<polygon points="372,54 378,57 372,60" class="arrow"/>
<rect x="383" y="44" width="47" height="26" rx="10" ry="10" class="terminal-box"/>
<text x="406" y="62" text-anchor="middle" class="terminal-text">')'</text>
<line x1="430" y1="57" x2="444" y2="57" class="rail"/>
<circle cx="452" cy="57" r="8" class="end-circle-outer"/>
<circle cx="452" cy="57" r="5" class="end-circle-inner"/>
</svg>
