<svg xmlns="http://www.w3.org/2000/svg" width="916" height="110">
<style>
  .rail { stroke: #333; stroke-width: 2; fill: none; }
  .arrow { stroke: #333; stroke-width: 2; fill: none; }
  .terminal-box { fill: #e8f5e9; stroke: #2e7d32; stroke-width: 2; }
  .terminal-text { font-family: monospace; font-size: 12px; fill: #1b5e20; }
  .nonterminal-box { fill: #e3f2fd; stroke: #1565c0; stroke-width: 2; }
  .nonterminal-text { font-family: sans-serif; font-size: 12px; fill: #0d47a1; }
  .start-circle { fill: #333; stroke: none; }
  .end-circle-outer { fill: none; stroke: #333; stroke-width: 2; }
  .end-circle-inner { fill: #333; stroke: none; }
  rect, g { transition: all 0.3s; }
</style>
<text x="20" y="38" font-size="13" fill="#555" font-family="sans-serif">BooleanMethodDeclaration</text>
<circle cx="24" cy="76" r="4" class="start-circle"/>
<line x1="28" y1="76" x2="40" y2="76" class="rail"/>
<g id="193026417">
<g id="115633620">
<rect x="40" y="62" width="139" height="28" class="nonterminal-box"/>
<text x="109" y="80" text-anchor="middle" class="nonterminal-text">BooleanReturnType</text>
</g>
<line x1="179" y1="76" x2="199" y2="76" class="rail"/>
<polygon points="186,73 192,76 186,79" class="arrow"/>
<g id="1942126041">
<rect x="199" y="62" width="90" height="28" class="nonterminal-box"/>
<text x="244" y="80" text-anchor="middle" class="nonterminal-text">IDENTIFIER</text>
</g>
<line x1="289" y1="76" x2="309" y2="76" class="rail"/>
<polygon points="296,73 302,76 296,79" class="arrow"/>
<g id="136995774">
<rect x="309" y="62" width="41" height="28" rx="10" ry="10" class="terminal-box"/>
<text x="329" y="80" text-anchor="middle" class="terminal-text">'('</text>
</g>
<line x1="350" y1="76" x2="370" y2="76" class="rail"/>
<polygon points="357,73 363,76 357,79" class="arrow"/>
<g id="1412263450">
<g id="1895970595">
<rect x="386" y="62" width="132" height="28" class="nonterminal-box"/>
<text x="452" y="80" text-anchor="middle" class="nonterminal-text">MethodParameters</text>
</g>
<line x1="370" y1="76" x2="386" y2="76" class="rail"/>
<line x1="518" y1="76" x2="534" y2="76" class="rail"/>
<path d="M370,76 Q378,76 378,68" class="rail" fill="none"/>
<path d="M378,60 Q378,52 386,52" class="rail" fill="none"/>
<line x1="386" y1="52" x2="518" y2="52" class="rail"/>
<path d="M518,52 Q526,52 526,60" class="rail" fill="none"/>
<path d="M526,68 Q526,76 534,76" class="rail" fill="none"/>
</g>
<line x1="534" y1="76" x2="554" y2="76" class="rail"/>
<polygon points="541,73 547,76 541,79" class="arrow"/>
<g id="887225843">
<rect x="554" y="62" width="41" height="28" rx="10" ry="10" class="terminal-box"/>
<text x="574" y="80" text-anchor="middle" class="terminal-text">')'</text>
</g>
<line x1="595" y1="76" x2="615" y2="76" class="rail"/>
<polygon points="602,73 608,76 602,79" class="arrow"/>
<g id="1863143234">
<rect x="615" y="62" width="41" height="28" rx="10" ry="10" class="terminal-box"/>
<text x="635" y="80" text-anchor="middle" class="terminal-text">'{'</text>
</g>
<line x1="656" y1="76" x2="676" y2="76" class="rail"/>
<polygon points="663,73 669,76 663,79" class="arrow"/>
<g id="257349295">
<rect x="676" y="62" width="139" height="28" class="nonterminal-box"/>
<text x="745" y="80" text-anchor="middle" class="nonterminal-text">BooleanExpression</text>
</g>
<line x1="815" y1="76" x2="835" y2="76" class="rail"/>
<polygon points="822,73 828,76 822,79" class="arrow"/>
<g id="808723681">
<rect x="835" y="62" width="41" height="28" rx="10" ry="10" class="terminal-box"/>
<text x="855" y="80" text-anchor="middle" class="terminal-text">'}'</text>
</g>
</g>
<line x1="876" y1="76" x2="884" y2="76" class="rail"/>
<circle cx="890" cy="76" r="6" class="end-circle-outer"/>
<circle cx="890" cy="76" r="3" class="end-circle-inner"/>
</svg>
