<svg xmlns="http://www.w3.org/2000/svg" width="621" height="110">
<style>
  .rail { stroke: #333; stroke-width: 2; fill: none; }
  .arrow { stroke: #333; stroke-width: 2; fill: none; }
  .terminal-box { fill: #e8f5e9; stroke: #2e7d32; stroke-width: 2; }
  .terminal-text { font-family: monospace; font-size: 12px; fill: #1b5e20; }
  .nonterminal-box { fill: #e3f2fd; stroke: #1565c0; stroke-width: 2; }
  .nonterminal-text { font-family: sans-serif; font-size: 12px; fill: #0d47a1; }
  .start-circle { fill: #333; stroke: none; }
  .end-circle-outer { fill: none; stroke: #333; stroke-width: 2; }
  .end-circle-inner { fill: #333; stroke: none; }
  rect, g { transition: all 0.3s; }
</style>
<text x="20" y="38" font-size="13" fill="#555" font-family="sans-serif">MethodInvocation</text>
<circle cx="24" cy="76" r="4" class="start-circle"/>
<line x1="28" y1="76" x2="40" y2="76" class="rail"/>
<g id="15646925">
<g id="2033407984">
<rect x="40" y="62" width="174" height="28" class="nonterminal-box"/>
<text x="127" y="80" text-anchor="middle" class="nonterminal-text">MethodInvocationHeader</text>
</g>
<line x1="214" y1="76" x2="234" y2="76" class="rail"/>
<polygon points="221,73 227,76 221,79" class="arrow"/>
<g id="1447380769">
<rect x="234" y="62" width="90" height="28" class="nonterminal-box"/>
<text x="279" y="80" text-anchor="middle" class="nonterminal-text">IDENTIFIER</text>
</g>
<line x1="324" y1="76" x2="344" y2="76" class="rail"/>
<polygon points="331,73 337,76 331,79" class="arrow"/>
<g id="1346444043">
<rect x="344" y="62" width="41" height="28" rx="10" ry="10" class="terminal-box"/>
<text x="364" y="80" text-anchor="middle" class="terminal-text">'('</text>
</g>
<line x1="385" y1="76" x2="405" y2="76" class="rail"/>
<polygon points="392,73 398,76 392,79" class="arrow"/>
<g id="607069803">
<g id="1203791284">
<rect x="421" y="62" width="83" height="28" class="nonterminal-box"/>
<text x="462" y="80" text-anchor="middle" class="nonterminal-text">Arguments</text>
</g>
<line x1="405" y1="76" x2="421" y2="76" class="rail"/>
<line x1="504" y1="76" x2="520" y2="76" class="rail"/>
<path d="M405,76 Q413,76 413,68" class="rail" fill="none"/>
<path d="M413,60 Q413,52 421,52" class="rail" fill="none"/>
<line x1="421" y1="52" x2="504" y2="52" class="rail"/>
<path d="M504,52 Q512,52 512,60" class="rail" fill="none"/>
<path d="M512,68 Q512,76 520,76" class="rail" fill="none"/>
</g>
<line x1="520" y1="76" x2="540" y2="76" class="rail"/>
<polygon points="527,73 533,76 527,79" class="arrow"/>
<g id="1479475584">
<rect x="540" y="62" width="41" height="28" rx="10" ry="10" class="terminal-box"/>
<text x="560" y="80" text-anchor="middle" class="terminal-text">')'</text>
</g>
</g>
<line x1="581" y1="76" x2="589" y2="76" class="rail"/>
<circle cx="595" cy="76" r="6" class="end-circle-outer"/>
<circle cx="595" cy="76" r="3" class="end-circle-inner"/>
</svg>
