<svg xmlns="http://www.w3.org/2000/svg" width="955" height="92">
<style>
  .rail { stroke: #333; stroke-width: 2; fill: none; }
  .arrow { stroke: #333; stroke-width: 2; fill: none; }
  .terminal-box { fill: #e8f5e9; stroke: #2e7d32; stroke-width: 2; }
  .terminal-text { font-family: monospace; font-size: 12px; fill: #1b5e20; }
  .nonterminal-box { fill: #e3f2fd; stroke: #1565c0; stroke-width: 2; }
  .nonterminal-text { font-family: sans-serif; font-size: 12px; fill: #0d47a1; }
  .start-circle { fill: #333; stroke: none; }
  .end-circle-outer { fill: none; stroke: #333; stroke-width: 2; }
  .end-circle-inner { fill: #333; stroke: none; }
  rect, g { transition: all 0.3s; }
</style>
<text x="20" y="38" font-size="13" fill="#555" font-family="sans-serif">IfExpression</text>
<circle cx="24" cy="58" r="4" class="start-circle"/>
<line x1="28" y1="58" x2="40" y2="58" class="rail"/>
<g id="1919627750">
<g id="754771922">
<rect x="40" y="44" width="48" height="28" rx="10" ry="10" class="terminal-box"/>
<text x="64" y="62" text-anchor="middle" class="terminal-text">'if'</text>
</g>
<line x1="88" y1="58" x2="108" y2="58" class="rail"/>
<polygon points="95,55 101,58 95,61" class="arrow"/>
<g id="1147339392">
<rect x="108" y="44" width="41" height="28" rx="10" ry="10" class="terminal-box"/>
<text x="128" y="62" text-anchor="middle" class="terminal-text">'('</text>
</g>
<line x1="149" y1="58" x2="169" y2="58" class="rail"/>
<polygon points="156,55 162,58 156,61" class="arrow"/>
<g id="1403248915">
<rect x="169" y="44" width="139" height="28" class="nonterminal-box"/>
<text x="238" y="62" text-anchor="middle" class="nonterminal-text">BooleanExpression</text>
</g>
<line x1="308" y1="58" x2="328" y2="58" class="rail"/>
<polygon points="315,55 321,58 315,61" class="arrow"/>
<g id="1984946061">
<rect x="328" y="44" width="41" height="28" rx="10" ry="10" class="terminal-box"/>
<text x="348" y="62" text-anchor="middle" class="terminal-text">')'</text>
</g>
<line x1="369" y1="58" x2="389" y2="58" class="rail"/>
<polygon points="376,55 382,58 376,61" class="arrow"/>
<g id="1036412129">
<rect x="389" y="44" width="41" height="28" rx="10" ry="10" class="terminal-box"/>
<text x="409" y="62" text-anchor="middle" class="terminal-text">'{'</text>
</g>
<line x1="430" y1="58" x2="450" y2="58" class="rail"/>
<polygon points="437,55 443,58 437,61" class="arrow"/>
<g id="1634539227">
<rect x="450" y="44" width="90" height="28" class="nonterminal-box"/>
<text x="495" y="62" text-anchor="middle" class="nonterminal-text">Expression</text>
</g>
<line x1="540" y1="58" x2="560" y2="58" class="rail"/>
<polygon points="547,55 553,58 547,61" class="arrow"/>
<g id="764074140">
<rect x="560" y="44" width="41" height="28" rx="10" ry="10" class="terminal-box"/>
<text x="580" y="62" text-anchor="middle" class="terminal-text">'}'</text>
</g>
<line x1="601" y1="58" x2="621" y2="58" class="rail"/>
<polygon points="608,55 614,58 608,61" class="arrow"/>
<g id="624019735">
<rect x="621" y="44" width="62" height="28" rx="10" ry="10" class="terminal-box"/>
<text x="652" y="62" text-anchor="middle" class="terminal-text">'else'</text>
</g>
<line x1="683" y1="58" x2="703" y2="58" class="rail"/>
<polygon points="690,55 696,58 690,61" class="arrow"/>
<g id="735989820">
<rect x="703" y="44" width="41" height="28" rx="10" ry="10" class="terminal-box"/>
<text x="723" y="62" text-anchor="middle" class="terminal-text">'{'</text>
</g>
<line x1="744" y1="58" x2="764" y2="58" class="rail"/>
<polygon points="751,55 757,58 751,61" class="arrow"/>
<g id="579620946">
<rect x="764" y="44" width="90" height="28" class="nonterminal-box"/>
<text x="809" y="62" text-anchor="middle" class="nonterminal-text">Expression</text>
</g>
<line x1="854" y1="58" x2="874" y2="58" class="rail"/>
<polygon points="861,55 867,58 861,61" class="arrow"/>
<g id="1496916647">
<rect x="874" y="44" width="41" height="28" rx="10" ry="10" class="terminal-box"/>
<text x="894" y="62" text-anchor="middle" class="terminal-text">'}'</text>
</g>
</g>
<line x1="915" y1="58" x2="923" y2="58" class="rail"/>
<circle cx="929" cy="58" r="6" class="end-circle-outer"/>
<circle cx="929" cy="58" r="3" class="end-circle-inner"/>
</svg>
