<svg xmlns="http://www.w3.org/2000/svg" width="373" height="776">
<style>
  .rail { stroke: #333; stroke-width: 2; fill: none; }
  .arrow { stroke: #333; stroke-width: 2; fill: none; }
  .terminal-box { fill: #e8f5e9; stroke: #2e7d32; stroke-width: 2; }
  .terminal-text { font-family: monospace; font-size: 12px; fill: #1b5e20; }
  .nonterminal-box { fill: #e3f2fd; stroke: #1565c0; stroke-width: 2; }
  .nonterminal-text { font-family: sans-serif; font-size: 12px; fill: #0d47a1; }
  .start-circle { fill: #333; stroke: none; }
  .end-circle-outer { fill: none; stroke: #333; stroke-width: 2; }
  .end-circle-inner { fill: #333; stroke: none; }
  rect, g { transition: all 0.3s; }
</style>
<text x="20" y="38" font-size="13" fill="#555" font-family="sans-serif">BooleanFactor</text>
<circle cx="24" cy="58" r="4" class="start-circle"/>
<line x1="28" y1="58" x2="40" y2="58" class="rail"/>
<g id="1394761200">
<g id="1304346246">
<rect x="131" y="44" width="111" height="28" class="nonterminal-box"/>
<text x="186" y="62" text-anchor="middle" class="nonterminal-text">NotExpression</text>
</g>
<line x1="56" y1="58" x2="131" y2="58" class="rail"/>
<line x1="242" y1="58" x2="317" y2="58" class="rail"/>
<line x1="40" y1="58" x2="56" y2="58" class="rail"/>
<line x1="317" y1="58" x2="333" y2="58" class="rail"/>
<g id="11894206">
<rect x="99" y="82" width="174" height="28" class="nonterminal-box"/>
<text x="186" y="100" text-anchor="middle" class="nonterminal-text">BooleanMatchExpression</text>
</g>
<line x1="56" y1="96" x2="99" y2="96" class="rail"/>
<line x1="273" y1="96" x2="317" y2="96" class="rail"/>
<path d="M40,58 Q48,58 48,66" class="rail" fill="none"/>
<path d="M48,88 Q48,96 56,96" class="rail" fill="none"/>
<path d="M317,96 Q325,96 325,88" class="rail" fill="none"/>
<path d="M325,66 Q325,58 333,58" class="rail" fill="none"/>
<g id="1040134501">
<rect x="89" y="120" width="195" height="28" class="nonterminal-box"/>
<text x="186" y="138" text-anchor="middle" class="nonterminal-text">ExternalBooleanInvocation</text>
</g>
<line x1="56" y1="134" x2="89" y2="134" class="rail"/>
<line x1="284" y1="134" x2="317" y2="134" class="rail"/>
<path d="M40,58 Q48,58 48,66" class="rail" fill="none"/>
<path d="M48,126 Q48,134 56,134" class="rail" fill="none"/>
<path d="M317,134 Q325,134 325,126" class="rail" fill="none"/>
<path d="M325,66 Q325,58 333,58" class="rail" fill="none"/>
<g id="1120781998">
<rect x="110" y="158" width="153" height="28" class="nonterminal-box"/>
<text x="186" y="176" text-anchor="middle" class="nonterminal-text">StartsWithDotMethod</text>
</g>
<line x1="56" y1="172" x2="110" y2="172" class="rail"/>
<line x1="263" y1="172" x2="317" y2="172" class="rail"/>
<path d="M40,58 Q48,58 48,66" class="rail" fill="none"/>
<path d="M48,164 Q48,172 56,172" class="rail" fill="none"/>
<path d="M317,172 Q325,172 325,164" class="rail" fill="none"/>
<path d="M325,66 Q325,58 333,58" class="rail" fill="none"/>
<g id="2050951935">
<rect x="117" y="196" width="139" height="28" class="nonterminal-box"/>
<text x="186" y="214" text-anchor="middle" class="nonterminal-text">EndsWithDotMethod</text>
</g>
<line x1="56" y1="210" x2="117" y2="210" class="rail"/>
<line x1="256" y1="210" x2="317" y2="210" class="rail"/>
<path d="M40,58 Q48,58 48,66" class="rail" fill="none"/>
<path d="M48,202 Q48,210 56,210" class="rail" fill="none"/>
<path d="M317,210 Q325,210 325,202" class="rail" fill="none"/>
<path d="M325,66 Q325,58 333,58" class="rail" fill="none"/>
<g id="1363984523">
<rect x="117" y="234" width="139" height="28" class="nonterminal-box"/>
<text x="186" y="252" text-anchor="middle" class="nonterminal-text">ContainsDotMethod</text>
</g>
<line x1="56" y1="248" x2="117" y2="248" class="rail"/>
<line x1="256" y1="248" x2="317" y2="248" class="rail"/>
<path d="M40,58 Q48,58 48,66" class="rail" fill="none"/>
<path d="M48,240 Q48,248 56,248" class="rail" fill="none"/>
<path d="M317,248 Q325,248 325,240" class="rail" fill="none"/>
<path d="M325,66 Q325,58 333,58" class="rail" fill="none"/>
<g id="360495070">
<rect x="113" y="272" width="146" height="28" class="nonterminal-box"/>
<text x="186" y="290" text-anchor="middle" class="nonterminal-text">StartsWithFunction</text>
</g>
<line x1="56" y1="286" x2="113" y2="286" class="rail"/>
<line x1="259" y1="286" x2="317" y2="286" class="rail"/>
<path d="M40,58 Q48,58 48,66" class="rail" fill="none"/>
<path d="M48,278 Q48,286 56,286" class="rail" fill="none"/>
<path d="M317,286 Q325,286 325,278" class="rail" fill="none"/>
<path d="M325,66 Q325,58 333,58" class="rail" fill="none"/>
<g id="967371625">
<rect x="120" y="310" width="132" height="28" class="nonterminal-box"/>
<text x="186" y="328" text-anchor="middle" class="nonterminal-text">EndsWithFunction</text>
</g>
<line x1="56" y1="324" x2="120" y2="324" class="rail"/>
<line x1="252" y1="324" x2="317" y2="324" class="rail"/>
<path d="M40,58 Q48,58 48,66" class="rail" fill="none"/>
<path d="M48,316 Q48,324 56,324" class="rail" fill="none"/>
<path d="M317,324 Q325,324 325,316" class="rail" fill="none"/>
<path d="M325,66 Q325,58 333,58" class="rail" fill="none"/>
<g id="1002595921">
<rect x="120" y="348" width="132" height="28" class="nonterminal-box"/>
<text x="186" y="366" text-anchor="middle" class="nonterminal-text">ContainsFunction</text>
</g>
<line x1="56" y1="362" x2="120" y2="362" class="rail"/>
<line x1="252" y1="362" x2="317" y2="362" class="rail"/>
<path d="M40,58 Q48,58 48,66" class="rail" fill="none"/>
<path d="M48,354 Q48,362 56,362" class="rail" fill="none"/>
<path d="M317,362 Q325,362 325,354" class="rail" fill="none"/>
<path d="M325,66 Q325,58 333,58" class="rail" fill="none"/>
<g id="205365562">
<rect x="117" y="386" width="139" height="28" class="nonterminal-box"/>
<text x="186" y="404" text-anchor="middle" class="nonterminal-text">IsPresentFunction</text>
</g>
<line x1="56" y1="400" x2="117" y2="400" class="rail"/>
<line x1="256" y1="400" x2="317" y2="400" class="rail"/>
<path d="M40,58 Q48,58 48,66" class="rail" fill="none"/>
<path d="M48,392 Q48,400 56,400" class="rail" fill="none"/>
<path d="M317,400 Q325,400 325,392" class="rail" fill="none"/>
<path d="M325,66 Q325,58 333,58" class="rail" fill="none"/>
<g id="2089755940">
<rect x="110" y="424" width="153" height="28" class="nonterminal-box"/>
<text x="186" y="442" text-anchor="middle" class="nonterminal-text">InTimeRangeFunction</text>
</g>
<line x1="56" y1="438" x2="110" y2="438" class="rail"/>
<line x1="263" y1="438" x2="317" y2="438" class="rail"/>
<path d="M40,58 Q48,58 48,66" class="rail" fill="none"/>
<path d="M48,430 Q48,438 56,438" class="rail" fill="none"/>
<path d="M317,438 Q325,438 325,430" class="rail" fill="none"/>
<path d="M325,66 Q325,58 333,58" class="rail" fill="none"/>
<g id="42105471">
<rect x="99" y="462" width="174" height="28" class="nonterminal-box"/>
<text x="186" y="480" text-anchor="middle" class="nonterminal-text">InDayTimeRangeFunction</text>
</g>
<line x1="56" y1="476" x2="99" y2="476" class="rail"/>
<line x1="273" y1="476" x2="317" y2="476" class="rail"/>
<path d="M40,58 Q48,58 48,66" class="rail" fill="none"/>
<path d="M48,468 Q48,476 56,476" class="rail" fill="none"/>
<path d="M317,476 Q325,476 325,468" class="rail" fill="none"/>
<path d="M325,66 Q325,58 333,58" class="rail" fill="none"/>
<g id="718959760">
<rect x="85" y="500" width="202" height="28" class="nonterminal-box"/>
<text x="186" y="518" text-anchor="middle" class="nonterminal-text">StringComparisonExpression</text>
</g>
<line x1="56" y1="514" x2="85" y2="514" class="rail"/>
<line x1="287" y1="514" x2="317" y2="514" class="rail"/>
<path d="M40,58 Q48,58 48,66" class="rail" fill="none"/>
<path d="M48,506 Q48,514 56,514" class="rail" fill="none"/>
<path d="M317,514 Q325,514 325,506" class="rail" fill="none"/>
<path d="M325,66 Q325,58 333,58" class="rail" fill="none"/>
<g id="1259287680">
<rect x="106" y="538" width="160" height="28" class="nonterminal-box"/>
<text x="186" y="556" text-anchor="middle" class="nonterminal-text">ComparisonExpression</text>
</g>
<line x1="56" y1="552" x2="106" y2="552" class="rail"/>
<line x1="266" y1="552" x2="317" y2="552" class="rail"/>
<path d="M40,58 Q48,58 48,66" class="rail" fill="none"/>
<path d="M48,544 Q48,552 56,552" class="rail" fill="none"/>
<path d="M317,552 Q325,552 325,544" class="rail" fill="none"/>
<path d="M325,66 Q325,58 333,58" class="rail" fill="none"/>
<g id="1319931584">
<rect x="155" y="576" width="62" height="28" rx="10" ry="10" class="terminal-box"/>
<text x="186" y="594" text-anchor="middle" class="terminal-text">'true'</text>
</g>
<line x1="56" y1="590" x2="155" y2="590" class="rail"/>
<line x1="217" y1="590" x2="317" y2="590" class="rail"/>
<path d="M40,58 Q48,58 48,66" class="rail" fill="none"/>
<path d="M48,582 Q48,590 56,590" class="rail" fill="none"/>
<path d="M317,590 Q325,590 325,582" class="rail" fill="none"/>
<path d="M325,66 Q325,58 333,58" class="rail" fill="none"/>
<g id="1600931048">
<rect x="152" y="614" width="69" height="28" rx="10" ry="10" class="terminal-box"/>
<text x="186" y="632" text-anchor="middle" class="terminal-text">'false'</text>
</g>
<line x1="56" y1="628" x2="152" y2="628" class="rail"/>
<line x1="221" y1="628" x2="317" y2="628" class="rail"/>
<path d="M40,58 Q48,58 48,66" class="rail" fill="none"/>
<path d="M48,620 Q48,628 56,628" class="rail" fill="none"/>
<path d="M317,628 Q325,628 325,620" class="rail" fill="none"/>
<path d="M325,66 Q325,58 333,58" class="rail" fill="none"/>
<g id="652985697">
<rect x="138" y="652" width="97" height="28" class="nonterminal-box"/>
<text x="186" y="670" text-anchor="middle" class="nonterminal-text">VariableRef</text>
</g>
<line x1="56" y1="666" x2="138" y2="666" class="rail"/>
<line x1="235" y1="666" x2="317" y2="666" class="rail"/>
<path d="M40,58 Q48,58 48,66" class="rail" fill="none"/>
<path d="M48,658 Q48,666 56,666" class="rail" fill="none"/>
<path d="M317,666 Q325,666 325,658" class="rail" fill="none"/>
<path d="M325,66 Q325,58 333,58" class="rail" fill="none"/>
<g id="351424008">
<rect x="120" y="690" width="132" height="28" class="nonterminal-box"/>
<text x="186" y="708" text-anchor="middle" class="nonterminal-text">MethodInvocation</text>
</g>
<line x1="56" y1="704" x2="120" y2="704" class="rail"/>
<line x1="252" y1="704" x2="317" y2="704" class="rail"/>
<path d="M40,58 Q48,58 48,66" class="rail" fill="none"/>
<path d="M48,696 Q48,704 56,704" class="rail" fill="none"/>
<path d="M317,704 Q325,704 325,696" class="rail" fill="none"/>
<path d="M325,66 Q325,58 333,58" class="rail" fill="none"/>
<g id="2110316105">
<g id="1048713432">
<rect x="56" y="728" width="41" height="28" rx="10" ry="10" class="terminal-box"/>
<text x="76" y="746" text-anchor="middle" class="terminal-text">'('</text>
</g>
<line x1="97" y1="742" x2="117" y2="742" class="rail"/>
<polygon points="104,739 110,742 104,745" class="arrow"/>
<g id="66339044">
<rect x="117" y="728" width="139" height="28" class="nonterminal-box"/>
<text x="186" y="746" text-anchor="middle" class="nonterminal-text">BooleanExpression</text>
</g>
<line x1="256" y1="742" x2="276" y2="742" class="rail"/>
<polygon points="263,739 269,742 263,745" class="arrow"/>
<g id="2076990774">
<rect x="276" y="728" width="41" height="28" rx="10" ry="10" class="terminal-box"/>
<text x="296" y="746" text-anchor="middle" class="terminal-text">')'</text>
</g>
</g>
<line x1="56" y1="742" x2="56" y2="742" class="rail"/>
<line x1="317" y1="742" x2="317" y2="742" class="rail"/>
<path d="M40,58 Q48,58 48,66" class="rail" fill="none"/>
<path d="M48,734 Q48,742 56,742" class="rail" fill="none"/>
<path d="M317,742 Q325,742 325,734" class="rail" fill="none"/>
<path d="M325,66 Q325,58 333,58" class="rail" fill="none"/>
</g>
<line x1="333" y1="58" x2="341" y2="58" class="rail"/>
<circle cx="347" cy="58" r="6" class="end-circle-outer"/>
<circle cx="347" cy="58" r="3" class="end-circle-inner"/>
</svg>
