<svg xmlns="http://www.w3.org/2000/svg" xmlns:xlink="http://www.w3.org/1999/xlink" width="196" height="128">
<style>
  svg { background: white; font-family: sans-serif; }
  .rail { stroke: #333; stroke-width: 2; fill: none; }
  .arrow { fill: #333; }
  .terminal-box { fill: #E8F4FD; stroke: #2196F3; stroke-width: 2; rx: 10; ry: 10; }
  .nonterminal-box { fill: #E8F5E9; stroke: #4CAF50; stroke-width: 2; }
  .nonterminal-box:hover { fill: #C8E6C9; stroke: #2E7D32; cursor: pointer; }
  .terminal-text { font-family: monospace; font-size: 14px; fill: #0D47A1; }
  .nonterminal-text { font-family: sans-serif; font-size: 14px; fill: #1B5E20; }
  a:hover .nonterminal-text { fill: #1B5E20; text-decoration: underline; }
  .start-circle { fill: #333; stroke: none; }
  .end-circle-outer { fill: #333; stroke: none; }
  .end-circle-inner { fill: white; stroke: none; }
</style>
<text x="20" y="38" font-size="13" fill="#555" font-family="sans-serif">EqualityOp</text>
<circle cx="26" cy="57" r="6" class="start-circle"/>
<line x1="32" y1="57" x2="50" y2="57" class="rail"/>
<rect x="70" y="44" width="56" height="26" rx="10" ry="10" class="terminal-box"/>
<text x="98" y="62" text-anchor="middle" class="terminal-text">'=='</text>
<line x1="50" y1="57" x2="70" y2="57" class="rail"/>
<line x1="126" y1="57" x2="146" y2="57" class="rail"/>
<rect x="70" y="82" width="56" height="26" rx="10" ry="10" class="terminal-box"/>
<text x="98" y="100" text-anchor="middle" class="terminal-text">'!='</text>
<path d="M 50,57 Q 60,57 60,67" class="rail"/>
<line x1="60" y1="67" x2="60" y2="85" class="rail"/>
<path d="M 60,85 Q 60,95 70,95" class="rail"/>
<path d="M 126,95 Q 136,95 136,85" class="rail"/>
<line x1="136" y1="85" x2="136" y2="67" class="rail"/>
<path d="M 136,67 Q 136,57 146,57" class="rail"/>
<line x1="146" y1="57" x2="160" y2="57" class="rail"/>
<circle cx="168" cy="57" r="8" class="end-circle-outer"/>
<circle cx="168" cy="57" r="5" class="end-circle-inner"/>
</svg>
