<svg xmlns="http://www.w3.org/2000/svg" xmlns:xlink="http://www.w3.org/1999/xlink" width="493" height="112">
<style>
  svg { background: white; font-family: sans-serif; }
  .rail { stroke: #333; stroke-width: 2; fill: none; }
  .arrow { fill: #333; }
  .terminal-box { fill: #E8F4FD; stroke: #2196F3; stroke-width: 2; rx: 10; ry: 10; }
  .nonterminal-box { fill: #E8F5E9; stroke: #4CAF50; stroke-width: 2; }
  .nonterminal-box:hover { fill: #C8E6C9; stroke: #2E7D32; cursor: pointer; }
  .terminal-text { font-family: monospace; font-size: 14px; fill: #0D47A1; }
  .nonterminal-text { font-family: sans-serif; font-size: 14px; fill: #1B5E20; }
  a:hover .nonterminal-text { fill: #1B5E20; text-decoration: underline; }
  .start-circle { fill: #333; stroke: none; }
  .end-circle-outer { fill: #333; stroke: none; }
  .end-circle-inner { fill: white; stroke: none; }
</style>
<text x="20" y="38" font-size="13" fill="#555" font-family="sans-serif">NumberTerm</text>
<circle cx="26" cy="57" r="6" class="start-circle"/>
<line x1="32" y1="57" x2="50" y2="57" class="rail"/>
<a xlink:href="#NumberFactor" target="_top">
<rect x="50" y="44" width="128" height="26" class="nonterminal-box"/>
<text x="114" y="62" text-anchor="middle" class="nonterminal-text">NumberFactor</text>
</a>
<line x1="178" y1="57" x2="194" y2="57" class="rail"/>
<polygon points="183,54 189,57 183,60" class="arrow"/>
<a xlink:href="#MulOp" target="_top">
<rect x="214" y="44" width="65" height="26" class="nonterminal-box"/>
<text x="246" y="62" text-anchor="middle" class="nonterminal-text">MulOp</text>
</a>
<line x1="279" y1="57" x2="295" y2="57" class="rail"/>
<polygon points="284,54 290,57 284,60" class="arrow"/>
<a xlink:href="#NumberFactor" target="_top">
<rect x="295" y="44" width="128" height="26" class="nonterminal-box"/>
<text x="359" y="62" text-anchor="middle" class="nonterminal-text">NumberFactor</text>
</a>
<line x1="194" y1="57" x2="214" y2="57" class="rail"/>
<line x1="423" y1="57" x2="443" y2="57" class="rail"/>
<path d="M 204,57 Q 194,57 194,67" class="rail"/>
<line x1="194" y1="67" x2="194" y2="72" class="rail"/>
<path d="M 194,72 Q 194,82 204,82" class="rail"/>
<line x1="204" y1="82" x2="433" y2="82" class="rail"/>
<polygon points="321,79 315,82 321,85" class="arrow"/>
<path d="M 433,82 Q 443,82 443,72" class="rail"/>
<line x1="443" y1="72" x2="443" y2="67" class="rail"/>
<path d="M 443,67 Q 443,57 433,57" class="rail"/>
<line x1="443" y1="57" x2="457" y2="57" class="rail"/>
<circle cx="465" cy="57" r="8" class="end-circle-outer"/>
<circle cx="465" cy="57" r="5" class="end-circle-inner"/>
</svg>
