<svg xmlns="http://www.w3.org/2000/svg" xmlns:xlink="http://www.w3.org/1999/xlink" width="394" height="318">
<style>
  svg { background: white; font-family: sans-serif; }
  .rail { stroke: #333; stroke-width: 2; fill: none; }
  .arrow { fill: #333; }
  .terminal-box { fill: #E8F4FD; stroke: #2196F3; stroke-width: 2; rx: 10; ry: 10; }
  .nonterminal-box { fill: #E8F5E9; stroke: #4CAF50; stroke-width: 2; }
  .nonterminal-box:hover { fill: #C8E6C9; stroke: #2E7D32; cursor: pointer; }
  .terminal-text { font-family: monospace; font-size: 14px; fill: #0D47A1; }
  .nonterminal-text { font-family: sans-serif; font-size: 14px; fill: #1B5E20; }
  a:hover .nonterminal-text { fill: #1B5E20; text-decoration: underline; }
  .start-circle { fill: #333; stroke: none; }
  .end-circle-outer { fill: #333; stroke: none; }
  .end-circle-inner { fill: white; stroke: none; }
</style>
<text x="20" y="38" font-size="13" fill="#555" font-family="sans-serif">StringTerm</text>
<circle cx="26" cy="57" r="6" class="start-circle"/>
<line x1="32" y1="57" x2="50" y2="57" class="rail"/>
<a xlink:href="#StringMatchExpression" target="_top">
<rect x="92" y="44" width="209" height="26" class="nonterminal-box"/>
<text x="196" y="62" text-anchor="middle" class="nonterminal-text">StringMatchExpression</text>
</a>
<line x1="70" y1="57" x2="92" y2="57" class="rail"/>
<line x1="301" y1="57" x2="324" y2="57" class="rail"/>
<line x1="50" y1="57" x2="70" y2="57" class="rail"/>
<line x1="324" y1="57" x2="344" y2="57" class="rail"/>
<a xlink:href="#ExternalStringInvocation" target="_top">
<rect x="79" y="82" width="236" height="26" class="nonterminal-box"/>
<text x="197" y="100" text-anchor="middle" class="nonterminal-text">ExternalStringInvocation</text>
</a>
<line x1="70" y1="95" x2="79" y2="95" class="rail"/>
<line x1="315" y1="95" x2="324" y2="95" class="rail"/>
<path d="M 50,57 Q 60,57 60,67" class="rail"/>
<line x1="60" y1="67" x2="60" y2="85" class="rail"/>
<path d="M 60,85 Q 60,95 70,95" class="rail"/>
<path d="M 324,95 Q 334,95 334,85" class="rail"/>
<line x1="334" y1="85" x2="334" y2="67" class="rail"/>
<path d="M 334,67 Q 334,57 344,57" class="rail"/>
<a xlink:href="#SideEffectStringExpression" target="_top">
<rect x="70" y="120" width="254" height="26" class="nonterminal-box"/>
<text x="197" y="138" text-anchor="middle" class="nonterminal-text">SideEffectStringExpression</text>
</a>
<path d="M 50,57 Q 60,57 60,67" class="rail"/>
<line x1="60" y1="67" x2="60" y2="123" class="rail"/>
<path d="M 60,123 Q 60,133 70,133" class="rail"/>
<path d="M 324,133 Q 334,133 334,123" class="rail"/>
<line x1="334" y1="123" x2="334" y2="67" class="rail"/>
<path d="M 334,67 Q 334,57 344,57" class="rail"/>
<a xlink:href="#StringMethodCall" target="_top">
<rect x="115" y="158" width="164" height="26" class="nonterminal-box"/>
<text x="197" y="176" text-anchor="middle" class="nonterminal-text">StringMethodCall</text>
</a>
<line x1="70" y1="171" x2="115" y2="171" class="rail"/>
<line x1="279" y1="171" x2="324" y2="171" class="rail"/>
<path d="M 50,57 Q 60,57 60,67" class="rail"/>
<line x1="60" y1="67" x2="60" y2="161" class="rail"/>
<path d="M 60,161 Q 60,171 70,171" class="rail"/>
<path d="M 324,171 Q 334,171 334,161" class="rail"/>
<line x1="334" y1="161" x2="334" y2="67" class="rail"/>
<path d="M 334,67 Q 334,57 344,57" class="rail"/>
<a xlink:href="#STRING" target="_top">
<rect x="160" y="196" width="74" height="26" class="nonterminal-box"/>
<text x="197" y="214" text-anchor="middle" class="nonterminal-text">STRING</text>
</a>
<line x1="70" y1="209" x2="160" y2="209" class="rail"/>
<line x1="234" y1="209" x2="324" y2="209" class="rail"/>
<path d="M 50,57 Q 60,57 60,67" class="rail"/>
<line x1="60" y1="67" x2="60" y2="199" class="rail"/>
<path d="M 60,199 Q 60,209 70,209" class="rail"/>
<path d="M 324,209 Q 334,209 334,199" class="rail"/>
<line x1="334" y1="199" x2="334" y2="67" class="rail"/>
<path d="M 334,67 Q 334,57 344,57" class="rail"/>
<a xlink:href="#VariableRef" target="_top">
<rect x="137" y="234" width="119" height="26" class="nonterminal-box"/>
<text x="196" y="252" text-anchor="middle" class="nonterminal-text">VariableRef</text>
</a>
<line x1="70" y1="247" x2="137" y2="247" class="rail"/>
<line x1="256" y1="247" x2="324" y2="247" class="rail"/>
<path d="M 50,57 Q 60,57 60,67" class="rail"/>
<line x1="60" y1="67" x2="60" y2="237" class="rail"/>
<path d="M 60,237 Q 60,247 70,247" class="rail"/>
<path d="M 324,247 Q 334,247 334,237" class="rail"/>
<line x1="334" y1="237" x2="334" y2="67" class="rail"/>
<path d="M 334,67 Q 334,57 344,57" class="rail"/>
<a xlink:href="#MethodInvocation" target="_top">
<rect x="115" y="272" width="164" height="26" class="nonterminal-box"/>
<text x="197" y="290" text-anchor="middle" class="nonterminal-text">MethodInvocation</text>
</a>
<line x1="70" y1="285" x2="115" y2="285" class="rail"/>
<line x1="279" y1="285" x2="324" y2="285" class="rail"/>
<path d="M 50,57 Q 60,57 60,67" class="rail"/>
<line x1="60" y1="67" x2="60" y2="275" class="rail"/>
<path d="M 60,275 Q 60,285 70,285" class="rail"/>
<path d="M 324,285 Q 334,285 334,275" class="rail"/>
<line x1="334" y1="275" x2="334" y2="67" class="rail"/>
<path d="M 334,67 Q 334,57 344,57" class="rail"/>
<line x1="344" y1="57" x2="358" y2="57" class="rail"/>
<circle cx="366" cy="57" r="8" class="end-circle-outer"/>
<circle cx="366" cy="57" r="5" class="end-circle-inner"/>
</svg>
