<svg xmlns="http://www.w3.org/2000/svg" xmlns:xlink="http://www.w3.org/1999/xlink" width="786" height="90">
<style>
  svg { background: white; font-family: sans-serif; }
  .rail { stroke: #333; stroke-width: 2; fill: none; }
  .arrow { fill: #333; }
  .terminal-box { fill: #E8F4FD; stroke: #2196F3; stroke-width: 2; rx: 10; ry: 10; }
  .nonterminal-box { fill: #E8F5E9; stroke: #4CAF50; stroke-width: 2; }
  .nonterminal-box:hover { fill: #C8E6C9; stroke: #2E7D32; cursor: pointer; }
  .terminal-text { font-family: monospace; font-size: 14px; fill: #0D47A1; }
  .nonterminal-text { font-family: sans-serif; font-size: 14px; fill: #1B5E20; }
  a:hover .nonterminal-text { fill: #1B5E20; text-decoration: underline; }
  .start-circle { fill: #333; stroke: none; }
  .end-circle-outer { fill: #333; stroke: none; }
  .end-circle-inner { fill: white; stroke: none; }
</style>
<text x="20" y="38" font-size="13" fill="#555" font-family="sans-serif">InTimeRangeFunction</text>
<circle cx="26" cy="57" r="6" class="start-circle"/>
<line x1="32" y1="57" x2="50" y2="57" class="rail"/>
<rect x="50" y="44" width="137" height="26" rx="10" ry="10" class="terminal-box"/>
<text x="118" y="62" text-anchor="middle" class="terminal-text">'inTimeRange'</text>
<line x1="187" y1="57" x2="203" y2="57" class="rail"/>
<polygon points="192,54 198,57 192,60" class="arrow"/>
<rect x="203" y="44" width="47" height="26" rx="10" ry="10" class="terminal-box"/>
<text x="226" y="62" text-anchor="middle" class="terminal-text">'('</text>
<line x1="250" y1="57" x2="266" y2="57" class="rail"/>
<polygon points="255,54 261,57 255,60" class="arrow"/>
<a xlink:href="#NumberExpression" target="_top">
<rect x="266" y="44" width="164" height="26" class="nonterminal-box"/>
<text x="348" y="62" text-anchor="middle" class="nonterminal-text">NumberExpression</text>
</a>
<line x1="430" y1="57" x2="446" y2="57" class="rail"/>
<polygon points="435,54 441,57 435,60" class="arrow"/>
<rect x="446" y="44" width="47" height="26" rx="10" ry="10" class="terminal-box"/>
<text x="469" y="62" text-anchor="middle" class="terminal-text">','</text>
<line x1="493" y1="57" x2="509" y2="57" class="rail"/>
<polygon points="498,54 504,57 498,60" class="arrow"/>
<a xlink:href="#NumberExpression" target="_top">
<rect x="509" y="44" width="164" height="26" class="nonterminal-box"/>
<text x="591" y="62" text-anchor="middle" class="nonterminal-text">NumberExpression</text>
</a>
<line x1="673" y1="57" x2="689" y2="57" class="rail"/>
<polygon points="678,54 684,57 678,60" class="arrow"/>
<rect x="689" y="44" width="47" height="26" rx="10" ry="10" class="terminal-box"/>
<text x="712" y="62" text-anchor="middle" class="terminal-text">')'</text>
<line x1="736" y1="57" x2="750" y2="57" class="rail"/>
<circle cx="758" cy="57" r="8" class="end-circle-outer"/>
<circle cx="758" cy="57" r="5" class="end-circle-inner"/>
</svg>
