<svg xmlns="http://www.w3.org/2000/svg" width="188" height="130">
<style>
  .rail { stroke: #333; stroke-width: 2; fill: none; }
  .arrow { stroke: #333; stroke-width: 2; fill: none; }
  .terminal-box { fill: #e8f5e9; stroke: #2e7d32; stroke-width: 2; }
  .terminal-text { font-family: monospace; font-size: 12px; fill: #1b5e20; }
  .nonterminal-box { fill: #e3f2fd; stroke: #1565c0; stroke-width: 2; }
  .nonterminal-text { font-family: sans-serif; font-size: 12px; fill: #0d47a1; }
  .start-circle { fill: #333; stroke: none; }
  .end-circle-outer { fill: none; stroke: #333; stroke-width: 2; }
  .end-circle-inner { fill: #333; stroke: none; }
  rect, g { transition: all 0.3s; }
</style>
<text x="20" y="38" font-size="13" fill="#555" font-family="sans-serif">NumberReturnType</text>
<circle cx="24" cy="58" r="4" class="start-circle"/>
<line x1="28" y1="58" x2="40" y2="58" class="rail"/>
<g id="2085631201">
<g id="1505968527">
<rect x="56" y="44" width="76" height="28" rx="10" ry="10" class="terminal-box"/>
<text x="94" y="62" text-anchor="middle" class="terminal-text">'number'</text>
</g>
<line x1="56" y1="58" x2="56" y2="58" class="rail"/>
<line x1="132" y1="58" x2="132" y2="58" class="rail"/>
<line x1="40" y1="58" x2="56" y2="58" class="rail"/>
<line x1="132" y1="58" x2="148" y2="58" class="rail"/>
<g id="356262444">
<rect x="59" y="82" width="69" height="28" rx="10" ry="10" class="terminal-box"/>
<text x="93" y="100" text-anchor="middle" class="terminal-text">'float'</text>
</g>
<line x1="56" y1="96" x2="59" y2="96" class="rail"/>
<line x1="128" y1="96" x2="132" y2="96" class="rail"/>
<path d="M40,58 Q48,58 48,66" class="rail" fill="none"/>
<path d="M48,88 Q48,96 56,96" class="rail" fill="none"/>
<path d="M132,96 Q140,96 140,88" class="rail" fill="none"/>
<path d="M140,66 Q140,58 148,58" class="rail" fill="none"/>
</g>
<line x1="148" y1="58" x2="156" y2="58" class="rail"/>
<circle cx="162" cy="58" r="6" class="end-circle-outer"/>
<circle cx="162" cy="58" r="3" class="end-circle-inner"/>
</svg>
