<svg xmlns="http://www.w3.org/2000/svg" xmlns:xlink="http://www.w3.org/1999/xlink" width="655" height="112">
<style>
  svg { background: white; font-family: sans-serif; }
  .rail { stroke: #333; stroke-width: 2; fill: none; }
  .arrow { fill: #333; }
  .terminal-box { fill: #E8F4FD; stroke: #2196F3; stroke-width: 2; rx: 10; ry: 10; }
  .nonterminal-box { fill: #E8F5E9; stroke: #4CAF50; stroke-width: 2; }
  .nonterminal-box:hover { fill: #C8E6C9; stroke: #2E7D32; cursor: pointer; }
  .terminal-text { font-family: monospace; font-size: 14px; fill: #0D47A1; }
  .nonterminal-text { font-family: sans-serif; font-size: 14px; fill: #1B5E20; }
  a:hover .nonterminal-text { fill: #1B5E20; text-decoration: underline; }
  .start-circle { fill: #333; stroke: none; }
  .end-circle-outer { fill: #333; stroke: none; }
  .end-circle-inner { fill: white; stroke: none; }
</style>
<text x="20" y="38" font-size="13" fill="#555" font-family="sans-serif">Annotation</text>
<circle cx="26" cy="79" r="6" class="start-circle"/>
<line x1="32" y1="79" x2="50" y2="79" class="rail"/>
<rect x="50" y="66" width="47" height="26" rx="10" ry="10" class="terminal-box"/>
<text x="73" y="84" text-anchor="middle" class="terminal-text">'@'</text>
<line x1="97" y1="79" x2="113" y2="79" class="rail"/>
<polygon points="102,76 108,79 102,82" class="arrow"/>
<a xlink:href="#IDENTIFIER" target="_top">
<rect x="113" y="66" width="110" height="26" class="nonterminal-box"/>
<text x="168" y="84" text-anchor="middle" class="nonterminal-text">IDENTIFIER</text>
</a>
<line x1="223" y1="79" x2="239" y2="79" class="rail"/>
<polygon points="228,76 234,79 228,82" class="arrow"/>
<rect x="239" y="66" width="47" height="26" rx="10" ry="10" class="terminal-box"/>
<text x="262" y="84" text-anchor="middle" class="terminal-text">'('</text>
<line x1="286" y1="79" x2="302" y2="79" class="rail"/>
<polygon points="291,76 297,79 291,82" class="arrow"/>
<a xlink:href="#AnnotationParameters" target="_top">
<rect x="322" y="66" width="200" height="26" class="nonterminal-box"/>
<text x="422" y="84" text-anchor="middle" class="nonterminal-text">AnnotationParameters</text>
</a>
<line x1="302" y1="79" x2="322" y2="79" class="rail"/>
<line x1="522" y1="79" x2="542" y2="79" class="rail"/>
<path d="M 302,79 Q 312,79 312,69" class="rail"/>
<line x1="312" y1="69" x2="312" y2="64" class="rail"/>
<path d="M 312,64 Q 312,54 322,54" class="rail"/>
<line x1="322" y1="54" x2="522" y2="54" class="rail"/>
<path d="M 522,54 Q 532,54 532,64" class="rail"/>
<line x1="532" y1="64" x2="532" y2="69" class="rail"/>
<path d="M 532,69 Q 532,79 542,79" class="rail"/>
<line x1="542" y1="79" x2="558" y2="79" class="rail"/>
<polygon points="547,76 553,79 547,82" class="arrow"/>
<rect x="558" y="66" width="47" height="26" rx="10" ry="10" class="terminal-box"/>
<text x="581" y="84" text-anchor="middle" class="terminal-text">')'</text>
<line x1="605" y1="79" x2="619" y2="79" class="rail"/>
<circle cx="627" cy="79" r="8" class="end-circle-outer"/>
<circle cx="627" cy="79" r="5" class="end-circle-inner"/>
</svg>
