<svg xmlns="http://www.w3.org/2000/svg" width="558" height="110">
<style>
  .rail { stroke: #333; stroke-width: 2; fill: none; }
  .arrow { stroke: #333; stroke-width: 2; fill: none; }
  .terminal-box { fill: #e8f5e9; stroke: #2e7d32; stroke-width: 2; }
  .terminal-text { font-family: monospace; font-size: 12px; fill: #1b5e20; }
  .nonterminal-box { fill: #e3f2fd; stroke: #1565c0; stroke-width: 2; }
  .nonterminal-text { font-family: sans-serif; font-size: 12px; fill: #0d47a1; }
  .start-circle { fill: #333; stroke: none; }
  .end-circle-outer { fill: none; stroke: #333; stroke-width: 2; }
  .end-circle-inner { fill: #333; stroke: none; }
  rect, g { transition: all 0.3s; }
</style>
<text x="20" y="38" font-size="13" fill="#555" font-family="sans-serif">ObjectSetter</text>
<circle cx="24" cy="76" r="4" class="start-circle"/>
<line x1="28" y1="76" x2="40" y2="76" class="rail"/>
<g id="1659791576">
<g id="1828757853">
<rect x="40" y="62" width="55" height="28" rx="10" ry="10" class="terminal-box"/>
<text x="67" y="80" text-anchor="middle" class="terminal-text">'set'</text>
</g>
<line x1="95" y1="76" x2="115" y2="76" class="rail"/>
<polygon points="102,73 108,76 102,79" class="arrow"/>
<g id="2140832232">
<g id="1359484306">
<g id="1374677625">
<rect x="131" y="62" width="48" height="28" rx="10" ry="10" class="terminal-box"/>
<text x="155" y="80" text-anchor="middle" class="terminal-text">'if'</text>
</g>
<line x1="179" y1="76" x2="199" y2="76" class="rail"/>
<polygon points="186,73 192,76 186,79" class="arrow"/>
<g id="1345636186">
<rect x="199" y="62" width="55" height="28" rx="10" ry="10" class="terminal-box"/>
<text x="226" y="80" text-anchor="middle" class="terminal-text">'not'</text>
</g>
<line x1="254" y1="76" x2="274" y2="76" class="rail"/>
<polygon points="261,73 267,76 261,79" class="arrow"/>
<g id="963269035">
<rect x="274" y="62" width="76" height="28" rx="10" ry="10" class="terminal-box"/>
<text x="312" y="80" text-anchor="middle" class="terminal-text">'exists'</text>
</g>
</g>
<line x1="115" y1="76" x2="131" y2="76" class="rail"/>
<line x1="350" y1="76" x2="366" y2="76" class="rail"/>
<path d="M115,76 Q123,76 123,68" class="rail" fill="none"/>
<path d="M123,60 Q123,52 131,52" class="rail" fill="none"/>
<line x1="131" y1="52" x2="350" y2="52" class="rail"/>
<path d="M350,52 Q358,52 358,60" class="rail" fill="none"/>
<path d="M358,68 Q358,76 366,76" class="rail" fill="none"/>
</g>
<line x1="366" y1="76" x2="386" y2="76" class="rail"/>
<polygon points="373,73 379,76 373,79" class="arrow"/>
<g id="157456214">
<rect x="386" y="62" width="132" height="28" class="nonterminal-box"/>
<text x="452" y="80" text-anchor="middle" class="nonterminal-text">ObjectExpression</text>
</g>
</g>
<line x1="518" y1="76" x2="526" y2="76" class="rail"/>
<circle cx="532" cy="76" r="6" class="end-circle-outer"/>
<circle cx="532" cy="76" r="3" class="end-circle-inner"/>
</svg>
