<svg xmlns="http://www.w3.org/2000/svg" width="153" height="130">
<style>
  .rail { stroke: #333; stroke-width: 2; fill: none; }
  .arrow { stroke: #333; stroke-width: 2; fill: none; }
  .terminal-box { fill: #e8f5e9; stroke: #2e7d32; stroke-width: 2; }
  .terminal-text { font-family: monospace; font-size: 12px; fill: #1b5e20; }
  .nonterminal-box { fill: #e3f2fd; stroke: #1565c0; stroke-width: 2; }
  .nonterminal-text { font-family: sans-serif; font-size: 12px; fill: #0d47a1; }
  .start-circle { fill: #333; stroke: none; }
  .end-circle-outer { fill: none; stroke: #333; stroke-width: 2; }
  .end-circle-inner { fill: #333; stroke: none; }
  rect, g { transition: all 0.3s; }
</style>
<text x="20" y="38" font-size="13" fill="#555" font-family="sans-serif">MulOp</text>
<circle cx="24" cy="58" r="4" class="start-circle"/>
<line x1="28" y1="58" x2="40" y2="58" class="rail"/>
<g id="122492291">
<g id="153191880">
<rect x="56" y="44" width="41" height="28" rx="10" ry="10" class="terminal-box"/>
<text x="76" y="62" text-anchor="middle" class="terminal-text">'*'</text>
</g>
<line x1="56" y1="58" x2="56" y2="58" class="rail"/>
<line x1="97" y1="58" x2="97" y2="58" class="rail"/>
<line x1="40" y1="58" x2="56" y2="58" class="rail"/>
<line x1="97" y1="58" x2="113" y2="58" class="rail"/>
<g id="58031976">
<rect x="56" y="82" width="41" height="28" rx="10" ry="10" class="terminal-box"/>
<text x="76" y="100" text-anchor="middle" class="terminal-text">'/'</text>
</g>
<line x1="56" y1="96" x2="56" y2="96" class="rail"/>
<line x1="97" y1="96" x2="97" y2="96" class="rail"/>
<path d="M40,58 Q48,58 48,66" class="rail" fill="none"/>
<path d="M48,88 Q48,96 56,96" class="rail" fill="none"/>
<path d="M97,96 Q105,96 105,88" class="rail" fill="none"/>
<path d="M105,66 Q105,58 113,58" class="rail" fill="none"/>
</g>
<line x1="113" y1="58" x2="121" y2="58" class="rail"/>
<circle cx="127" cy="58" r="6" class="end-circle-outer"/>
<circle cx="127" cy="58" r="3" class="end-circle-inner"/>
</svg>
