<svg xmlns="http://www.w3.org/2000/svg" xmlns:xlink="http://www.w3.org/1999/xlink" width="1065" height="90">
<style>
  svg { background: white; font-family: sans-serif; }
  .rail { stroke: #333; stroke-width: 2; fill: none; }
  .arrow { fill: #333; }
  .terminal-box { fill: #E8F4FD; stroke: #2196F3; stroke-width: 2; rx: 10; ry: 10; }
  .nonterminal-box { fill: #E8F5E9; stroke: #4CAF50; stroke-width: 2; }
  .nonterminal-box:hover { fill: #C8E6C9; stroke: #2E7D32; cursor: pointer; }
  .terminal-text { font-family: monospace; font-size: 14px; fill: #0D47A1; }
  .nonterminal-text { font-family: sans-serif; font-size: 14px; fill: #1B5E20; }
  a:hover .nonterminal-text { fill: #1B5E20; text-decoration: underline; }
  .start-circle { fill: #333; stroke: none; }
  .end-circle-outer { fill: #333; stroke: none; }
  .end-circle-inner { fill: white; stroke: none; }
</style>
<text x="20" y="38" font-size="13" fill="#555" font-family="sans-serif">IfExpression</text>
<circle cx="26" cy="57" r="6" class="start-circle"/>
<line x1="32" y1="57" x2="50" y2="57" class="rail"/>
<rect x="50" y="44" width="56" height="26" rx="10" ry="10" class="terminal-box"/>
<text x="78" y="62" text-anchor="middle" class="terminal-text">'if'</text>
<line x1="106" y1="57" x2="122" y2="57" class="rail"/>
<polygon points="111,54 117,57 111,60" class="arrow"/>
<rect x="122" y="44" width="47" height="26" rx="10" ry="10" class="terminal-box"/>
<text x="145" y="62" text-anchor="middle" class="terminal-text">'('</text>
<line x1="169" y1="57" x2="185" y2="57" class="rail"/>
<polygon points="174,54 180,57 174,60" class="arrow"/>
<a xlink:href="#BooleanExpression" target="_top">
<rect x="185" y="44" width="173" height="26" class="nonterminal-box"/>
<text x="271" y="62" text-anchor="middle" class="nonterminal-text">BooleanExpression</text>
</a>
<line x1="358" y1="57" x2="374" y2="57" class="rail"/>
<polygon points="363,54 369,57 363,60" class="arrow"/>
<rect x="374" y="44" width="47" height="26" rx="10" ry="10" class="terminal-box"/>
<text x="397" y="62" text-anchor="middle" class="terminal-text">')'</text>
<line x1="421" y1="57" x2="437" y2="57" class="rail"/>
<polygon points="426,54 432,57 426,60" class="arrow"/>
<rect x="437" y="44" width="47" height="26" rx="10" ry="10" class="terminal-box"/>
<text x="460" y="62" text-anchor="middle" class="terminal-text">'{'</text>
<line x1="484" y1="57" x2="500" y2="57" class="rail"/>
<polygon points="489,54 495,57 489,60" class="arrow"/>
<a xlink:href="#Expression" target="_top">
<rect x="500" y="44" width="110" height="26" class="nonterminal-box"/>
<text x="555" y="62" text-anchor="middle" class="nonterminal-text">Expression</text>
</a>
<line x1="610" y1="57" x2="626" y2="57" class="rail"/>
<polygon points="615,54 621,57 615,60" class="arrow"/>
<rect x="626" y="44" width="47" height="26" rx="10" ry="10" class="terminal-box"/>
<text x="649" y="62" text-anchor="middle" class="terminal-text">'}'</text>
<line x1="673" y1="57" x2="689" y2="57" class="rail"/>
<polygon points="678,54 684,57 678,60" class="arrow"/>
<rect x="689" y="44" width="74" height="26" rx="10" ry="10" class="terminal-box"/>
<text x="726" y="62" text-anchor="middle" class="terminal-text">'else'</text>
<line x1="763" y1="57" x2="779" y2="57" class="rail"/>
<polygon points="768,54 774,57 768,60" class="arrow"/>
<rect x="779" y="44" width="47" height="26" rx="10" ry="10" class="terminal-box"/>
<text x="802" y="62" text-anchor="middle" class="terminal-text">'{'</text>
<line x1="826" y1="57" x2="842" y2="57" class="rail"/>
<polygon points="831,54 837,57 831,60" class="arrow"/>
<a xlink:href="#Expression" target="_top">
<rect x="842" y="44" width="110" height="26" class="nonterminal-box"/>
<text x="897" y="62" text-anchor="middle" class="nonterminal-text">Expression</text>
</a>
<line x1="952" y1="57" x2="968" y2="57" class="rail"/>
<polygon points="957,54 963,57 957,60" class="arrow"/>
<rect x="968" y="44" width="47" height="26" rx="10" ry="10" class="terminal-box"/>
<text x="991" y="62" text-anchor="middle" class="terminal-text">'}'</text>
<line x1="1015" y1="57" x2="1029" y2="57" class="rail"/>
<circle cx="1037" cy="57" r="8" class="end-circle-outer"/>
<circle cx="1037" cy="57" r="5" class="end-circle-inner"/>
</svg>
