<svg xmlns="http://www.w3.org/2000/svg" width="334" height="92">
<style>
  .rail { stroke: #333; stroke-width: 2; fill: none; }
  .arrow { stroke: #333; stroke-width: 2; fill: none; }
  .terminal-box { fill: #e8f5e9; stroke: #2e7d32; stroke-width: 2; }
  .terminal-text { font-family: monospace; font-size: 12px; fill: #1b5e20; }
  .nonterminal-box { fill: #e3f2fd; stroke: #1565c0; stroke-width: 2; }
  .nonterminal-text { font-family: sans-serif; font-size: 12px; fill: #0d47a1; }
  .start-circle { fill: #333; stroke: none; }
  .end-circle-outer { fill: none; stroke: #333; stroke-width: 2; }
  .end-circle-inner { fill: #333; stroke: none; }
  rect, g { transition: all 0.3s; }
</style>
<text x="20" y="38" font-size="13" fill="#555" font-family="sans-serif">ParenthesizedStringExpression</text>
<circle cx="24" cy="58" r="4" class="start-circle"/>
<line x1="28" y1="58" x2="40" y2="58" class="rail"/>
<g id="1438846034">
<g id="185500100">
<rect x="40" y="44" width="41" height="28" rx="10" ry="10" class="terminal-box"/>
<text x="60" y="62" text-anchor="middle" class="terminal-text">'('</text>
</g>
<line x1="81" y1="58" x2="101" y2="58" class="rail"/>
<polygon points="88,55 94,58 88,61" class="arrow"/>
<g id="1211998570">
<rect x="101" y="44" width="132" height="28" class="nonterminal-box"/>
<text x="167" y="62" text-anchor="middle" class="nonterminal-text">StringExpression</text>
</g>
<line x1="233" y1="58" x2="253" y2="58" class="rail"/>
<polygon points="240,55 246,58 240,61" class="arrow"/>
<g id="31595484">
<rect x="253" y="44" width="41" height="28" rx="10" ry="10" class="terminal-box"/>
<text x="273" y="62" text-anchor="middle" class="terminal-text">')'</text>
</g>
</g>
<line x1="294" y1="58" x2="302" y2="58" class="rail"/>
<circle cx="308" cy="58" r="6" class="end-circle-outer"/>
<circle cx="308" cy="58" r="3" class="end-circle-inner"/>
</svg>
