<svg xmlns="http://www.w3.org/2000/svg" xmlns:xlink="http://www.w3.org/1999/xlink" width="1217" height="112">
<style>
  svg { background: white; font-family: sans-serif; }
  .rail { stroke: #333; stroke-width: 2; fill: none; }
  .arrow { fill: #333; }
  .terminal-box { fill: #E8F4FD; stroke: #2196F3; stroke-width: 2; rx: 10; ry: 10; }
  .nonterminal-box { fill: #E8F5E9; stroke: #4CAF50; stroke-width: 2; }
  .nonterminal-box:hover { fill: #C8E6C9; stroke: #2E7D32; cursor: pointer; }
  .terminal-text { font-family: monospace; font-size: 14px; fill: #0D47A1; }
  .nonterminal-text { font-family: sans-serif; font-size: 14px; fill: #1B5E20; }
  a:hover .nonterminal-text { fill: #1B5E20; text-decoration: underline; }
  .start-circle { fill: #333; stroke: none; }
  .end-circle-outer { fill: #333; stroke: none; }
  .end-circle-inner { fill: white; stroke: none; }
</style>
<text x="20" y="38" font-size="13" fill="#555" font-family="sans-serif">SideEffectBooleanExpression</text>
<circle cx="26" cy="79" r="6" class="start-circle"/>
<line x1="32" y1="79" x2="50" y2="79" class="rail"/>
<a xlink:href="#SideEffectHeader" target="_top">
<rect x="50" y="66" width="164" height="26" class="nonterminal-box"/>
<text x="132" y="84" text-anchor="middle" class="nonterminal-text">SideEffectHeader</text>
</a>
<line x1="214" y1="79" x2="230" y2="79" class="rail"/>
<polygon points="219,76 225,79 219,82" class="arrow"/>
<rect x="250" y="66" width="119" height="26" rx="10" ry="10" class="terminal-box"/>
<text x="309" y="84" text-anchor="middle" class="terminal-text">'returning'</text>
<line x1="369" y1="79" x2="385" y2="79" class="rail"/>
<polygon points="374,76 380,79 374,82" class="arrow"/>
<rect x="385" y="66" width="56" height="26" rx="10" ry="10" class="terminal-box"/>
<text x="413" y="84" text-anchor="middle" class="terminal-text">'as'</text>
<line x1="441" y1="79" x2="457" y2="79" class="rail"/>
<polygon points="446,76 452,79 446,82" class="arrow"/>
<a xlink:href="#BooleanReturnType" target="_top">
<rect x="457" y="66" width="173" height="26" class="nonterminal-box"/>
<text x="543" y="84" text-anchor="middle" class="nonterminal-text">BooleanReturnType</text>
</a>
<line x1="230" y1="79" x2="250" y2="79" class="rail"/>
<line x1="630" y1="79" x2="650" y2="79" class="rail"/>
<path d="M 230,79 Q 240,79 240,69" class="rail"/>
<line x1="240" y1="69" x2="240" y2="64" class="rail"/>
<path d="M 240,64 Q 240,54 250,54" class="rail"/>
<line x1="250" y1="54" x2="630" y2="54" class="rail"/>
<path d="M 630,54 Q 640,54 640,64" class="rail"/>
<line x1="640" y1="64" x2="640" y2="69" class="rail"/>
<path d="M 640,69 Q 640,79 650,79" class="rail"/>
<line x1="650" y1="79" x2="666" y2="79" class="rail"/>
<polygon points="655,76 661,79 655,82" class="arrow"/>
<rect x="666" y="66" width="47" height="26" rx="10" ry="10" class="terminal-box"/>
<text x="689" y="84" text-anchor="middle" class="terminal-text">':'</text>
<line x1="713" y1="79" x2="729" y2="79" class="rail"/>
<polygon points="718,76 724,79 718,82" class="arrow"/>
<a xlink:href="#QualifiedMethod" target="_top">
<rect x="729" y="66" width="155" height="26" class="nonterminal-box"/>
<text x="806" y="84" text-anchor="middle" class="nonterminal-text">QualifiedMethod</text>
</a>
<line x1="884" y1="79" x2="900" y2="79" class="rail"/>
<polygon points="889,76 895,79 889,82" class="arrow"/>
<rect x="900" y="66" width="47" height="26" rx="10" ry="10" class="terminal-box"/>
<text x="923" y="84" text-anchor="middle" class="terminal-text">'('</text>
<line x1="947" y1="79" x2="963" y2="79" class="rail"/>
<polygon points="952,76 958,79 952,82" class="arrow"/>
<a xlink:href="#Arguments" target="_top">
<rect x="983" y="66" width="101" height="26" class="nonterminal-box"/>
<text x="1033" y="84" text-anchor="middle" class="nonterminal-text">Arguments</text>
</a>
<line x1="963" y1="79" x2="983" y2="79" class="rail"/>
<line x1="1084" y1="79" x2="1104" y2="79" class="rail"/>
<path d="M 963,79 Q 973,79 973,69" class="rail"/>
<line x1="973" y1="69" x2="973" y2="64" class="rail"/>
<path d="M 973,64 Q 973,54 983,54" class="rail"/>
<line x1="983" y1="54" x2="1084" y2="54" class="rail"/>
<path d="M 1084,54 Q 1094,54 1094,64" class="rail"/>
<line x1="1094" y1="64" x2="1094" y2="69" class="rail"/>
<path d="M 1094,69 Q 1094,79 1104,79" class="rail"/>
<line x1="1104" y1="79" x2="1120" y2="79" class="rail"/>
<polygon points="1109,76 1115,79 1109,82" class="arrow"/>
<rect x="1120" y="66" width="47" height="26" rx="10" ry="10" class="terminal-box"/>
<text x="1143" y="84" text-anchor="middle" class="terminal-text">')'</text>
<line x1="1167" y1="79" x2="1181" y2="79" class="rail"/>
<circle cx="1189" cy="79" r="8" class="end-circle-outer"/>
<circle cx="1189" cy="79" r="5" class="end-circle-inner"/>
</svg>
