<svg xmlns="http://www.w3.org/2000/svg" width="973" height="110">
<style>
  .rail { stroke: #333; stroke-width: 2; fill: none; }
  .arrow { stroke: #333; stroke-width: 2; fill: none; }
  .terminal-box { fill: #e8f5e9; stroke: #2e7d32; stroke-width: 2; }
  .terminal-text { font-family: monospace; font-size: 12px; fill: #1b5e20; }
  .nonterminal-box { fill: #e3f2fd; stroke: #1565c0; stroke-width: 2; }
  .nonterminal-text { font-family: sans-serif; font-size: 12px; fill: #0d47a1; }
  .start-circle { fill: #333; stroke: none; }
  .end-circle-outer { fill: none; stroke: #333; stroke-width: 2; }
  .end-circle-inner { fill: #333; stroke: none; }
  rect, g { transition: all 0.3s; }
</style>
<text x="20" y="38" font-size="13" fill="#555" font-family="sans-serif">SliceExpression</text>
<circle cx="24" cy="76" r="4" class="start-circle"/>
<line x1="28" y1="76" x2="40" y2="76" class="rail"/>
<g id="2043299592">
<g id="1012347617">
<rect x="40" y="62" width="97" height="28" class="nonterminal-box"/>
<text x="88" y="80" text-anchor="middle" class="nonterminal-text">VariableRef</text>
</g>
<line x1="137" y1="76" x2="157" y2="76" class="rail"/>
<polygon points="144,73 150,76 144,79" class="arrow"/>
<g id="1157343059">
<rect x="157" y="62" width="41" height="28" rx="10" ry="10" class="terminal-box"/>
<text x="177" y="80" text-anchor="middle" class="terminal-text">'['</text>
</g>
<line x1="198" y1="76" x2="218" y2="76" class="rail"/>
<polygon points="205,73 211,76 205,79" class="arrow"/>
<g id="437809852">
<g id="733310682">
<rect x="234" y="62" width="132" height="28" class="nonterminal-box"/>
<text x="300" y="80" text-anchor="middle" class="nonterminal-text">NumberExpression</text>
</g>
<line x1="218" y1="76" x2="234" y2="76" class="rail"/>
<line x1="366" y1="76" x2="382" y2="76" class="rail"/>
<path d="M218,76 Q226,76 226,68" class="rail" fill="none"/>
<path d="M226,60 Q226,52 234,52" class="rail" fill="none"/>
<line x1="234" y1="52" x2="366" y2="52" class="rail"/>
<path d="M366,52 Q374,52 374,60" class="rail" fill="none"/>
<path d="M374,68 Q374,76 382,76" class="rail" fill="none"/>
</g>
<line x1="382" y1="76" x2="402" y2="76" class="rail"/>
<polygon points="389,73 395,76 389,79" class="arrow"/>
<g id="534616868">
<rect x="402" y="62" width="41" height="28" rx="10" ry="10" class="terminal-box"/>
<text x="422" y="80" text-anchor="middle" class="terminal-text">':'</text>
</g>
<line x1="443" y1="76" x2="463" y2="76" class="rail"/>
<polygon points="450,73 456,76 450,79" class="arrow"/>
<g id="105253639">
<g id="109409971">
<rect x="479" y="62" width="132" height="28" class="nonterminal-box"/>
<text x="545" y="80" text-anchor="middle" class="nonterminal-text">NumberExpression</text>
</g>
<line x1="463" y1="76" x2="479" y2="76" class="rail"/>
<line x1="611" y1="76" x2="627" y2="76" class="rail"/>
<path d="M463,76 Q471,76 471,68" class="rail" fill="none"/>
<path d="M471,60 Q471,52 479,52" class="rail" fill="none"/>
<line x1="479" y1="52" x2="611" y2="52" class="rail"/>
<path d="M611,52 Q619,52 619,60" class="rail" fill="none"/>
<path d="M619,68 Q619,76 627,76" class="rail" fill="none"/>
</g>
<line x1="627" y1="76" x2="647" y2="76" class="rail"/>
<polygon points="634,73 640,76 634,79" class="arrow"/>
<g id="936400454">
<g id="33061709">
<g id="1603409121">
<rect x="663" y="62" width="41" height="28" rx="10" ry="10" class="terminal-box"/>
<text x="683" y="80" text-anchor="middle" class="terminal-text">':'</text>
</g>
<line x1="704" y1="76" x2="724" y2="76" class="rail"/>
<polygon points="711,73 717,76 711,79" class="arrow"/>
<g id="753246348">
<rect x="724" y="62" width="132" height="28" class="nonterminal-box"/>
<text x="790" y="80" text-anchor="middle" class="nonterminal-text">NumberExpression</text>
</g>
</g>
<line x1="647" y1="76" x2="663" y2="76" class="rail"/>
<line x1="856" y1="76" x2="872" y2="76" class="rail"/>
<path d="M647,76 Q655,76 655,68" class="rail" fill="none"/>
<path d="M655,60 Q655,52 663,52" class="rail" fill="none"/>
<line x1="663" y1="52" x2="856" y2="52" class="rail"/>
<path d="M856,52 Q864,52 864,60" class="rail" fill="none"/>
<path d="M864,68 Q864,76 872,76" class="rail" fill="none"/>
</g>
<line x1="872" y1="76" x2="892" y2="76" class="rail"/>
<polygon points="879,73 885,76 879,79" class="arrow"/>
<g id="2016049473">
<rect x="892" y="62" width="41" height="28" rx="10" ry="10" class="terminal-box"/>
<text x="912" y="80" text-anchor="middle" class="terminal-text">']'</text>
</g>
</g>
<line x1="933" y1="76" x2="941" y2="76" class="rail"/>
<circle cx="947" cy="76" r="6" class="end-circle-outer"/>
<circle cx="947" cy="76" r="3" class="end-circle-inner"/>
</svg>
