<svg xmlns="http://www.w3.org/2000/svg" width="654" height="120">
<style>
  .rail { stroke: #333; stroke-width: 2; fill: none; }
  .arrow { stroke: #333; stroke-width: 2; fill: none; }
  .terminal-box { fill: #e8f5e9; stroke: #2e7d32; stroke-width: 2; }
  .terminal-text { font-family: monospace; font-size: 12px; fill: #1b5e20; }
  .nonterminal-box { fill: #e3f2fd; stroke: #1565c0; stroke-width: 2; }
  .nonterminal-text { font-family: sans-serif; font-size: 12px; fill: #0d47a1; }
  .start-circle { fill: #333; stroke: none; }
  .end-circle-outer { fill: none; stroke: #333; stroke-width: 2; }
  .end-circle-inner { fill: #333; stroke: none; }
  rect, g { transition: all 0.3s; }
</style>
<text x="20" y="38" font-size="13" fill="#555" font-family="sans-serif">MinFunction</text>
<circle cx="24" cy="58" r="4" class="start-circle"/>
<line x1="28" y1="58" x2="40" y2="58" class="rail"/>
<g id="2010294963">
<g id="1908762794">
<rect x="40" y="44" width="55" height="28" rx="10" ry="10" class="terminal-box"/>
<text x="67" y="62" text-anchor="middle" class="terminal-text">'min'</text>
</g>
<line x1="95" y1="58" x2="115" y2="58" class="rail"/>
<polygon points="102,55 108,58 102,61" class="arrow"/>
<g id="2005228540">
<rect x="115" y="44" width="41" height="28" rx="10" ry="10" class="terminal-box"/>
<text x="135" y="62" text-anchor="middle" class="terminal-text">'('</text>
</g>
<line x1="156" y1="58" x2="176" y2="58" class="rail"/>
<polygon points="163,55 169,58 163,61" class="arrow"/>
<g id="387231687">
<rect x="176" y="44" width="132" height="28" class="nonterminal-box"/>
<text x="242" y="62" text-anchor="middle" class="nonterminal-text">NumberExpression</text>
</g>
<line x1="308" y1="58" x2="328" y2="58" class="rail"/>
<polygon points="315,55 321,58 315,61" class="arrow"/>
<g id="2022593150">
<g id="1247196772">
<g id="1301017850">
<rect x="344" y="68" width="41" height="28" rx="10" ry="10" class="terminal-box"/>
<text x="364" y="86" text-anchor="middle" class="terminal-text">','</text>
</g>
<line x1="385" y1="82" x2="405" y2="82" class="rail"/>
<polygon points="392,79 398,82 392,85" class="arrow"/>
<g id="399594969">
<rect x="405" y="68" width="132" height="28" class="nonterminal-box"/>
<text x="471" y="86" text-anchor="middle" class="nonterminal-text">NumberExpression</text>
</g>
</g>
<line x1="328" y1="58" x2="553" y2="58" class="rail"/>
<path d="M344,58 Q336,58 336,66" class="rail" fill="none"/>
<path d="M336,74 Q336,82 328,82" class="rail" fill="none"/>
<line x1="328" y1="82" x2="344" y2="82" class="rail"/>
<line x1="537" y1="82" x2="553" y2="82" class="rail"/>
<path d="M553,82 Q545,82 545,74" class="rail" fill="none"/>
<path d="M545,66 Q545,58 537,58" class="rail" fill="none"/>
<path d="M545,82 Q553,82 553,90" class="rail" fill="none"/>
<path d="M553,98 Q553,106 545,106" class="rail" fill="none"/>
<line x1="336" y1="106" x2="545" y2="106" class="rail"/>
<polygon points="446,103 440,106 446,109" class="arrow"/>
<path d="M336,106 Q328,106 328,98" class="rail" fill="none"/>
<path d="M328,90 Q328,82 336,82" class="rail" fill="none"/>
</g>
<line x1="553" y1="58" x2="573" y2="58" class="rail"/>
<polygon points="560,55 566,58 560,61" class="arrow"/>
<g id="1781552561">
<rect x="573" y="44" width="41" height="28" rx="10" ry="10" class="terminal-box"/>
<text x="593" y="62" text-anchor="middle" class="terminal-text">')'</text>
</g>
</g>
<line x1="614" y1="58" x2="622" y2="58" class="rail"/>
<circle cx="628" cy="58" r="6" class="end-circle-outer"/>
<circle cx="628" cy="58" r="3" class="end-circle-inner"/>
</svg>
