<svg xmlns="http://www.w3.org/2000/svg" xmlns:xlink="http://www.w3.org/1999/xlink" width="732" height="90">
<style>
  svg { background: white; font-family: sans-serif; }
  .rail { stroke: #333; stroke-width: 2; fill: none; }
  .arrow { fill: #333; }
  .terminal-box { fill: #E8F4FD; stroke: #2196F3; stroke-width: 2; rx: 10; ry: 10; }
  .nonterminal-box { fill: #E8F5E9; stroke: #4CAF50; stroke-width: 2; }
  .nonterminal-box:hover { fill: #C8E6C9; stroke: #2E7D32; cursor: pointer; }
  .terminal-text { font-family: monospace; font-size: 14px; fill: #0D47A1; }
  .nonterminal-text { font-family: sans-serif; font-size: 14px; fill: #1B5E20; }
  a:hover .nonterminal-text { fill: #1B5E20; text-decoration: underline; }
  .start-circle { fill: #333; stroke: none; }
  .end-circle-outer { fill: #333; stroke: none; }
  .end-circle-inner { fill: white; stroke: none; }
</style>
<text x="20" y="38" font-size="13" fill="#555" font-family="sans-serif">ToNumFunction</text>
<circle cx="26" cy="57" r="6" class="start-circle"/>
<line x1="32" y1="57" x2="50" y2="57" class="rail"/>
<rect x="50" y="44" width="83" height="26" rx="10" ry="10" class="terminal-box"/>
<text x="91" y="62" text-anchor="middle" class="terminal-text">'toNum'</text>
<line x1="133" y1="57" x2="149" y2="57" class="rail"/>
<polygon points="138,54 144,57 138,60" class="arrow"/>
<rect x="149" y="44" width="47" height="26" rx="10" ry="10" class="terminal-box"/>
<text x="172" y="62" text-anchor="middle" class="terminal-text">'('</text>
<line x1="196" y1="57" x2="212" y2="57" class="rail"/>
<polygon points="201,54 207,57 201,60" class="arrow"/>
<a xlink:href="#StringExpression" target="_top">
<rect x="212" y="44" width="164" height="26" class="nonterminal-box"/>
<text x="294" y="62" text-anchor="middle" class="nonterminal-text">StringExpression</text>
</a>
<line x1="376" y1="57" x2="392" y2="57" class="rail"/>
<polygon points="381,54 387,57 381,60" class="arrow"/>
<rect x="392" y="44" width="47" height="26" rx="10" ry="10" class="terminal-box"/>
<text x="415" y="62" text-anchor="middle" class="terminal-text">','</text>
<line x1="439" y1="57" x2="455" y2="57" class="rail"/>
<polygon points="444,54 450,57 444,60" class="arrow"/>
<a xlink:href="#NumberExpression" target="_top">
<rect x="455" y="44" width="164" height="26" class="nonterminal-box"/>
<text x="537" y="62" text-anchor="middle" class="nonterminal-text">NumberExpression</text>
</a>
<line x1="619" y1="57" x2="635" y2="57" class="rail"/>
<polygon points="624,54 630,57 624,60" class="arrow"/>
<rect x="635" y="44" width="47" height="26" rx="10" ry="10" class="terminal-box"/>
<text x="658" y="62" text-anchor="middle" class="terminal-text">')'</text>
<line x1="682" y1="57" x2="696" y2="57" class="rail"/>
<circle cx="704" cy="57" r="8" class="end-circle-outer"/>
<circle cx="704" cy="57" r="5" class="end-circle-inner"/>
</svg>
