<svg xmlns="http://www.w3.org/2000/svg" xmlns:xlink="http://www.w3.org/1999/xlink" width="916" height="112">
<style>
  svg { background: white; font-family: sans-serif; }
  .rail { stroke: #333; stroke-width: 2; fill: none; }
  .arrow { fill: #333; }
  .terminal-box { fill: #E8F4FD; stroke: #2196F3; stroke-width: 2; rx: 10; ry: 10; }
  .nonterminal-box { fill: #E8F5E9; stroke: #4CAF50; stroke-width: 2; }
  .nonterminal-box:hover { fill: #C8E6C9; stroke: #2E7D32; cursor: pointer; }
  .terminal-text { font-family: monospace; font-size: 14px; fill: #0D47A1; }
  .nonterminal-text { font-family: sans-serif; font-size: 14px; fill: #1B5E20; }
  a:hover .nonterminal-text { fill: #1B5E20; text-decoration: underline; }
  .start-circle { fill: #333; stroke: none; }
  .end-circle-outer { fill: #333; stroke: none; }
  .end-circle-inner { fill: white; stroke: none; }
</style>
<text x="20" y="38" font-size="13" fill="#555" font-family="sans-serif">NumberMatchExpression</text>
<circle cx="26" cy="57" r="6" class="start-circle"/>
<line x1="32" y1="57" x2="50" y2="57" class="rail"/>
<rect x="50" y="44" width="83" height="26" rx="10" ry="10" class="terminal-box"/>
<text x="91" y="62" text-anchor="middle" class="terminal-text">'match'</text>
<line x1="133" y1="57" x2="149" y2="57" class="rail"/>
<polygon points="138,54 144,57 138,60" class="arrow"/>
<rect x="149" y="44" width="47" height="26" rx="10" ry="10" class="terminal-box"/>
<text x="172" y="62" text-anchor="middle" class="terminal-text">'{'</text>
<line x1="196" y1="57" x2="212" y2="57" class="rail"/>
<polygon points="201,54 207,57 201,60" class="arrow"/>
<a xlink:href="#NumberCase" target="_top">
<rect x="212" y="44" width="110" height="26" class="nonterminal-box"/>
<text x="267" y="62" text-anchor="middle" class="nonterminal-text">NumberCase</text>
</a>
<line x1="322" y1="57" x2="338" y2="57" class="rail"/>
<polygon points="327,54 333,57 327,60" class="arrow"/>
<rect x="358" y="44" width="47" height="26" rx="10" ry="10" class="terminal-box"/>
<text x="381" y="62" text-anchor="middle" class="terminal-text">','</text>
<line x1="405" y1="57" x2="421" y2="57" class="rail"/>
<polygon points="410,54 416,57 410,60" class="arrow"/>
<a xlink:href="#NumberCase" target="_top">
<rect x="421" y="44" width="110" height="26" class="nonterminal-box"/>
<text x="476" y="62" text-anchor="middle" class="nonterminal-text">NumberCase</text>
</a>
<line x1="338" y1="57" x2="358" y2="57" class="rail"/>
<line x1="531" y1="57" x2="551" y2="57" class="rail"/>
<path d="M 348,57 Q 338,57 338,67" class="rail"/>
<line x1="338" y1="67" x2="338" y2="72" class="rail"/>
<path d="M 338,72 Q 338,82 348,82" class="rail"/>
<line x1="348" y1="82" x2="541" y2="82" class="rail"/>
<polygon points="447,79 441,82 447,85" class="arrow"/>
<path d="M 541,82 Q 551,82 551,72" class="rail"/>
<line x1="551" y1="72" x2="551" y2="67" class="rail"/>
<path d="M 551,67 Q 551,57 541,57" class="rail"/>
<line x1="551" y1="57" x2="567" y2="57" class="rail"/>
<polygon points="556,54 562,57 556,60" class="arrow"/>
<rect x="567" y="44" width="47" height="26" rx="10" ry="10" class="terminal-box"/>
<text x="590" y="62" text-anchor="middle" class="terminal-text">','</text>
<line x1="614" y1="57" x2="630" y2="57" class="rail"/>
<polygon points="619,54 625,57 619,60" class="arrow"/>
<a xlink:href="#NumberDefaultCase" target="_top">
<rect x="630" y="44" width="173" height="26" class="nonterminal-box"/>
<text x="716" y="62" text-anchor="middle" class="nonterminal-text">NumberDefaultCase</text>
</a>
<line x1="803" y1="57" x2="819" y2="57" class="rail"/>
<polygon points="808,54 814,57 808,60" class="arrow"/>
<rect x="819" y="44" width="47" height="26" rx="10" ry="10" class="terminal-box"/>
<text x="842" y="62" text-anchor="middle" class="terminal-text">'}'</text>
<line x1="866" y1="57" x2="880" y2="57" class="rail"/>
<circle cx="888" cy="57" r="8" class="end-circle-outer"/>
<circle cx="888" cy="57" r="5" class="end-circle-inner"/>
</svg>
