<svg xmlns="http://www.w3.org/2000/svg" width="804" height="120">
<style>
  .rail { stroke: #333; stroke-width: 2; fill: none; }
  .arrow { stroke: #333; stroke-width: 2; fill: none; }
  .terminal-box { fill: #e8f5e9; stroke: #2e7d32; stroke-width: 2; }
  .terminal-text { font-family: monospace; font-size: 12px; fill: #1b5e20; }
  .nonterminal-box { fill: #e3f2fd; stroke: #1565c0; stroke-width: 2; }
  .nonterminal-text { font-family: sans-serif; font-size: 12px; fill: #0d47a1; }
  .start-circle { fill: #333; stroke: none; }
  .end-circle-outer { fill: none; stroke: #333; stroke-width: 2; }
  .end-circle-inner { fill: #333; stroke: none; }
  rect, g { transition: all 0.3s; }
</style>
<text x="20" y="38" font-size="13" fill="#555" font-family="sans-serif">StringMatchExpression</text>
<circle cx="24" cy="58" r="4" class="start-circle"/>
<line x1="28" y1="58" x2="40" y2="58" class="rail"/>
<g id="1490520621">
<g id="472805060">
<rect x="40" y="44" width="69" height="28" rx="10" ry="10" class="terminal-box"/>
<text x="74" y="62" text-anchor="middle" class="terminal-text">'match'</text>
</g>
<line x1="109" y1="58" x2="129" y2="58" class="rail"/>
<polygon points="116,55 122,58 116,61" class="arrow"/>
<g id="210011256">
<rect x="129" y="44" width="41" height="28" rx="10" ry="10" class="terminal-box"/>
<text x="149" y="62" text-anchor="middle" class="terminal-text">'{'</text>
</g>
<line x1="170" y1="58" x2="190" y2="58" class="rail"/>
<polygon points="177,55 183,58 177,61" class="arrow"/>
<g id="1400464124">
<rect x="190" y="44" width="90" height="28" class="nonterminal-box"/>
<text x="235" y="62" text-anchor="middle" class="nonterminal-text">StringCase</text>
</g>
<line x1="280" y1="58" x2="300" y2="58" class="rail"/>
<polygon points="287,55 293,58 287,61" class="arrow"/>
<g id="553525579">
<g id="948492836">
<g id="2142253668">
<rect x="316" y="68" width="41" height="28" rx="10" ry="10" class="terminal-box"/>
<text x="336" y="86" text-anchor="middle" class="terminal-text">','</text>
</g>
<line x1="357" y1="82" x2="377" y2="82" class="rail"/>
<polygon points="364,79 370,82 364,85" class="arrow"/>
<g id="268905240">
<rect x="377" y="68" width="90" height="28" class="nonterminal-box"/>
<text x="422" y="86" text-anchor="middle" class="nonterminal-text">StringCase</text>
</g>
</g>
<line x1="300" y1="58" x2="483" y2="58" class="rail"/>
<path d="M316,58 Q308,58 308,66" class="rail" fill="none"/>
<path d="M308,74 Q308,82 300,82" class="rail" fill="none"/>
<line x1="300" y1="82" x2="316" y2="82" class="rail"/>
<line x1="467" y1="82" x2="483" y2="82" class="rail"/>
<path d="M483,82 Q475,82 475,74" class="rail" fill="none"/>
<path d="M475,66 Q475,58 467,58" class="rail" fill="none"/>
<path d="M475,82 Q483,82 483,90" class="rail" fill="none"/>
<path d="M483,98 Q483,106 475,106" class="rail" fill="none"/>
<line x1="308" y1="106" x2="475" y2="106" class="rail"/>
<polygon points="397,103 391,106 397,109" class="arrow"/>
<path d="M308,106 Q300,106 300,98" class="rail" fill="none"/>
<path d="M300,90 Q300,82 308,82" class="rail" fill="none"/>
</g>
<line x1="483" y1="58" x2="503" y2="58" class="rail"/>
<polygon points="490,55 496,58 490,61" class="arrow"/>
<g id="1579353122">
<rect x="503" y="44" width="41" height="28" rx="10" ry="10" class="terminal-box"/>
<text x="523" y="62" text-anchor="middle" class="terminal-text">','</text>
</g>
<line x1="544" y1="58" x2="564" y2="58" class="rail"/>
<polygon points="551,55 557,58 551,61" class="arrow"/>
<g id="2010495765">
<rect x="564" y="44" width="139" height="28" class="nonterminal-box"/>
<text x="633" y="62" text-anchor="middle" class="nonterminal-text">StringDefaultCase</text>
</g>
<line x1="703" y1="58" x2="723" y2="58" class="rail"/>
<polygon points="710,55 716,58 710,61" class="arrow"/>
<g id="158467633">
<rect x="723" y="44" width="41" height="28" rx="10" ry="10" class="terminal-box"/>
<text x="743" y="62" text-anchor="middle" class="terminal-text">'}'</text>
</g>
</g>
<line x1="764" y1="58" x2="772" y2="58" class="rail"/>
<circle cx="778" cy="58" r="6" class="end-circle-outer"/>
<circle cx="778" cy="58" r="3" class="end-circle-inner"/>
</svg>
