<svg xmlns="http://www.w3.org/2000/svg" xmlns:xlink="http://www.w3.org/1999/xlink" width="1041" height="128">
<style>
  svg { background: white; font-family: sans-serif; }
  .rail { stroke: #333; stroke-width: 2; fill: none; }
  .arrow { fill: #333; }
  .terminal-box { fill: #E8F4FD; stroke: #2196F3; stroke-width: 2; rx: 10; ry: 10; }
  .nonterminal-box { fill: #E8F5E9; stroke: #4CAF50; stroke-width: 2; }
  .nonterminal-box:hover { fill: #C8E6C9; stroke: #2E7D32; cursor: pointer; }
  .terminal-text { font-family: monospace; font-size: 14px; fill: #0D47A1; }
  .nonterminal-text { font-family: sans-serif; font-size: 14px; fill: #1B5E20; }
  a:hover .nonterminal-text { fill: #1B5E20; text-decoration: underline; }
  .start-circle { fill: #333; stroke: none; }
  .end-circle-outer { fill: #333; stroke: none; }
  .end-circle-inner { fill: white; stroke: none; }
</style>
<text x="20" y="38" font-size="13" fill="#555" font-family="sans-serif">BooleanVariableDeclaration</text>
<circle cx="26" cy="79" r="6" class="start-circle"/>
<line x1="32" y1="79" x2="50" y2="79" class="rail"/>
<rect x="92" y="66" width="65" height="26" rx="10" ry="10" class="terminal-box"/>
<text x="124" y="84" text-anchor="middle" class="terminal-text">'var'</text>
<line x1="70" y1="79" x2="92" y2="79" class="rail"/>
<line x1="157" y1="79" x2="180" y2="79" class="rail"/>
<line x1="50" y1="79" x2="70" y2="79" class="rail"/>
<line x1="180" y1="79" x2="200" y2="79" class="rail"/>
<rect x="70" y="104" width="110" height="26" rx="10" ry="10" class="terminal-box"/>
<text x="125" y="122" text-anchor="middle" class="terminal-text">'variable'</text>
<path d="M 50,79 Q 60,79 60,89" class="rail"/>
<line x1="60" y1="89" x2="60" y2="107" class="rail"/>
<path d="M 60,107 Q 60,117 70,117" class="rail"/>
<path d="M 180,117 Q 190,117 190,107" class="rail"/>
<line x1="190" y1="107" x2="190" y2="89" class="rail"/>
<path d="M 190,89 Q 190,79 200,79" class="rail"/>
<line x1="200" y1="79" x2="216" y2="79" class="rail"/>
<polygon points="205,76 211,79 205,82" class="arrow"/>
<rect x="216" y="66" width="47" height="26" rx="10" ry="10" class="terminal-box"/>
<text x="239" y="84" text-anchor="middle" class="terminal-text">'$'</text>
<line x1="263" y1="79" x2="279" y2="79" class="rail"/>
<polygon points="268,76 274,79 268,82" class="arrow"/>
<a xlink:href="#IDENTIFIER" target="_top">
<rect x="279" y="66" width="110" height="26" class="nonterminal-box"/>
<text x="334" y="84" text-anchor="middle" class="nonterminal-text">IDENTIFIER</text>
</a>
<line x1="389" y1="79" x2="405" y2="79" class="rail"/>
<polygon points="394,76 400,79 394,82" class="arrow"/>
<a xlink:href="#BooleanTypeHint" target="_top">
<rect x="425" y="66" width="155" height="26" class="nonterminal-box"/>
<text x="502" y="84" text-anchor="middle" class="nonterminal-text">BooleanTypeHint</text>
</a>
<line x1="405" y1="79" x2="425" y2="79" class="rail"/>
<line x1="580" y1="79" x2="600" y2="79" class="rail"/>
<path d="M 405,79 Q 415,79 415,69" class="rail"/>
<line x1="415" y1="69" x2="415" y2="64" class="rail"/>
<path d="M 415,64 Q 415,54 425,54" class="rail"/>
<line x1="425" y1="54" x2="580" y2="54" class="rail"/>
<path d="M 580,54 Q 590,54 590,64" class="rail"/>
<line x1="590" y1="64" x2="590" y2="69" class="rail"/>
<path d="M 590,69 Q 590,79 600,79" class="rail"/>
<line x1="600" y1="79" x2="616" y2="79" class="rail"/>
<polygon points="605,76 611,79 605,82" class="arrow"/>
<a xlink:href="#BooleanSetter" target="_top">
<rect x="636" y="66" width="137" height="26" class="nonterminal-box"/>
<text x="704" y="84" text-anchor="middle" class="nonterminal-text">BooleanSetter</text>
</a>
<line x1="616" y1="79" x2="636" y2="79" class="rail"/>
<line x1="773" y1="79" x2="793" y2="79" class="rail"/>
<path d="M 616,79 Q 626,79 626,69" class="rail"/>
<line x1="626" y1="69" x2="626" y2="64" class="rail"/>
<path d="M 626,64 Q 626,54 636,54" class="rail"/>
<line x1="636" y1="54" x2="773" y2="54" class="rail"/>
<path d="M 773,54 Q 783,54 783,64" class="rail"/>
<line x1="783" y1="64" x2="783" y2="69" class="rail"/>
<path d="M 783,69 Q 783,79 793,79" class="rail"/>
<line x1="793" y1="79" x2="809" y2="79" class="rail"/>
<polygon points="798,76 804,79 798,82" class="arrow"/>
<a xlink:href="#Description" target="_top">
<rect x="809" y="66" width="119" height="26" class="nonterminal-box"/>
<text x="868" y="84" text-anchor="middle" class="nonterminal-text">Description</text>
</a>
<line x1="928" y1="79" x2="944" y2="79" class="rail"/>
<polygon points="933,76 939,79 933,82" class="arrow"/>
<rect x="944" y="66" width="47" height="26" rx="10" ry="10" class="terminal-box"/>
<text x="967" y="84" text-anchor="middle" class="terminal-text">';'</text>
<line x1="991" y1="79" x2="1005" y2="79" class="rail"/>
<circle cx="1013" cy="79" r="8" class="end-circle-outer"/>
<circle cx="1013" cy="79" r="5" class="end-circle-inner"/>
</svg>
