<svg xmlns="http://www.w3.org/2000/svg" width="657" height="92">
<style>
  .rail { stroke: #333; stroke-width: 2; fill: none; }
  .arrow { stroke: #333; stroke-width: 2; fill: none; }
  .terminal-box { fill: #e8f5e9; stroke: #2e7d32; stroke-width: 2; }
  .terminal-text { font-family: monospace; font-size: 12px; fill: #1b5e20; }
  .nonterminal-box { fill: #e3f2fd; stroke: #1565c0; stroke-width: 2; }
  .nonterminal-text { font-family: sans-serif; font-size: 12px; fill: #0d47a1; }
  .start-circle { fill: #333; stroke: none; }
  .end-circle-outer { fill: none; stroke: #333; stroke-width: 2; }
  .end-circle-inner { fill: #333; stroke: none; }
  rect, g { transition: all 0.3s; }
</style>
<text x="20" y="38" font-size="13" fill="#555" font-family="sans-serif">ContainsFunction</text>
<circle cx="24" cy="58" r="4" class="start-circle"/>
<line x1="28" y1="58" x2="40" y2="58" class="rail"/>
<g id="1366646646">
<g id="1080576826">
<rect x="40" y="44" width="90" height="28" rx="10" ry="10" class="terminal-box"/>
<text x="85" y="62" text-anchor="middle" class="terminal-text">'contains'</text>
</g>
<line x1="130" y1="58" x2="150" y2="58" class="rail"/>
<polygon points="137,55 143,58 137,61" class="arrow"/>
<g id="900142577">
<rect x="150" y="44" width="41" height="28" rx="10" ry="10" class="terminal-box"/>
<text x="170" y="62" text-anchor="middle" class="terminal-text">'('</text>
</g>
<line x1="191" y1="58" x2="211" y2="58" class="rail"/>
<polygon points="198,55 204,58 198,61" class="arrow"/>
<g id="1024807879">
<rect x="211" y="44" width="132" height="28" class="nonterminal-box"/>
<text x="277" y="62" text-anchor="middle" class="nonterminal-text">StringExpression</text>
</g>
<line x1="343" y1="58" x2="363" y2="58" class="rail"/>
<polygon points="350,55 356,58 350,61" class="arrow"/>
<g id="1239390348">
<rect x="363" y="44" width="41" height="28" rx="10" ry="10" class="terminal-box"/>
<text x="383" y="62" text-anchor="middle" class="terminal-text">','</text>
</g>
<line x1="404" y1="58" x2="424" y2="58" class="rail"/>
<polygon points="411,55 417,58 411,61" class="arrow"/>
<g id="1265380118">
<rect x="424" y="44" width="132" height="28" class="nonterminal-box"/>
<text x="490" y="62" text-anchor="middle" class="nonterminal-text">StringExpression</text>
</g>
<line x1="556" y1="58" x2="576" y2="58" class="rail"/>
<polygon points="563,55 569,58 563,61" class="arrow"/>
<g id="1181333271">
<rect x="576" y="44" width="41" height="28" rx="10" ry="10" class="terminal-box"/>
<text x="596" y="62" text-anchor="middle" class="terminal-text">')'</text>
</g>
</g>
<line x1="617" y1="58" x2="625" y2="58" class="rail"/>
<circle cx="631" cy="58" r="6" class="end-circle-outer"/>
<circle cx="631" cy="58" r="3" class="end-circle-inner"/>
</svg>
