<svg xmlns="http://www.w3.org/2000/svg" width="877" height="130">
<style>
  .rail { stroke: #333; stroke-width: 2; fill: none; }
  .arrow { stroke: #333; stroke-width: 2; fill: none; }
  .terminal-box { fill: #e8f5e9; stroke: #2e7d32; stroke-width: 2; }
  .terminal-text { font-family: monospace; font-size: 12px; fill: #1b5e20; }
  .nonterminal-box { fill: #e3f2fd; stroke: #1565c0; stroke-width: 2; }
  .nonterminal-text { font-family: sans-serif; font-size: 12px; fill: #0d47a1; }
  .start-circle { fill: #333; stroke: none; }
  .end-circle-outer { fill: none; stroke: #333; stroke-width: 2; }
  .end-circle-inner { fill: #333; stroke: none; }
  rect, g { transition: all 0.3s; }
</style>
<text x="20" y="38" font-size="13" fill="#555" font-family="sans-serif">StringVariableDeclaration</text>
<circle cx="24" cy="76" r="4" class="start-circle"/>
<line x1="28" y1="76" x2="40" y2="76" class="rail"/>
<g id="396282499">
<g id="495480965">
<g id="472725722">
<rect x="73" y="62" width="55" height="28" rx="10" ry="10" class="terminal-box"/>
<text x="100" y="80" text-anchor="middle" class="terminal-text">'var'</text>
</g>
<line x1="56" y1="76" x2="73" y2="76" class="rail"/>
<line x1="128" y1="76" x2="146" y2="76" class="rail"/>
<line x1="40" y1="76" x2="56" y2="76" class="rail"/>
<line x1="146" y1="76" x2="162" y2="76" class="rail"/>
<g id="1321005727">
<rect x="56" y="100" width="90" height="28" rx="10" ry="10" class="terminal-box"/>
<text x="101" y="118" text-anchor="middle" class="terminal-text">'variable'</text>
</g>
<line x1="56" y1="114" x2="56" y2="114" class="rail"/>
<line x1="146" y1="114" x2="146" y2="114" class="rail"/>
<path d="M40,76 Q48,76 48,84" class="rail" fill="none"/>
<path d="M48,106 Q48,114 56,114" class="rail" fill="none"/>
<path d="M146,114 Q154,114 154,106" class="rail" fill="none"/>
<path d="M154,84 Q154,76 162,76" class="rail" fill="none"/>
</g>
<line x1="162" y1="76" x2="182" y2="76" class="rail"/>
<polygon points="169,73 175,76 169,79" class="arrow"/>
<g id="1210253985">
<rect x="182" y="62" width="41" height="28" rx="10" ry="10" class="terminal-box"/>
<text x="202" y="80" text-anchor="middle" class="terminal-text">'$'</text>
</g>
<line x1="223" y1="76" x2="243" y2="76" class="rail"/>
<polygon points="230,73 236,76 230,79" class="arrow"/>
<g id="1638017328">
<rect x="243" y="62" width="90" height="28" class="nonterminal-box"/>
<text x="288" y="80" text-anchor="middle" class="nonterminal-text">IDENTIFIER</text>
</g>
<line x1="333" y1="76" x2="353" y2="76" class="rail"/>
<polygon points="340,73 346,76 340,79" class="arrow"/>
<g id="1789516837">
<g id="1072718297">
<rect x="369" y="62" width="118" height="28" class="nonterminal-box"/>
<text x="428" y="80" text-anchor="middle" class="nonterminal-text">StringTypeHint</text>
</g>
<line x1="353" y1="76" x2="369" y2="76" class="rail"/>
<line x1="487" y1="76" x2="503" y2="76" class="rail"/>
<path d="M353,76 Q361,76 361,68" class="rail" fill="none"/>
<path d="M361,60 Q361,52 369,52" class="rail" fill="none"/>
<line x1="369" y1="52" x2="487" y2="52" class="rail"/>
<path d="M487,52 Q495,52 495,60" class="rail" fill="none"/>
<path d="M495,68 Q495,76 503,76" class="rail" fill="none"/>
</g>
<line x1="503" y1="76" x2="523" y2="76" class="rail"/>
<polygon points="510,73 516,76 510,79" class="arrow"/>
<g id="1255450651">
<g id="986705371">
<rect x="539" y="62" width="104" height="28" class="nonterminal-box"/>
<text x="591" y="80" text-anchor="middle" class="nonterminal-text">StringSetter</text>
</g>
<line x1="523" y1="76" x2="539" y2="76" class="rail"/>
<line x1="643" y1="76" x2="659" y2="76" class="rail"/>
<path d="M523,76 Q531,76 531,68" class="rail" fill="none"/>
<path d="M531,60 Q531,52 539,52" class="rail" fill="none"/>
<line x1="539" y1="52" x2="643" y2="52" class="rail"/>
<path d="M643,52 Q651,52 651,60" class="rail" fill="none"/>
<path d="M651,68 Q651,76 659,76" class="rail" fill="none"/>
</g>
<line x1="659" y1="76" x2="679" y2="76" class="rail"/>
<polygon points="666,73 672,76 666,79" class="arrow"/>
<g id="1981212209">
<rect x="679" y="62" width="97" height="28" class="nonterminal-box"/>
<text x="727" y="80" text-anchor="middle" class="nonterminal-text">Description</text>
</g>
<line x1="776" y1="76" x2="796" y2="76" class="rail"/>
<polygon points="783,73 789,76 783,79" class="arrow"/>
<g id="1383744546">
<rect x="796" y="62" width="41" height="28" rx="10" ry="10" class="terminal-box"/>
<text x="816" y="80" text-anchor="middle" class="terminal-text">';'</text>
</g>
</g>
<line x1="837" y1="76" x2="845" y2="76" class="rail"/>
<circle cx="851" cy="76" r="6" class="end-circle-outer"/>
<circle cx="851" cy="76" r="3" class="end-circle-inner"/>
</svg>
