<svg xmlns="http://www.w3.org/2000/svg" width="650" height="92">
<style>
  .rail { stroke: #333; stroke-width: 2; fill: none; }
  .arrow { stroke: #333; stroke-width: 2; fill: none; }
  .terminal-box { fill: #e8f5e9; stroke: #2e7d32; stroke-width: 2; }
  .terminal-text { font-family: monospace; font-size: 12px; fill: #1b5e20; }
  .nonterminal-box { fill: #e3f2fd; stroke: #1565c0; stroke-width: 2; }
  .nonterminal-text { font-family: sans-serif; font-size: 12px; fill: #0d47a1; }
  .start-circle { fill: #333; stroke: none; }
  .end-circle-outer { fill: none; stroke: #333; stroke-width: 2; }
  .end-circle-inner { fill: #333; stroke: none; }
  rect, g { transition: all 0.3s; }
</style>
<text x="20" y="38" font-size="13" fill="#555" font-family="sans-serif">PowFunction</text>
<circle cx="24" cy="58" r="4" class="start-circle"/>
<line x1="28" y1="58" x2="40" y2="58" class="rail"/>
<g id="952204107">
<g id="296249415">
<rect x="40" y="44" width="55" height="28" rx="10" ry="10" class="terminal-box"/>
<text x="67" y="62" text-anchor="middle" class="terminal-text">'pow'</text>
</g>
<line x1="95" y1="58" x2="115" y2="58" class="rail"/>
<polygon points="102,55 108,58 102,61" class="arrow"/>
<g id="1305545153">
<rect x="115" y="44" width="41" height="28" rx="10" ry="10" class="terminal-box"/>
<text x="135" y="62" text-anchor="middle" class="terminal-text">'('</text>
</g>
<line x1="156" y1="58" x2="176" y2="58" class="rail"/>
<polygon points="163,55 169,58 163,61" class="arrow"/>
<g id="1354106096">
<rect x="176" y="44" width="146" height="28" class="nonterminal-box"/>
<text x="249" y="62" text-anchor="middle" class="nonterminal-text">ArgumentExpression</text>
</g>
<line x1="322" y1="58" x2="342" y2="58" class="rail"/>
<polygon points="329,55 335,58 329,61" class="arrow"/>
<g id="1330797481">
<rect x="342" y="44" width="41" height="28" rx="10" ry="10" class="terminal-box"/>
<text x="362" y="62" text-anchor="middle" class="terminal-text">','</text>
</g>
<line x1="383" y1="58" x2="403" y2="58" class="rail"/>
<polygon points="390,55 396,58 390,61" class="arrow"/>
<g id="493545556">
<rect x="403" y="44" width="146" height="28" class="nonterminal-box"/>
<text x="476" y="62" text-anchor="middle" class="nonterminal-text">ArgumentExpression</text>
</g>
<line x1="549" y1="58" x2="569" y2="58" class="rail"/>
<polygon points="556,55 562,58 556,61" class="arrow"/>
<g id="1479566649">
<rect x="569" y="44" width="41" height="28" rx="10" ry="10" class="terminal-box"/>
<text x="589" y="62" text-anchor="middle" class="terminal-text">')'</text>
</g>
</g>
<line x1="610" y1="58" x2="618" y2="58" class="rail"/>
<circle cx="624" cy="58" r="6" class="end-circle-outer"/>
<circle cx="624" cy="58" r="3" class="end-circle-inner"/>
</svg>
