<svg xmlns="http://www.w3.org/2000/svg" width="513" height="120">
<style>
  .rail { stroke: #333; stroke-width: 2; fill: none; }
  .arrow { stroke: #333; stroke-width: 2; fill: none; }
  .terminal-box { fill: #e8f5e9; stroke: #2e7d32; stroke-width: 2; }
  .terminal-text { font-family: monospace; font-size: 12px; fill: #1b5e20; }
  .nonterminal-box { fill: #e3f2fd; stroke: #1565c0; stroke-width: 2; }
  .nonterminal-text { font-family: sans-serif; font-size: 12px; fill: #0d47a1; }
  .start-circle { fill: #333; stroke: none; }
  .end-circle-outer { fill: none; stroke: #333; stroke-width: 2; }
  .end-circle-inner { fill: #333; stroke: none; }
  rect, g { transition: all 0.3s; }
</style>
<text x="20" y="38" font-size="13" fill="#555" font-family="sans-serif">BooleanExpression</text>
<circle cx="24" cy="58" r="4" class="start-circle"/>
<line x1="28" y1="58" x2="40" y2="58" class="rail"/>
<g id="413531706">
<g id="2140729036">
<rect x="40" y="44" width="160" height="28" class="nonterminal-box"/>
<text x="120" y="62" text-anchor="middle" class="nonterminal-text">BooleanAndExpression</text>
</g>
<line x1="200" y1="58" x2="220" y2="58" class="rail"/>
<polygon points="207,55 213,58 207,61" class="arrow"/>
<g id="1261017438">
<g id="1937762163">
<g id="1725346096">
<rect x="236" y="68" width="41" height="28" rx="10" ry="10" class="terminal-box"/>
<text x="256" y="86" text-anchor="middle" class="terminal-text">'|'</text>
</g>
<line x1="277" y1="82" x2="297" y2="82" class="rail"/>
<polygon points="284,79 290,82 284,85" class="arrow"/>
<g id="1227402440">
<rect x="297" y="68" width="160" height="28" class="nonterminal-box"/>
<text x="377" y="86" text-anchor="middle" class="nonterminal-text">BooleanAndExpression</text>
</g>
</g>
<line x1="220" y1="58" x2="473" y2="58" class="rail"/>
<path d="M236,58 Q228,58 228,66" class="rail" fill="none"/>
<path d="M228,74 Q228,82 220,82" class="rail" fill="none"/>
<line x1="220" y1="82" x2="236" y2="82" class="rail"/>
<line x1="457" y1="82" x2="473" y2="82" class="rail"/>
<path d="M473,82 Q465,82 465,74" class="rail" fill="none"/>
<path d="M465,66 Q465,58 457,58" class="rail" fill="none"/>
<path d="M465,82 Q473,82 473,90" class="rail" fill="none"/>
<path d="M473,98 Q473,106 465,106" class="rail" fill="none"/>
<line x1="228" y1="106" x2="465" y2="106" class="rail"/>
<polygon points="352,103 346,106 352,109" class="arrow"/>
<path d="M228,106 Q220,106 220,98" class="rail" fill="none"/>
<path d="M220,90 Q220,82 228,82" class="rail" fill="none"/>
</g>
</g>
<line x1="473" y1="58" x2="481" y2="58" class="rail"/>
<circle cx="487" cy="58" r="6" class="end-circle-outer"/>
<circle cx="487" cy="58" r="3" class="end-circle-inner"/>
</svg>
