<svg xmlns="http://www.w3.org/2000/svg" width="295" height="206">
<style>
  .rail { stroke: #333; stroke-width: 2; fill: none; }
  .arrow { stroke: #333; stroke-width: 2; fill: none; }
  .terminal-box { fill: #e8f5e9; stroke: #2e7d32; stroke-width: 2; }
  .terminal-text { font-family: monospace; font-size: 12px; fill: #1b5e20; }
  .nonterminal-box { fill: #e3f2fd; stroke: #1565c0; stroke-width: 2; }
  .nonterminal-text { font-family: sans-serif; font-size: 12px; fill: #0d47a1; }
  .start-circle { fill: #333; stroke: none; }
  .end-circle-outer { fill: none; stroke: #333; stroke-width: 2; }
  .end-circle-inner { fill: #333; stroke: none; }
  rect, g { transition: all 0.3s; }
</style>
<text x="20" y="38" font-size="13" fill="#555" font-family="sans-serif">TypeHint</text>
<circle cx="24" cy="76" r="4" class="start-circle"/>
<line x1="28" y1="76" x2="40" y2="76" class="rail"/>
<g id="1357454953">
<g id="1578697022">
<g id="826054799">
<rect x="56" y="62" width="48" height="28" rx="10" ry="10" class="terminal-box"/>
<text x="80" y="80" text-anchor="middle" class="terminal-text">'as'</text>
</g>
<line x1="40" y1="76" x2="56" y2="76" class="rail"/>
<line x1="104" y1="76" x2="120" y2="76" class="rail"/>
<path d="M40,76 Q48,76 48,68" class="rail" fill="none"/>
<path d="M48,60 Q48,52 56,52" class="rail" fill="none"/>
<line x1="56" y1="52" x2="104" y2="52" class="rail"/>
<path d="M104,52 Q112,52 112,60" class="rail" fill="none"/>
<path d="M112,68 Q112,76 120,76" class="rail" fill="none"/>
</g>
<line x1="120" y1="76" x2="140" y2="76" class="rail"/>
<polygon points="127,73 133,76 127,79" class="arrow"/>
<g id="1836441328">
<g id="1599593787">
<rect x="159" y="62" width="76" height="28" rx="10" ry="10" class="terminal-box"/>
<text x="197" y="80" text-anchor="middle" class="terminal-text">'number'</text>
</g>
<line x1="156" y1="76" x2="159" y2="76" class="rail"/>
<line x1="235" y1="76" x2="239" y2="76" class="rail"/>
<line x1="140" y1="76" x2="156" y2="76" class="rail"/>
<line x1="239" y1="76" x2="255" y2="76" class="rail"/>
<g id="1325504350">
<rect x="159" y="100" width="76" height="28" rx="10" ry="10" class="terminal-box"/>
<text x="197" y="118" text-anchor="middle" class="terminal-text">'string'</text>
</g>
<line x1="156" y1="114" x2="159" y2="114" class="rail"/>
<line x1="235" y1="114" x2="239" y2="114" class="rail"/>
<path d="M140,76 Q148,76 148,84" class="rail" fill="none"/>
<path d="M148,106 Q148,114 156,114" class="rail" fill="none"/>
<path d="M239,114 Q247,114 247,106" class="rail" fill="none"/>
<path d="M247,84 Q247,76 255,76" class="rail" fill="none"/>
<g id="447518417">
<rect x="156" y="138" width="83" height="28" rx="10" ry="10" class="terminal-box"/>
<text x="197" y="156" text-anchor="middle" class="terminal-text">'boolean'</text>
</g>
<line x1="156" y1="152" x2="156" y2="152" class="rail"/>
<line x1="239" y1="152" x2="239" y2="152" class="rail"/>
<path d="M140,76 Q148,76 148,84" class="rail" fill="none"/>
<path d="M148,144 Q148,152 156,152" class="rail" fill="none"/>
<path d="M239,152 Q247,152 247,144" class="rail" fill="none"/>
<path d="M247,84 Q247,76 255,76" class="rail" fill="none"/>
<g id="204104779">
<rect x="159" y="176" width="76" height="28" rx="10" ry="10" class="terminal-box"/>
<text x="197" y="194" text-anchor="middle" class="terminal-text">'object'</text>
</g>
<line x1="156" y1="190" x2="159" y2="190" class="rail"/>
<line x1="235" y1="190" x2="239" y2="190" class="rail"/>
<path d="M140,76 Q148,76 148,84" class="rail" fill="none"/>
<path d="M148,182 Q148,190 156,190" class="rail" fill="none"/>
<path d="M239,190 Q247,190 247,182" class="rail" fill="none"/>
<path d="M247,84 Q247,76 255,76" class="rail" fill="none"/>
</g>
</g>
<line x1="255" y1="76" x2="263" y2="76" class="rail"/>
<circle cx="269" cy="76" r="6" class="end-circle-outer"/>
<circle cx="269" cy="76" r="3" class="end-circle-inner"/>
</svg>
