<svg xmlns="http://www.w3.org/2000/svg" width="300" height="282">
<style>
  .rail { stroke: #333; stroke-width: 2; fill: none; }
  .arrow { stroke: #333; stroke-width: 2; fill: none; }
  .terminal-box { fill: #e8f5e9; stroke: #2e7d32; stroke-width: 2; }
  .terminal-text { font-family: monospace; font-size: 12px; fill: #1b5e20; }
  .nonterminal-box { fill: #e3f2fd; stroke: #1565c0; stroke-width: 2; }
  .nonterminal-text { font-family: sans-serif; font-size: 12px; fill: #0d47a1; }
  .start-circle { fill: #333; stroke: none; }
  .end-circle-outer { fill: none; stroke: #333; stroke-width: 2; }
  .end-circle-inner { fill: #333; stroke: none; }
  rect, g { transition: all 0.3s; }
</style>
<text x="20" y="38" font-size="13" fill="#555" font-family="sans-serif">ObjectExpression</text>
<circle cx="24" cy="58" r="4" class="start-circle"/>
<line x1="28" y1="58" x2="40" y2="58" class="rail"/>
<g id="1970693054">
<g id="1843648009">
<rect x="84" y="44" width="132" height="28" class="nonterminal-box"/>
<text x="150" y="62" text-anchor="middle" class="nonterminal-text">NumberExpression</text>
</g>
<line x1="56" y1="58" x2="84" y2="58" class="rail"/>
<line x1="216" y1="58" x2="244" y2="58" class="rail"/>
<line x1="40" y1="58" x2="56" y2="58" class="rail"/>
<line x1="244" y1="58" x2="260" y2="58" class="rail"/>
<g id="870889411">
<rect x="84" y="82" width="132" height="28" class="nonterminal-box"/>
<text x="150" y="100" text-anchor="middle" class="nonterminal-text">StringExpression</text>
</g>
<line x1="56" y1="96" x2="84" y2="96" class="rail"/>
<line x1="216" y1="96" x2="244" y2="96" class="rail"/>
<path d="M40,58 Q48,58 48,66" class="rail" fill="none"/>
<path d="M48,88 Q48,96 56,96" class="rail" fill="none"/>
<path d="M244,96 Q252,96 252,88" class="rail" fill="none"/>
<path d="M252,66 Q252,58 260,58" class="rail" fill="none"/>
<g id="561058743">
<rect x="80" y="120" width="139" height="28" class="nonterminal-box"/>
<text x="149" y="138" text-anchor="middle" class="nonterminal-text">BooleanExpression</text>
</g>
<line x1="56" y1="134" x2="80" y2="134" class="rail"/>
<line x1="219" y1="134" x2="244" y2="134" class="rail"/>
<path d="M40,58 Q48,58 48,66" class="rail" fill="none"/>
<path d="M48,126 Q48,134 56,134" class="rail" fill="none"/>
<path d="M244,134 Q252,134 252,126" class="rail" fill="none"/>
<path d="M252,66 Q252,58 260,58" class="rail" fill="none"/>
<g id="1504908731">
<rect x="56" y="158" width="188" height="28" class="nonterminal-box"/>
<text x="150" y="176" text-anchor="middle" class="nonterminal-text">ExternalObjectInvocation</text>
</g>
<line x1="56" y1="172" x2="56" y2="172" class="rail"/>
<line x1="244" y1="172" x2="244" y2="172" class="rail"/>
<path d="M40,58 Q48,58 48,66" class="rail" fill="none"/>
<path d="M48,164 Q48,172 56,172" class="rail" fill="none"/>
<path d="M244,172 Q252,172 252,164" class="rail" fill="none"/>
<path d="M252,66 Q252,58 260,58" class="rail" fill="none"/>
<g id="705938202">
<rect x="101" y="196" width="97" height="28" class="nonterminal-box"/>
<text x="149" y="214" text-anchor="middle" class="nonterminal-text">VariableRef</text>
</g>
<line x1="56" y1="210" x2="101" y2="210" class="rail"/>
<line x1="198" y1="210" x2="244" y2="210" class="rail"/>
<path d="M40,58 Q48,58 48,66" class="rail" fill="none"/>
<path d="M48,202 Q48,210 56,210" class="rail" fill="none"/>
<path d="M244,210 Q252,210 252,202" class="rail" fill="none"/>
<path d="M252,66 Q252,58 260,58" class="rail" fill="none"/>
<g id="1555250996">
<rect x="84" y="234" width="132" height="28" class="nonterminal-box"/>
<text x="150" y="252" text-anchor="middle" class="nonterminal-text">MethodInvocation</text>
</g>
<line x1="56" y1="248" x2="84" y2="248" class="rail"/>
<line x1="216" y1="248" x2="244" y2="248" class="rail"/>
<path d="M40,58 Q48,58 48,66" class="rail" fill="none"/>
<path d="M48,240 Q48,248 56,248" class="rail" fill="none"/>
<path d="M244,248 Q252,248 252,240" class="rail" fill="none"/>
<path d="M252,66 Q252,58 260,58" class="rail" fill="none"/>
</g>
<line x1="260" y1="58" x2="268" y2="58" class="rail"/>
<circle cx="274" cy="58" r="6" class="end-circle-outer"/>
<circle cx="274" cy="58" r="3" class="end-circle-inner"/>
</svg>
