<svg xmlns="http://www.w3.org/2000/svg" width="437" height="92">
<style>
  .rail { stroke: #333; stroke-width: 2; fill: none; }
  .arrow { stroke: #333; stroke-width: 2; fill: none; }
  .terminal-box { fill: #e8f5e9; stroke: #2e7d32; stroke-width: 2; }
  .terminal-text { font-family: monospace; font-size: 12px; fill: #1b5e20; }
  .nonterminal-box { fill: #e3f2fd; stroke: #1565c0; stroke-width: 2; }
  .nonterminal-text { font-family: sans-serif; font-size: 12px; fill: #0d47a1; }
  .start-circle { fill: #333; stroke: none; }
  .end-circle-outer { fill: none; stroke: #333; stroke-width: 2; }
  .end-circle-inner { fill: #333; stroke: none; }
  rect, g { transition: all 0.3s; }
</style>
<text x="20" y="38" font-size="13" fill="#555" font-family="sans-serif">RoundFunction</text>
<circle cx="24" cy="58" r="4" class="start-circle"/>
<line x1="28" y1="58" x2="40" y2="58" class="rail"/>
<g id="1154454532">
<g id="134654050">
<rect x="40" y="44" width="69" height="28" rx="10" ry="10" class="terminal-box"/>
<text x="74" y="62" text-anchor="middle" class="terminal-text">'round'</text>
</g>
<line x1="109" y1="58" x2="129" y2="58" class="rail"/>
<polygon points="116,55 122,58 116,61" class="arrow"/>
<g id="612322537">
<rect x="129" y="44" width="41" height="28" rx="10" ry="10" class="terminal-box"/>
<text x="149" y="62" text-anchor="middle" class="terminal-text">'('</text>
</g>
<line x1="170" y1="58" x2="190" y2="58" class="rail"/>
<polygon points="177,55 183,58 177,61" class="arrow"/>
<g id="68677645">
<rect x="190" y="44" width="146" height="28" class="nonterminal-box"/>
<text x="263" y="62" text-anchor="middle" class="nonterminal-text">ArgumentExpression</text>
</g>
<line x1="336" y1="58" x2="356" y2="58" class="rail"/>
<polygon points="343,55 349,58 343,61" class="arrow"/>
<g id="2042062568">
<rect x="356" y="44" width="41" height="28" rx="10" ry="10" class="terminal-box"/>
<text x="376" y="62" text-anchor="middle" class="terminal-text">')'</text>
</g>
</g>
<line x1="397" y1="58" x2="405" y2="58" class="rail"/>
<circle cx="411" cy="58" r="6" class="end-circle-outer"/>
<circle cx="411" cy="58" r="3" class="end-circle-inner"/>
</svg>
