<svg xmlns="http://www.w3.org/2000/svg" xmlns:xlink="http://www.w3.org/1999/xlink" width="601" height="112">
<style>
  svg { background: white; font-family: sans-serif; }
  .rail { stroke: #333; stroke-width: 2; fill: none; }
  .arrow { fill: #333; }
  .terminal-box { fill: #E8F4FD; stroke: #2196F3; stroke-width: 2; rx: 10; ry: 10; }
  .nonterminal-box { fill: #E8F5E9; stroke: #4CAF50; stroke-width: 2; }
  .nonterminal-box:hover { fill: #C8E6C9; stroke: #2E7D32; cursor: pointer; }
  .terminal-text { font-family: monospace; font-size: 14px; fill: #0D47A1; }
  .nonterminal-text { font-family: sans-serif; font-size: 14px; fill: #1B5E20; }
  a:hover .nonterminal-text { fill: #1B5E20; text-decoration: underline; }
  .start-circle { fill: #333; stroke: none; }
  .end-circle-outer { fill: #333; stroke: none; }
  .end-circle-inner { fill: white; stroke: none; }
</style>
<text x="20" y="38" font-size="13" fill="#555" font-family="sans-serif">AnnotationParameters</text>
<circle cx="26" cy="57" r="6" class="start-circle"/>
<line x1="32" y1="57" x2="50" y2="57" class="rail"/>
<a xlink:href="#AnnotationParameter" target="_top">
<rect x="50" y="44" width="191" height="26" class="nonterminal-box"/>
<text x="145" y="62" text-anchor="middle" class="nonterminal-text">AnnotationParameter</text>
</a>
<line x1="241" y1="57" x2="257" y2="57" class="rail"/>
<polygon points="246,54 252,57 246,60" class="arrow"/>
<rect x="277" y="44" width="47" height="26" rx="10" ry="10" class="terminal-box"/>
<text x="300" y="62" text-anchor="middle" class="terminal-text">','</text>
<line x1="324" y1="57" x2="340" y2="57" class="rail"/>
<polygon points="329,54 335,57 329,60" class="arrow"/>
<a xlink:href="#AnnotationParameter" target="_top">
<rect x="340" y="44" width="191" height="26" class="nonterminal-box"/>
<text x="435" y="62" text-anchor="middle" class="nonterminal-text">AnnotationParameter</text>
</a>
<line x1="257" y1="57" x2="277" y2="57" class="rail"/>
<line x1="531" y1="57" x2="551" y2="57" class="rail"/>
<path d="M 267,57 Q 257,57 257,67" class="rail"/>
<line x1="257" y1="67" x2="257" y2="72" class="rail"/>
<path d="M 257,72 Q 257,82 267,82" class="rail"/>
<line x1="267" y1="82" x2="541" y2="82" class="rail"/>
<polygon points="407,79 401,82 407,85" class="arrow"/>
<path d="M 541,82 Q 551,82 551,72" class="rail"/>
<line x1="551" y1="72" x2="551" y2="67" class="rail"/>
<path d="M 551,67 Q 551,57 541,57" class="rail"/>
<line x1="551" y1="57" x2="565" y2="57" class="rail"/>
<circle cx="573" cy="57" r="8" class="end-circle-outer"/>
<circle cx="573" cy="57" r="5" class="end-circle-inner"/>
</svg>
