<svg xmlns="http://www.w3.org/2000/svg" width="881" height="110">
<style>
  .rail { stroke: #333; stroke-width: 2; fill: none; }
  .arrow { stroke: #333; stroke-width: 2; fill: none; }
  .terminal-box { fill: #e8f5e9; stroke: #2e7d32; stroke-width: 2; }
  .terminal-text { font-family: monospace; font-size: 12px; fill: #1b5e20; }
  .nonterminal-box { fill: #e3f2fd; stroke: #1565c0; stroke-width: 2; }
  .nonterminal-text { font-family: sans-serif; font-size: 12px; fill: #0d47a1; }
  .start-circle { fill: #333; stroke: none; }
  .end-circle-outer { fill: none; stroke: #333; stroke-width: 2; }
  .end-circle-inner { fill: #333; stroke: none; }
  rect, g { transition: all 0.3s; }
</style>
<text x="20" y="38" font-size="13" fill="#555" font-family="sans-serif">ExternalBooleanInvocation</text>
<circle cx="24" cy="76" r="4" class="start-circle"/>
<line x1="28" y1="76" x2="40" y2="76" class="rail"/>
<g id="134008146">
<g id="2049941">
<rect x="40" y="62" width="90" height="28" rx="10" ry="10" class="terminal-box"/>
<text x="85" y="80" text-anchor="middle" class="terminal-text">'external'</text>
</g>
<line x1="130" y1="76" x2="150" y2="76" class="rail"/>
<polygon points="137,73 143,76 137,79" class="arrow"/>
<g id="1019285085">
<rect x="150" y="62" width="97" height="28" rx="10" ry="10" class="terminal-box"/>
<text x="198" y="80" text-anchor="middle" class="terminal-text">'returning'</text>
</g>
<line x1="247" y1="76" x2="267" y2="76" class="rail"/>
<polygon points="254,73 260,76 254,79" class="arrow"/>
<g id="2550266">
<rect x="267" y="62" width="48" height="28" rx="10" ry="10" class="terminal-box"/>
<text x="291" y="80" text-anchor="middle" class="terminal-text">'as'</text>
</g>
<line x1="315" y1="76" x2="335" y2="76" class="rail"/>
<polygon points="322,73 328,76 322,79" class="arrow"/>
<g id="1803422276">
<rect x="335" y="62" width="139" height="28" class="nonterminal-box"/>
<text x="404" y="80" text-anchor="middle" class="nonterminal-text">BooleanReturnType</text>
</g>
<line x1="474" y1="76" x2="494" y2="76" class="rail"/>
<polygon points="481,73 487,76 481,79" class="arrow"/>
<g id="287824721">
<rect x="494" y="62" width="90" height="28" class="nonterminal-box"/>
<text x="539" y="80" text-anchor="middle" class="nonterminal-text">IDENTIFIER</text>
</g>
<line x1="584" y1="76" x2="604" y2="76" class="rail"/>
<polygon points="591,73 597,76 591,79" class="arrow"/>
<g id="631282894">
<rect x="604" y="62" width="41" height="28" rx="10" ry="10" class="terminal-box"/>
<text x="624" y="80" text-anchor="middle" class="terminal-text">'('</text>
</g>
<line x1="645" y1="76" x2="665" y2="76" class="rail"/>
<polygon points="652,73 658,76 652,79" class="arrow"/>
<g id="155835544">
<g id="310302905">
<rect x="681" y="62" width="83" height="28" class="nonterminal-box"/>
<text x="722" y="80" text-anchor="middle" class="nonterminal-text">Arguments</text>
</g>
<line x1="665" y1="76" x2="681" y2="76" class="rail"/>
<line x1="764" y1="76" x2="780" y2="76" class="rail"/>
<path d="M665,76 Q673,76 673,68" class="rail" fill="none"/>
<path d="M673,60 Q673,52 681,52" class="rail" fill="none"/>
<line x1="681" y1="52" x2="764" y2="52" class="rail"/>
<path d="M764,52 Q772,52 772,60" class="rail" fill="none"/>
<path d="M772,68 Q772,76 780,76" class="rail" fill="none"/>
</g>
<line x1="780" y1="76" x2="800" y2="76" class="rail"/>
<polygon points="787,73 793,76 787,79" class="arrow"/>
<g id="639333299">
<rect x="800" y="62" width="41" height="28" rx="10" ry="10" class="terminal-box"/>
<text x="820" y="80" text-anchor="middle" class="terminal-text">')'</text>
</g>
</g>
<line x1="841" y1="76" x2="849" y2="76" class="rail"/>
<circle cx="855" cy="76" r="6" class="end-circle-outer"/>
<circle cx="855" cy="76" r="3" class="end-circle-inner"/>
</svg>
