<svg xmlns="http://www.w3.org/2000/svg" xmlns:xlink="http://www.w3.org/1999/xlink" width="727" height="112">
<style>
  svg { background: white; font-family: sans-serif; }
  .rail { stroke: #333; stroke-width: 2; fill: none; }
  .arrow { fill: #333; }
  .terminal-box { fill: #E8F4FD; stroke: #2196F3; stroke-width: 2; rx: 10; ry: 10; }
  .nonterminal-box { fill: #E8F5E9; stroke: #4CAF50; stroke-width: 2; }
  .nonterminal-box:hover { fill: #C8E6C9; stroke: #2E7D32; cursor: pointer; }
  .terminal-text { font-family: monospace; font-size: 14px; fill: #0D47A1; }
  .nonterminal-text { font-family: sans-serif; font-size: 14px; fill: #1B5E20; }
  a:hover .nonterminal-text { fill: #1B5E20; text-decoration: underline; }
  .start-circle { fill: #333; stroke: none; }
  .end-circle-outer { fill: #333; stroke: none; }
  .end-circle-inner { fill: white; stroke: none; }
</style>
<text x="20" y="38" font-size="13" fill="#555" font-family="sans-serif">MethodInvocation</text>
<circle cx="26" cy="79" r="6" class="start-circle"/>
<line x1="32" y1="79" x2="50" y2="79" class="rail"/>
<a xlink:href="#MethodInvocationHeader" target="_top">
<rect x="50" y="66" width="218" height="26" class="nonterminal-box"/>
<text x="159" y="84" text-anchor="middle" class="nonterminal-text">MethodInvocationHeader</text>
</a>
<line x1="268" y1="79" x2="284" y2="79" class="rail"/>
<polygon points="273,76 279,79 273,82" class="arrow"/>
<a xlink:href="#IDENTIFIER" target="_top">
<rect x="284" y="66" width="110" height="26" class="nonterminal-box"/>
<text x="339" y="84" text-anchor="middle" class="nonterminal-text">IDENTIFIER</text>
</a>
<line x1="394" y1="79" x2="410" y2="79" class="rail"/>
<polygon points="399,76 405,79 399,82" class="arrow"/>
<rect x="410" y="66" width="47" height="26" rx="10" ry="10" class="terminal-box"/>
<text x="433" y="84" text-anchor="middle" class="terminal-text">'('</text>
<line x1="457" y1="79" x2="473" y2="79" class="rail"/>
<polygon points="462,76 468,79 462,82" class="arrow"/>
<a xlink:href="#Arguments" target="_top">
<rect x="493" y="66" width="101" height="26" class="nonterminal-box"/>
<text x="543" y="84" text-anchor="middle" class="nonterminal-text">Arguments</text>
</a>
<line x1="473" y1="79" x2="493" y2="79" class="rail"/>
<line x1="594" y1="79" x2="614" y2="79" class="rail"/>
<path d="M 473,79 Q 483,79 483,69" class="rail"/>
<line x1="483" y1="69" x2="483" y2="64" class="rail"/>
<path d="M 483,64 Q 483,54 493,54" class="rail"/>
<line x1="493" y1="54" x2="594" y2="54" class="rail"/>
<path d="M 594,54 Q 604,54 604,64" class="rail"/>
<line x1="604" y1="64" x2="604" y2="69" class="rail"/>
<path d="M 604,69 Q 604,79 614,79" class="rail"/>
<line x1="614" y1="79" x2="630" y2="79" class="rail"/>
<polygon points="619,76 625,79 619,82" class="arrow"/>
<rect x="630" y="66" width="47" height="26" rx="10" ry="10" class="terminal-box"/>
<text x="653" y="84" text-anchor="middle" class="terminal-text">')'</text>
<line x1="677" y1="79" x2="691" y2="79" class="rail"/>
<circle cx="699" cy="79" r="8" class="end-circle-outer"/>
<circle cx="699" cy="79" r="5" class="end-circle-inner"/>
</svg>
