<svg xmlns="http://www.w3.org/2000/svg" xmlns:xlink="http://www.w3.org/1999/xlink" width="1208" height="112">
<style>
  svg { background: white; font-family: sans-serif; }
  .rail { stroke: #333; stroke-width: 2; fill: none; }
  .arrow { fill: #333; }
  .terminal-box { fill: #E8F4FD; stroke: #2196F3; stroke-width: 2; rx: 10; ry: 10; }
  .nonterminal-box { fill: #E8F5E9; stroke: #4CAF50; stroke-width: 2; }
  .nonterminal-box:hover { fill: #C8E6C9; stroke: #2E7D32; cursor: pointer; }
  .terminal-text { font-family: monospace; font-size: 14px; fill: #0D47A1; }
  .nonterminal-text { font-family: sans-serif; font-size: 14px; fill: #1B5E20; }
  a:hover .nonterminal-text { fill: #1B5E20; text-decoration: underline; }
  .start-circle { fill: #333; stroke: none; }
  .end-circle-outer { fill: #333; stroke: none; }
  .end-circle-inner { fill: white; stroke: none; }
</style>
<text x="20" y="38" font-size="13" fill="#555" font-family="sans-serif">SideEffectNumberExpression</text>
<circle cx="26" cy="79" r="6" class="start-circle"/>
<line x1="32" y1="79" x2="50" y2="79" class="rail"/>
<a xlink:href="#SideEffectHeader" target="_top">
<rect x="50" y="66" width="164" height="26" class="nonterminal-box"/>
<text x="132" y="84" text-anchor="middle" class="nonterminal-text">SideEffectHeader</text>
</a>
<line x1="214" y1="79" x2="230" y2="79" class="rail"/>
<polygon points="219,76 225,79 219,82" class="arrow"/>
<rect x="250" y="66" width="119" height="26" rx="10" ry="10" class="terminal-box"/>
<text x="309" y="84" text-anchor="middle" class="terminal-text">'returning'</text>
<line x1="369" y1="79" x2="385" y2="79" class="rail"/>
<polygon points="374,76 380,79 374,82" class="arrow"/>
<rect x="385" y="66" width="56" height="26" rx="10" ry="10" class="terminal-box"/>
<text x="413" y="84" text-anchor="middle" class="terminal-text">'as'</text>
<line x1="441" y1="79" x2="457" y2="79" class="rail"/>
<polygon points="446,76 452,79 446,82" class="arrow"/>
<a xlink:href="#NumberReturnType" target="_top">
<rect x="457" y="66" width="164" height="26" class="nonterminal-box"/>
<text x="539" y="84" text-anchor="middle" class="nonterminal-text">NumberReturnType</text>
</a>
<line x1="230" y1="79" x2="250" y2="79" class="rail"/>
<line x1="621" y1="79" x2="641" y2="79" class="rail"/>
<path d="M 230,79 Q 240,79 240,69" class="rail"/>
<line x1="240" y1="69" x2="240" y2="64" class="rail"/>
<path d="M 240,64 Q 240,54 250,54" class="rail"/>
<line x1="250" y1="54" x2="621" y2="54" class="rail"/>
<path d="M 621,54 Q 631,54 631,64" class="rail"/>
<line x1="631" y1="64" x2="631" y2="69" class="rail"/>
<path d="M 631,69 Q 631,79 641,79" class="rail"/>
<line x1="641" y1="79" x2="657" y2="79" class="rail"/>
<polygon points="646,76 652,79 646,82" class="arrow"/>
<rect x="657" y="66" width="47" height="26" rx="10" ry="10" class="terminal-box"/>
<text x="680" y="84" text-anchor="middle" class="terminal-text">':'</text>
<line x1="704" y1="79" x2="720" y2="79" class="rail"/>
<polygon points="709,76 715,79 709,82" class="arrow"/>
<a xlink:href="#QualifiedMethod" target="_top">
<rect x="720" y="66" width="155" height="26" class="nonterminal-box"/>
<text x="797" y="84" text-anchor="middle" class="nonterminal-text">QualifiedMethod</text>
</a>
<line x1="875" y1="79" x2="891" y2="79" class="rail"/>
<polygon points="880,76 886,79 880,82" class="arrow"/>
<rect x="891" y="66" width="47" height="26" rx="10" ry="10" class="terminal-box"/>
<text x="914" y="84" text-anchor="middle" class="terminal-text">'('</text>
<line x1="938" y1="79" x2="954" y2="79" class="rail"/>
<polygon points="943,76 949,79 943,82" class="arrow"/>
<a xlink:href="#Arguments" target="_top">
<rect x="974" y="66" width="101" height="26" class="nonterminal-box"/>
<text x="1024" y="84" text-anchor="middle" class="nonterminal-text">Arguments</text>
</a>
<line x1="954" y1="79" x2="974" y2="79" class="rail"/>
<line x1="1075" y1="79" x2="1095" y2="79" class="rail"/>
<path d="M 954,79 Q 964,79 964,69" class="rail"/>
<line x1="964" y1="69" x2="964" y2="64" class="rail"/>
<path d="M 964,64 Q 964,54 974,54" class="rail"/>
<line x1="974" y1="54" x2="1075" y2="54" class="rail"/>
<path d="M 1075,54 Q 1085,54 1085,64" class="rail"/>
<line x1="1085" y1="64" x2="1085" y2="69" class="rail"/>
<path d="M 1085,69 Q 1085,79 1095,79" class="rail"/>
<line x1="1095" y1="79" x2="1111" y2="79" class="rail"/>
<polygon points="1100,76 1106,79 1100,82" class="arrow"/>
<rect x="1111" y="66" width="47" height="26" rx="10" ry="10" class="terminal-box"/>
<text x="1134" y="84" text-anchor="middle" class="terminal-text">')'</text>
<line x1="1158" y1="79" x2="1172" y2="79" class="rail"/>
<circle cx="1180" cy="79" r="8" class="end-circle-outer"/>
<circle cx="1180" cy="79" r="5" class="end-circle-inner"/>
</svg>
