<svg xmlns="http://www.w3.org/2000/svg" width="324" height="282">
<style>
  .rail { stroke: #333; stroke-width: 2; fill: none; }
  .arrow { stroke: #333; stroke-width: 2; fill: none; }
  .terminal-box { fill: #e8f5e9; stroke: #2e7d32; stroke-width: 2; }
  .terminal-text { font-family: monospace; font-size: 12px; fill: #1b5e20; }
  .nonterminal-box { fill: #e3f2fd; stroke: #1565c0; stroke-width: 2; }
  .nonterminal-text { font-family: sans-serif; font-size: 12px; fill: #0d47a1; }
  .start-circle { fill: #333; stroke: none; }
  .end-circle-outer { fill: none; stroke: #333; stroke-width: 2; }
  .end-circle-inner { fill: #333; stroke: none; }
  rect, g { transition: all 0.3s; }
</style>
<text x="20" y="38" font-size="13" fill="#555" font-family="sans-serif">Expression</text>
<circle cx="24" cy="58" r="4" class="start-circle"/>
<line x1="28" y1="58" x2="40" y2="58" class="rail"/>
<g id="755536278">
<g id="723147077">
<rect x="96" y="44" width="132" height="28" class="nonterminal-box"/>
<text x="162" y="62" text-anchor="middle" class="nonterminal-text">NumberExpression</text>
</g>
<line x1="56" y1="58" x2="96" y2="58" class="rail"/>
<line x1="228" y1="58" x2="268" y2="58" class="rail"/>
<line x1="40" y1="58" x2="56" y2="58" class="rail"/>
<line x1="268" y1="58" x2="284" y2="58" class="rail"/>
<g id="1654078707">
<rect x="92" y="82" width="139" height="28" class="nonterminal-box"/>
<text x="161" y="100" text-anchor="middle" class="nonterminal-text">BooleanExpression</text>
</g>
<line x1="56" y1="96" x2="92" y2="96" class="rail"/>
<line x1="231" y1="96" x2="268" y2="96" class="rail"/>
<path d="M40,58 Q48,58 48,66" class="rail" fill="none"/>
<path d="M48,88 Q48,96 56,96" class="rail" fill="none"/>
<path d="M268,96 Q276,96 276,88" class="rail" fill="none"/>
<path d="M276,66 Q276,58 284,58" class="rail" fill="none"/>
<g id="1910972526">
<rect x="96" y="120" width="132" height="28" class="nonterminal-box"/>
<text x="162" y="138" text-anchor="middle" class="nonterminal-text">StringExpression</text>
</g>
<line x1="56" y1="134" x2="96" y2="134" class="rail"/>
<line x1="228" y1="134" x2="268" y2="134" class="rail"/>
<path d="M40,58 Q48,58 48,66" class="rail" fill="none"/>
<path d="M48,126 Q48,134 56,134" class="rail" fill="none"/>
<path d="M268,134 Q276,134 276,126" class="rail" fill="none"/>
<path d="M276,66 Q276,58 284,58" class="rail" fill="none"/>
<g id="37241404">
<rect x="96" y="158" width="132" height="28" class="nonterminal-box"/>
<text x="162" y="176" text-anchor="middle" class="nonterminal-text">ObjectExpression</text>
</g>
<line x1="56" y1="172" x2="96" y2="172" class="rail"/>
<line x1="228" y1="172" x2="268" y2="172" class="rail"/>
<path d="M40,58 Q48,58 48,66" class="rail" fill="none"/>
<path d="M48,164 Q48,172 56,172" class="rail" fill="none"/>
<path d="M268,172 Q276,172 276,164" class="rail" fill="none"/>
<path d="M276,66 Q276,58 284,58" class="rail" fill="none"/>
<g id="2073162575">
<rect x="96" y="196" width="132" height="28" class="nonterminal-box"/>
<text x="162" y="214" text-anchor="middle" class="nonterminal-text">MethodInvocation</text>
</g>
<line x1="56" y1="210" x2="96" y2="210" class="rail"/>
<line x1="228" y1="210" x2="268" y2="210" class="rail"/>
<path d="M40,58 Q48,58 48,66" class="rail" fill="none"/>
<path d="M48,202 Q48,210 56,210" class="rail" fill="none"/>
<path d="M268,210 Q276,210 276,202" class="rail" fill="none"/>
<path d="M276,66 Q276,58 284,58" class="rail" fill="none"/>
<g id="1543543572">
<g id="549075050">
<rect x="56" y="234" width="41" height="28" rx="10" ry="10" class="terminal-box"/>
<text x="76" y="252" text-anchor="middle" class="terminal-text">'('</text>
</g>
<line x1="97" y1="248" x2="117" y2="248" class="rail"/>
<polygon points="104,245 110,248 104,251" class="arrow"/>
<g id="1746311235">
<rect x="117" y="234" width="90" height="28" class="nonterminal-box"/>
<text x="162" y="252" text-anchor="middle" class="nonterminal-text">Expression</text>
</g>
<line x1="207" y1="248" x2="227" y2="248" class="rail"/>
<polygon points="214,245 220,248 214,251" class="arrow"/>
<g id="679415519">
<rect x="227" y="234" width="41" height="28" rx="10" ry="10" class="terminal-box"/>
<text x="247" y="252" text-anchor="middle" class="terminal-text">')'</text>
</g>
</g>
<line x1="56" y1="248" x2="56" y2="248" class="rail"/>
<line x1="268" y1="248" x2="268" y2="248" class="rail"/>
<path d="M40,58 Q48,58 48,66" class="rail" fill="none"/>
<path d="M48,240 Q48,248 56,248" class="rail" fill="none"/>
<path d="M268,248 Q276,248 276,240" class="rail" fill="none"/>
<path d="M276,66 Q276,58 284,58" class="rail" fill="none"/>
</g>
<line x1="284" y1="58" x2="292" y2="58" class="rail"/>
<circle cx="298" cy="58" r="6" class="end-circle-outer"/>
<circle cx="298" cy="58" r="3" class="end-circle-inner"/>
</svg>
