<svg xmlns="http://www.w3.org/2000/svg" width="1027" height="92">
<style>
  .rail { stroke: #333; stroke-width: 2; fill: none; }
  .arrow { stroke: #333; stroke-width: 2; fill: none; }
  .terminal-box { fill: #e8f5e9; stroke: #2e7d32; stroke-width: 2; }
  .terminal-text { font-family: monospace; font-size: 12px; fill: #1b5e20; }
  .nonterminal-box { fill: #e3f2fd; stroke: #1565c0; stroke-width: 2; }
  .nonterminal-text { font-family: sans-serif; font-size: 12px; fill: #0d47a1; }
  .start-circle { fill: #333; stroke: none; }
  .end-circle-outer { fill: none; stroke: #333; stroke-width: 2; }
  .end-circle-inner { fill: #333; stroke: none; }
  rect, g { transition: all 0.3s; }
</style>
<text x="20" y="38" font-size="13" fill="#555" font-family="sans-serif">InDayTimeRangeFunction</text>
<circle cx="24" cy="58" r="4" class="start-circle"/>
<line x1="28" y1="58" x2="40" y2="58" class="rail"/>
<g id="1274116714">
<g id="722032181">
<rect x="40" y="44" width="132" height="28" rx="10" ry="10" class="terminal-box"/>
<text x="106" y="62" text-anchor="middle" class="terminal-text">'inDayTimeRange'</text>
</g>
<line x1="172" y1="58" x2="192" y2="58" class="rail"/>
<polygon points="179,55 185,58 179,61" class="arrow"/>
<g id="898317402">
<rect x="192" y="44" width="41" height="28" rx="10" ry="10" class="terminal-box"/>
<text x="212" y="62" text-anchor="middle" class="terminal-text">'('</text>
</g>
<line x1="233" y1="58" x2="253" y2="58" class="rail"/>
<polygon points="240,55 246,58 240,61" class="arrow"/>
<g id="1282108144">
<rect x="253" y="44" width="83" height="28" class="nonterminal-box"/>
<text x="294" y="62" text-anchor="middle" class="nonterminal-text">DayOfWeek</text>
</g>
<line x1="336" y1="58" x2="356" y2="58" class="rail"/>
<polygon points="343,55 349,58 343,61" class="arrow"/>
<g id="865943868">
<rect x="356" y="44" width="41" height="28" rx="10" ry="10" class="terminal-box"/>
<text x="376" y="62" text-anchor="middle" class="terminal-text">','</text>
</g>
<line x1="397" y1="58" x2="417" y2="58" class="rail"/>
<polygon points="404,55 410,58 404,61" class="arrow"/>
<g id="1388581252">
<rect x="417" y="44" width="132" height="28" class="nonterminal-box"/>
<text x="483" y="62" text-anchor="middle" class="nonterminal-text">NumberExpression</text>
</g>
<line x1="549" y1="58" x2="569" y2="58" class="rail"/>
<polygon points="556,55 562,58 556,61" class="arrow"/>
<g id="1044487786">
<rect x="569" y="44" width="41" height="28" rx="10" ry="10" class="terminal-box"/>
<text x="589" y="62" text-anchor="middle" class="terminal-text">','</text>
</g>
<line x1="610" y1="58" x2="630" y2="58" class="rail"/>
<polygon points="617,55 623,58 617,61" class="arrow"/>
<g id="694837176">
<rect x="630" y="44" width="83" height="28" class="nonterminal-box"/>
<text x="671" y="62" text-anchor="middle" class="nonterminal-text">DayOfWeek</text>
</g>
<line x1="713" y1="58" x2="733" y2="58" class="rail"/>
<polygon points="720,55 726,58 720,61" class="arrow"/>
<g id="1890025224">
<rect x="733" y="44" width="41" height="28" rx="10" ry="10" class="terminal-box"/>
<text x="753" y="62" text-anchor="middle" class="terminal-text">','</text>
</g>
<line x1="774" y1="58" x2="794" y2="58" class="rail"/>
<polygon points="781,55 787,58 781,61" class="arrow"/>
<g id="43849897">
<rect x="794" y="44" width="132" height="28" class="nonterminal-box"/>
<text x="860" y="62" text-anchor="middle" class="nonterminal-text">NumberExpression</text>
</g>
<line x1="926" y1="58" x2="946" y2="58" class="rail"/>
<polygon points="933,55 939,58 933,61" class="arrow"/>
<g id="815625310">
<rect x="946" y="44" width="41" height="28" rx="10" ry="10" class="terminal-box"/>
<text x="966" y="62" text-anchor="middle" class="terminal-text">')'</text>
</g>
</g>
<line x1="987" y1="58" x2="995" y2="58" class="rail"/>
<circle cx="1001" cy="58" r="6" class="end-circle-outer"/>
<circle cx="1001" cy="58" r="3" class="end-circle-inner"/>
</svg>
