<svg xmlns="http://www.w3.org/2000/svg" width="465" height="92">
<style>
  .rail { stroke: #333; stroke-width: 2; fill: none; }
  .arrow { stroke: #333; stroke-width: 2; fill: none; }
  .terminal-box { fill: #e8f5e9; stroke: #2e7d32; stroke-width: 2; }
  .terminal-text { font-family: monospace; font-size: 12px; fill: #1b5e20; }
  .nonterminal-box { fill: #e3f2fd; stroke: #1565c0; stroke-width: 2; }
  .nonterminal-text { font-family: sans-serif; font-size: 12px; fill: #0d47a1; }
  .start-circle { fill: #333; stroke: none; }
  .end-circle-outer { fill: none; stroke: #333; stroke-width: 2; }
  .end-circle-inner { fill: #333; stroke: none; }
  rect, g { transition: all 0.3s; }
</style>
<text x="20" y="38" font-size="13" fill="#555" font-family="sans-serif">ToLowerCaseFunction</text>
<circle cx="24" cy="58" r="4" class="start-circle"/>
<line x1="28" y1="58" x2="40" y2="58" class="rail"/>
<g id="166850725">
<g id="1466495602">
<rect x="40" y="44" width="111" height="28" rx="10" ry="10" class="terminal-box"/>
<text x="95" y="62" text-anchor="middle" class="terminal-text">'toLowerCase'</text>
</g>
<line x1="151" y1="58" x2="171" y2="58" class="rail"/>
<polygon points="158,55 164,58 158,61" class="arrow"/>
<g id="2060752554">
<rect x="171" y="44" width="41" height="28" rx="10" ry="10" class="terminal-box"/>
<text x="191" y="62" text-anchor="middle" class="terminal-text">'('</text>
</g>
<line x1="212" y1="58" x2="232" y2="58" class="rail"/>
<polygon points="219,55 225,58 219,61" class="arrow"/>
<g id="1486871784">
<rect x="232" y="44" width="132" height="28" class="nonterminal-box"/>
<text x="298" y="62" text-anchor="middle" class="nonterminal-text">StringExpression</text>
</g>
<line x1="364" y1="58" x2="384" y2="58" class="rail"/>
<polygon points="371,55 377,58 371,61" class="arrow"/>
<g id="429550214">
<rect x="384" y="44" width="41" height="28" rx="10" ry="10" class="terminal-box"/>
<text x="404" y="62" text-anchor="middle" class="terminal-text">')'</text>
</g>
</g>
<line x1="425" y1="58" x2="433" y2="58" class="rail"/>
<circle cx="439" cy="58" r="6" class="end-circle-outer"/>
<circle cx="439" cy="58" r="3" class="end-circle-inner"/>
</svg>
