<svg xmlns="http://www.w3.org/2000/svg" width="366" height="472">
<style>
  .rail { stroke: #333; stroke-width: 2; fill: none; }
  .arrow { stroke: #333; stroke-width: 2; fill: none; }
  .terminal-box { fill: #e8f5e9; stroke: #2e7d32; stroke-width: 2; }
  .terminal-text { font-family: monospace; font-size: 12px; fill: #1b5e20; }
  .nonterminal-box { fill: #e3f2fd; stroke: #1565c0; stroke-width: 2; }
  .nonterminal-text { font-family: sans-serif; font-size: 12px; fill: #0d47a1; }
  .start-circle { fill: #333; stroke: none; }
  .end-circle-outer { fill: none; stroke: #333; stroke-width: 2; }
  .end-circle-inner { fill: #333; stroke: none; }
  rect, g { transition: all 0.3s; }
</style>
<text x="20" y="38" font-size="13" fill="#555" font-family="sans-serif">NumberFactor</text>
<circle cx="24" cy="58" r="4" class="start-circle"/>
<line x1="28" y1="58" x2="40" y2="58" class="rail"/>
<g id="1026305299">
<g id="1472954646">
<rect x="113" y="44" width="139" height="28" class="nonterminal-box"/>
<text x="182" y="62" text-anchor="middle" class="nonterminal-text">TernaryExpression</text>
</g>
<line x1="56" y1="58" x2="113" y2="58" class="rail"/>
<line x1="252" y1="58" x2="310" y2="58" class="rail"/>
<line x1="40" y1="58" x2="56" y2="58" class="rail"/>
<line x1="310" y1="58" x2="326" y2="58" class="rail"/>
<g id="1338697865">
<rect x="99" y="82" width="167" height="28" class="nonterminal-box"/>
<text x="182" y="100" text-anchor="middle" class="nonterminal-text">NumberMatchExpression</text>
</g>
<line x1="56" y1="96" x2="99" y2="96" class="rail"/>
<line x1="266" y1="96" x2="310" y2="96" class="rail"/>
<path d="M40,58 Q48,58 48,66" class="rail" fill="none"/>
<path d="M48,88 Q48,96 56,96" class="rail" fill="none"/>
<path d="M310,96 Q318,96 318,88" class="rail" fill="none"/>
<path d="M318,66 Q318,58 326,58" class="rail" fill="none"/>
<g id="1194064455">
<rect x="131" y="120" width="104" height="28" class="nonterminal-box"/>
<text x="183" y="138" text-anchor="middle" class="nonterminal-text">IfExpression</text>
</g>
<line x1="56" y1="134" x2="131" y2="134" class="rail"/>
<line x1="235" y1="134" x2="310" y2="134" class="rail"/>
<path d="M40,58 Q48,58 48,66" class="rail" fill="none"/>
<path d="M48,126 Q48,134 56,134" class="rail" fill="none"/>
<path d="M310,134 Q318,134 318,126" class="rail" fill="none"/>
<path d="M318,66 Q318,58 326,58" class="rail" fill="none"/>
<g id="35775420">
<rect x="131" y="158" width="104" height="28" class="nonterminal-box"/>
<text x="183" y="176" text-anchor="middle" class="nonterminal-text">MathFunction</text>
</g>
<line x1="56" y1="172" x2="131" y2="172" class="rail"/>
<line x1="235" y1="172" x2="310" y2="172" class="rail"/>
<path d="M40,58 Q48,58 48,66" class="rail" fill="none"/>
<path d="M48,164 Q48,172 56,172" class="rail" fill="none"/>
<path d="M310,172 Q318,172 318,164" class="rail" fill="none"/>
<path d="M318,66 Q318,58 326,58" class="rail" fill="none"/>
<g id="166265311">
<rect x="127" y="196" width="111" height="28" class="nonterminal-box"/>
<text x="182" y="214" text-anchor="middle" class="nonterminal-text">ToNumFunction</text>
</g>
<line x1="56" y1="210" x2="127" y2="210" class="rail"/>
<line x1="238" y1="210" x2="310" y2="210" class="rail"/>
<path d="M40,58 Q48,58 48,66" class="rail" fill="none"/>
<path d="M48,202 Q48,210 56,210" class="rail" fill="none"/>
<path d="M310,210 Q318,210 318,202" class="rail" fill="none"/>
<path d="M318,66 Q318,58 326,58" class="rail" fill="none"/>
<g id="293551819">
<rect x="124" y="234" width="118" height="28" class="nonterminal-box"/>
<text x="183" y="252" text-anchor="middle" class="nonterminal-text">LengthFunction</text>
</g>
<line x1="56" y1="248" x2="124" y2="248" class="rail"/>
<line x1="242" y1="248" x2="310" y2="248" class="rail"/>
<path d="M40,58 Q48,58 48,66" class="rail" fill="none"/>
<path d="M48,240 Q48,248 56,248" class="rail" fill="none"/>
<path d="M310,248 Q318,248 318,240" class="rail" fill="none"/>
<path d="M318,66 Q318,58 326,58" class="rail" fill="none"/>
<g id="161355617">
<rect x="89" y="272" width="188" height="28" class="nonterminal-box"/>
<text x="183" y="290" text-anchor="middle" class="nonterminal-text">ExternalNumberInvocation</text>
</g>
<line x1="56" y1="286" x2="89" y2="286" class="rail"/>
<line x1="277" y1="286" x2="310" y2="286" class="rail"/>
<path d="M40,58 Q48,58 48,66" class="rail" fill="none"/>
<path d="M48,278 Q48,286 56,286" class="rail" fill="none"/>
<path d="M310,286 Q318,286 318,278" class="rail" fill="none"/>
<path d="M318,66 Q318,58 326,58" class="rail" fill="none"/>
<g id="70203885">
<rect x="152" y="310" width="62" height="28" class="nonterminal-box"/>
<text x="183" y="328" text-anchor="middle" class="nonterminal-text">NUMBER</text>
</g>
<line x1="56" y1="324" x2="152" y2="324" class="rail"/>
<line x1="214" y1="324" x2="310" y2="324" class="rail"/>
<path d="M40,58 Q48,58 48,66" class="rail" fill="none"/>
<path d="M48,316 Q48,324 56,324" class="rail" fill="none"/>
<path d="M310,324 Q318,324 318,316" class="rail" fill="none"/>
<path d="M318,66 Q318,58 326,58" class="rail" fill="none"/>
<g id="1158227790">
<rect x="134" y="348" width="97" height="28" class="nonterminal-box"/>
<text x="182" y="366" text-anchor="middle" class="nonterminal-text">VariableRef</text>
</g>
<line x1="56" y1="362" x2="134" y2="362" class="rail"/>
<line x1="231" y1="362" x2="310" y2="362" class="rail"/>
<path d="M40,58 Q48,58 48,66" class="rail" fill="none"/>
<path d="M48,354 Q48,362 56,362" class="rail" fill="none"/>
<path d="M310,362 Q318,362 318,354" class="rail" fill="none"/>
<path d="M318,66 Q318,58 326,58" class="rail" fill="none"/>
<g id="770232386">
<rect x="117" y="386" width="132" height="28" class="nonterminal-box"/>
<text x="183" y="404" text-anchor="middle" class="nonterminal-text">MethodInvocation</text>
</g>
<line x1="56" y1="400" x2="117" y2="400" class="rail"/>
<line x1="249" y1="400" x2="310" y2="400" class="rail"/>
<path d="M40,58 Q48,58 48,66" class="rail" fill="none"/>
<path d="M48,392 Q48,400 56,400" class="rail" fill="none"/>
<path d="M310,400 Q318,400 318,392" class="rail" fill="none"/>
<path d="M318,66 Q318,58 326,58" class="rail" fill="none"/>
<g id="1310165927">
<g id="1421148033">
<rect x="56" y="424" width="41" height="28" rx="10" ry="10" class="terminal-box"/>
<text x="76" y="442" text-anchor="middle" class="terminal-text">'('</text>
</g>
<line x1="97" y1="438" x2="117" y2="438" class="rail"/>
<polygon points="104,435 110,438 104,441" class="arrow"/>
<g id="690574507">
<rect x="117" y="424" width="132" height="28" class="nonterminal-box"/>
<text x="183" y="442" text-anchor="middle" class="nonterminal-text">NumberExpression</text>
</g>
<line x1="249" y1="438" x2="269" y2="438" class="rail"/>
<polygon points="256,435 262,438 256,441" class="arrow"/>
<g id="630597015">
<rect x="269" y="424" width="41" height="28" rx="10" ry="10" class="terminal-box"/>
<text x="289" y="442" text-anchor="middle" class="terminal-text">')'</text>
</g>
</g>
<line x1="56" y1="438" x2="56" y2="438" class="rail"/>
<line x1="310" y1="438" x2="310" y2="438" class="rail"/>
<path d="M40,58 Q48,58 48,66" class="rail" fill="none"/>
<path d="M48,430 Q48,438 56,438" class="rail" fill="none"/>
<path d="M310,438 Q318,438 318,430" class="rail" fill="none"/>
<path d="M318,66 Q318,58 326,58" class="rail" fill="none"/>
</g>
<line x1="326" y1="58" x2="334" y2="58" class="rail"/>
<circle cx="340" cy="58" r="6" class="end-circle-outer"/>
<circle cx="340" cy="58" r="3" class="end-circle-inner"/>
</svg>
