<svg xmlns="http://www.w3.org/2000/svg" width="568" height="92">
<style>
  .rail { stroke: #333; stroke-width: 2; fill: none; }
  .arrow { stroke: #333; stroke-width: 2; fill: none; }
  .terminal-box { fill: #e8f5e9; stroke: #2e7d32; stroke-width: 2; }
  .terminal-text { font-family: monospace; font-size: 12px; fill: #1b5e20; }
  .nonterminal-box { fill: #e3f2fd; stroke: #1565c0; stroke-width: 2; }
  .nonterminal-text { font-family: sans-serif; font-size: 12px; fill: #0d47a1; }
  .start-circle { fill: #333; stroke: none; }
  .end-circle-outer { fill: none; stroke: #333; stroke-width: 2; }
  .end-circle-inner { fill: #333; stroke: none; }
  rect, g { transition: all 0.3s; }
</style>
<text x="20" y="38" font-size="13" fill="#555" font-family="sans-serif">EndsWithDotMethod</text>
<circle cx="24" cy="58" r="4" class="start-circle"/>
<line x1="28" y1="58" x2="40" y2="58" class="rail"/>
<g id="1763860386">
<g id="1907148980">
<rect x="40" y="44" width="97" height="28" class="nonterminal-box"/>
<text x="88" y="62" text-anchor="middle" class="nonterminal-text">VariableRef</text>
</g>
<line x1="137" y1="58" x2="157" y2="58" class="rail"/>
<polygon points="144,55 150,58 144,61" class="arrow"/>
<g id="1748351296">
<rect x="157" y="44" width="97" height="28" rx="10" ry="10" class="terminal-box"/>
<text x="205" y="62" text-anchor="middle" class="terminal-text">'.endsWith'</text>
</g>
<line x1="254" y1="58" x2="274" y2="58" class="rail"/>
<polygon points="261,55 267,58 261,61" class="arrow"/>
<g id="1267301663">
<rect x="274" y="44" width="41" height="28" rx="10" ry="10" class="terminal-box"/>
<text x="294" y="62" text-anchor="middle" class="terminal-text">'('</text>
</g>
<line x1="315" y1="58" x2="335" y2="58" class="rail"/>
<polygon points="322,55 328,58 322,61" class="arrow"/>
<g id="1004964456">
<rect x="335" y="44" width="132" height="28" class="nonterminal-box"/>
<text x="401" y="62" text-anchor="middle" class="nonterminal-text">StringExpression</text>
</g>
<line x1="467" y1="58" x2="487" y2="58" class="rail"/>
<polygon points="474,55 480,58 474,61" class="arrow"/>
<g id="748166344">
<rect x="487" y="44" width="41" height="28" rx="10" ry="10" class="terminal-box"/>
<text x="507" y="62" text-anchor="middle" class="terminal-text">')'</text>
</g>
</g>
<line x1="528" y1="58" x2="536" y2="58" class="rail"/>
<circle cx="542" cy="58" r="6" class="end-circle-outer"/>
<circle cx="542" cy="58" r="3" class="end-circle-inner"/>
</svg>
