<svg xmlns="http://www.w3.org/2000/svg" width="300" height="358">
<style>
  .rail { stroke: #333; stroke-width: 2; fill: none; }
  .arrow { stroke: #333; stroke-width: 2; fill: none; }
  .terminal-box { fill: #e8f5e9; stroke: #2e7d32; stroke-width: 2; }
  .terminal-text { font-family: monospace; font-size: 12px; fill: #1b5e20; }
  .nonterminal-box { fill: #e3f2fd; stroke: #1565c0; stroke-width: 2; }
  .nonterminal-text { font-family: sans-serif; font-size: 12px; fill: #0d47a1; }
  .start-circle { fill: #333; stroke: none; }
  .end-circle-outer { fill: none; stroke: #333; stroke-width: 2; }
  .end-circle-inner { fill: #333; stroke: none; }
  rect, g { transition: all 0.3s; }
</style>
<text x="20" y="38" font-size="13" fill="#555" font-family="sans-serif">StringExpression</text>
<circle cx="24" cy="58" r="4" class="start-circle"/>
<line x1="28" y1="58" x2="40" y2="58" class="rail"/>
<g id="1820768911">
<g id="551249171">
<rect x="66" y="44" width="167" height="28" class="nonterminal-box"/>
<text x="149" y="62" text-anchor="middle" class="nonterminal-text">StringMatchExpression</text>
</g>
<line x1="56" y1="58" x2="66" y2="58" class="rail"/>
<line x1="233" y1="58" x2="244" y2="58" class="rail"/>
<line x1="40" y1="58" x2="56" y2="58" class="rail"/>
<line x1="244" y1="58" x2="260" y2="58" class="rail"/>
<g id="617427906">
<rect x="56" y="82" width="188" height="28" class="nonterminal-box"/>
<text x="150" y="100" text-anchor="middle" class="nonterminal-text">ExternalStringInvocation</text>
</g>
<line x1="56" y1="96" x2="56" y2="96" class="rail"/>
<line x1="244" y1="96" x2="244" y2="96" class="rail"/>
<path d="M40,58 Q48,58 48,66" class="rail" fill="none"/>
<path d="M48,88 Q48,96 56,96" class="rail" fill="none"/>
<path d="M244,96 Q252,96 252,88" class="rail" fill="none"/>
<path d="M252,66 Q252,58 260,58" class="rail" fill="none"/>
<g id="145212126">
<rect x="73" y="120" width="153" height="28" class="nonterminal-box"/>
<text x="149" y="138" text-anchor="middle" class="nonterminal-text">ToUpperCaseFunction</text>
</g>
<line x1="56" y1="134" x2="73" y2="134" class="rail"/>
<line x1="226" y1="134" x2="244" y2="134" class="rail"/>
<path d="M40,58 Q48,58 48,66" class="rail" fill="none"/>
<path d="M48,126 Q48,134 56,134" class="rail" fill="none"/>
<path d="M244,134 Q252,134 252,126" class="rail" fill="none"/>
<path d="M252,66 Q252,58 260,58" class="rail" fill="none"/>
<g id="1459881645">
<rect x="73" y="158" width="153" height="28" class="nonterminal-box"/>
<text x="149" y="176" text-anchor="middle" class="nonterminal-text">ToLowerCaseFunction</text>
</g>
<line x1="56" y1="172" x2="73" y2="172" class="rail"/>
<line x1="226" y1="172" x2="244" y2="172" class="rail"/>
<path d="M40,58 Q48,58 48,66" class="rail" fill="none"/>
<path d="M48,164 Q48,172 56,172" class="rail" fill="none"/>
<path d="M244,172 Q252,172 252,164" class="rail" fill="none"/>
<path d="M252,66 Q252,58 260,58" class="rail" fill="none"/>
<g id="738984611">
<rect x="98" y="196" width="104" height="28" class="nonterminal-box"/>
<text x="150" y="214" text-anchor="middle" class="nonterminal-text">TrimFunction</text>
</g>
<line x1="56" y1="210" x2="98" y2="210" class="rail"/>
<line x1="202" y1="210" x2="244" y2="210" class="rail"/>
<path d="M40,58 Q48,58 48,66" class="rail" fill="none"/>
<path d="M48,202 Q48,210 56,210" class="rail" fill="none"/>
<path d="M244,210 Q252,210 252,202" class="rail" fill="none"/>
<path d="M252,66 Q252,58 260,58" class="rail" fill="none"/>
<g id="1636984771">
<rect x="119" y="234" width="62" height="28" class="nonterminal-box"/>
<text x="150" y="252" text-anchor="middle" class="nonterminal-text">STRING</text>
</g>
<line x1="56" y1="248" x2="119" y2="248" class="rail"/>
<line x1="181" y1="248" x2="244" y2="248" class="rail"/>
<path d="M40,58 Q48,58 48,66" class="rail" fill="none"/>
<path d="M48,240 Q48,248 56,248" class="rail" fill="none"/>
<path d="M244,248 Q252,248 252,240" class="rail" fill="none"/>
<path d="M252,66 Q252,58 260,58" class="rail" fill="none"/>
<g id="1461053469">
<rect x="101" y="272" width="97" height="28" class="nonterminal-box"/>
<text x="149" y="290" text-anchor="middle" class="nonterminal-text">VariableRef</text>
</g>
<line x1="56" y1="286" x2="101" y2="286" class="rail"/>
<line x1="198" y1="286" x2="244" y2="286" class="rail"/>
<path d="M40,58 Q48,58 48,66" class="rail" fill="none"/>
<path d="M48,278 Q48,286 56,286" class="rail" fill="none"/>
<path d="M244,286 Q252,286 252,278" class="rail" fill="none"/>
<path d="M252,66 Q252,58 260,58" class="rail" fill="none"/>
<g id="542358844">
<rect x="84" y="310" width="132" height="28" class="nonterminal-box"/>
<text x="150" y="328" text-anchor="middle" class="nonterminal-text">MethodInvocation</text>
</g>
<line x1="56" y1="324" x2="84" y2="324" class="rail"/>
<line x1="216" y1="324" x2="244" y2="324" class="rail"/>
<path d="M40,58 Q48,58 48,66" class="rail" fill="none"/>
<path d="M48,316 Q48,324 56,324" class="rail" fill="none"/>
<path d="M244,324 Q252,324 252,316" class="rail" fill="none"/>
<path d="M252,66 Q252,58 260,58" class="rail" fill="none"/>
</g>
<line x1="260" y1="58" x2="268" y2="58" class="rail"/>
<circle cx="274" cy="58" r="6" class="end-circle-outer"/>
<circle cx="274" cy="58" r="3" class="end-circle-inner"/>
</svg>
