<svg xmlns="http://www.w3.org/2000/svg" width="682" height="120">
<style>
  .rail { stroke: #333; stroke-width: 2; fill: none; }
  .arrow { stroke: #333; stroke-width: 2; fill: none; }
  .terminal-box { fill: #e8f5e9; stroke: #2e7d32; stroke-width: 2; }
  .terminal-text { font-family: monospace; font-size: 12px; fill: #1b5e20; }
  .nonterminal-box { fill: #e3f2fd; stroke: #1565c0; stroke-width: 2; }
  .nonterminal-text { font-family: sans-serif; font-size: 12px; fill: #0d47a1; }
  .start-circle { fill: #333; stroke: none; }
  .end-circle-outer { fill: none; stroke: #333; stroke-width: 2; }
  .end-circle-inner { fill: #333; stroke: none; }
  rect, g { transition: all 0.3s; }
</style>
<text x="20" y="38" font-size="13" fill="#555" font-family="sans-serif">MinFunction</text>
<circle cx="24" cy="58" r="4" class="start-circle"/>
<line x1="28" y1="58" x2="40" y2="58" class="rail"/>
<g id="995399835">
<g id="1555657560">
<rect x="40" y="44" width="55" height="28" rx="10" ry="10" class="terminal-box"/>
<text x="67" y="62" text-anchor="middle" class="terminal-text">'min'</text>
</g>
<line x1="95" y1="58" x2="115" y2="58" class="rail"/>
<polygon points="102,55 108,58 102,61" class="arrow"/>
<g id="1399468058">
<rect x="115" y="44" width="41" height="28" rx="10" ry="10" class="terminal-box"/>
<text x="135" y="62" text-anchor="middle" class="terminal-text">'('</text>
</g>
<line x1="156" y1="58" x2="176" y2="58" class="rail"/>
<polygon points="163,55 169,58 163,61" class="arrow"/>
<g id="1040930297">
<rect x="176" y="44" width="146" height="28" class="nonterminal-box"/>
<text x="249" y="62" text-anchor="middle" class="nonterminal-text">ArgumentExpression</text>
</g>
<line x1="322" y1="58" x2="342" y2="58" class="rail"/>
<polygon points="329,55 335,58 329,61" class="arrow"/>
<g id="137214750">
<g id="1819119607">
<g id="2041644816">
<rect x="358" y="68" width="41" height="28" rx="10" ry="10" class="terminal-box"/>
<text x="378" y="86" text-anchor="middle" class="terminal-text">','</text>
</g>
<line x1="399" y1="82" x2="419" y2="82" class="rail"/>
<polygon points="406,79 412,82 406,85" class="arrow"/>
<g id="1845860557">
<rect x="419" y="68" width="146" height="28" class="nonterminal-box"/>
<text x="492" y="86" text-anchor="middle" class="nonterminal-text">ArgumentExpression</text>
</g>
</g>
<line x1="342" y1="58" x2="581" y2="58" class="rail"/>
<path d="M358,58 Q350,58 350,66" class="rail" fill="none"/>
<path d="M350,74 Q350,82 342,82" class="rail" fill="none"/>
<line x1="342" y1="82" x2="358" y2="82" class="rail"/>
<line x1="565" y1="82" x2="581" y2="82" class="rail"/>
<path d="M581,82 Q573,82 573,74" class="rail" fill="none"/>
<path d="M573,66 Q573,58 565,58" class="rail" fill="none"/>
<path d="M573,82 Q581,82 581,90" class="rail" fill="none"/>
<path d="M581,98 Q581,106 573,106" class="rail" fill="none"/>
<line x1="350" y1="106" x2="573" y2="106" class="rail"/>
<polygon points="467,103 461,106 467,109" class="arrow"/>
<path d="M350,106 Q342,106 342,98" class="rail" fill="none"/>
<path d="M342,90 Q342,82 350,82" class="rail" fill="none"/>
</g>
<line x1="581" y1="58" x2="601" y2="58" class="rail"/>
<polygon points="588,55 594,58 588,61" class="arrow"/>
<g id="2035655820">
<rect x="601" y="44" width="41" height="28" rx="10" ry="10" class="terminal-box"/>
<text x="621" y="62" text-anchor="middle" class="terminal-text">')'</text>
</g>
</g>
<line x1="642" y1="58" x2="650" y2="58" class="rail"/>
<circle cx="656" cy="58" r="6" class="end-circle-outer"/>
<circle cx="656" cy="58" r="3" class="end-circle-inner"/>
</svg>
