<svg xmlns="http://www.w3.org/2000/svg" width="415" height="120">
<style>
  .rail { stroke: #333; stroke-width: 2; fill: none; }
  .arrow { stroke: #333; stroke-width: 2; fill: none; }
  .terminal-box { fill: #e8f5e9; stroke: #2e7d32; stroke-width: 2; }
  .terminal-text { font-family: monospace; font-size: 12px; fill: #1b5e20; }
  .nonterminal-box { fill: #e3f2fd; stroke: #1565c0; stroke-width: 2; }
  .nonterminal-text { font-family: sans-serif; font-size: 12px; fill: #0d47a1; }
  .start-circle { fill: #333; stroke: none; }
  .end-circle-outer { fill: none; stroke: #333; stroke-width: 2; }
  .end-circle-inner { fill: #333; stroke: none; }
  rect, g { transition: all 0.3s; }
</style>
<text x="20" y="38" font-size="13" fill="#555" font-family="sans-serif">BooleanXorExpression</text>
<circle cx="24" cy="58" r="4" class="start-circle"/>
<line x1="28" y1="58" x2="40" y2="58" class="rail"/>
<g id="2073733289">
<g id="1108727651">
<rect x="40" y="44" width="111" height="28" class="nonterminal-box"/>
<text x="95" y="62" text-anchor="middle" class="nonterminal-text">BooleanFactor</text>
</g>
<line x1="151" y1="58" x2="171" y2="58" class="rail"/>
<polygon points="158,55 164,58 158,61" class="arrow"/>
<g id="2119915283">
<g id="312026348">
<g id="354553045">
<rect x="187" y="68" width="41" height="28" rx="10" ry="10" class="terminal-box"/>
<text x="207" y="86" text-anchor="middle" class="terminal-text">'^'</text>
</g>
<line x1="228" y1="82" x2="248" y2="82" class="rail"/>
<polygon points="235,79 241,82 235,85" class="arrow"/>
<g id="1769810398">
<rect x="248" y="68" width="111" height="28" class="nonterminal-box"/>
<text x="303" y="86" text-anchor="middle" class="nonterminal-text">BooleanFactor</text>
</g>
</g>
<line x1="171" y1="58" x2="375" y2="58" class="rail"/>
<path d="M187,58 Q179,58 179,66" class="rail" fill="none"/>
<path d="M179,74 Q179,82 171,82" class="rail" fill="none"/>
<line x1="171" y1="82" x2="187" y2="82" class="rail"/>
<line x1="359" y1="82" x2="375" y2="82" class="rail"/>
<path d="M375,82 Q367,82 367,74" class="rail" fill="none"/>
<path d="M367,66 Q367,58 359,58" class="rail" fill="none"/>
<path d="M367,82 Q375,82 375,90" class="rail" fill="none"/>
<path d="M375,98 Q375,106 367,106" class="rail" fill="none"/>
<line x1="179" y1="106" x2="367" y2="106" class="rail"/>
<polygon points="279,103 273,106 279,109" class="arrow"/>
<path d="M179,106 Q171,106 171,98" class="rail" fill="none"/>
<path d="M171,90 Q171,82 179,82" class="rail" fill="none"/>
</g>
</g>
<line x1="375" y1="58" x2="383" y2="58" class="rail"/>
<circle cx="389" cy="58" r="6" class="end-circle-outer"/>
<circle cx="389" cy="58" r="3" class="end-circle-inner"/>
</svg>
