<svg xmlns="http://www.w3.org/2000/svg" width="650" height="92">
<style>
  .rail { stroke: #333; stroke-width: 2; fill: none; }
  .arrow { stroke: #333; stroke-width: 2; fill: none; }
  .terminal-box { fill: #e8f5e9; stroke: #2e7d32; stroke-width: 2; }
  .terminal-text { font-family: monospace; font-size: 12px; fill: #1b5e20; }
  .nonterminal-box { fill: #e3f2fd; stroke: #1565c0; stroke-width: 2; }
  .nonterminal-text { font-family: sans-serif; font-size: 12px; fill: #0d47a1; }
  .start-circle { fill: #333; stroke: none; }
  .end-circle-outer { fill: none; stroke: #333; stroke-width: 2; }
  .end-circle-inner { fill: #333; stroke: none; }
  rect, g { transition: all 0.3s; }
</style>
<text x="20" y="38" font-size="13" fill="#555" font-family="sans-serif">ToNumFunction</text>
<circle cx="24" cy="58" r="4" class="start-circle"/>
<line x1="28" y1="58" x2="40" y2="58" class="rail"/>
<g id="1723593854">
<g id="247214567">
<rect x="40" y="44" width="69" height="28" rx="10" ry="10" class="terminal-box"/>
<text x="74" y="62" text-anchor="middle" class="terminal-text">'toNum'</text>
</g>
<line x1="109" y1="58" x2="129" y2="58" class="rail"/>
<polygon points="116,55 122,58 116,61" class="arrow"/>
<g id="97233923">
<rect x="129" y="44" width="41" height="28" rx="10" ry="10" class="terminal-box"/>
<text x="149" y="62" text-anchor="middle" class="terminal-text">'('</text>
</g>
<line x1="170" y1="58" x2="190" y2="58" class="rail"/>
<polygon points="177,55 183,58 177,61" class="arrow"/>
<g id="1315855888">
<rect x="190" y="44" width="132" height="28" class="nonterminal-box"/>
<text x="256" y="62" text-anchor="middle" class="nonterminal-text">StringExpression</text>
</g>
<line x1="322" y1="58" x2="342" y2="58" class="rail"/>
<polygon points="329,55 335,58 329,61" class="arrow"/>
<g id="1840678721">
<rect x="342" y="44" width="41" height="28" rx="10" ry="10" class="terminal-box"/>
<text x="362" y="62" text-anchor="middle" class="terminal-text">','</text>
</g>
<line x1="383" y1="58" x2="403" y2="58" class="rail"/>
<polygon points="390,55 396,58 390,61" class="arrow"/>
<g id="40542233">
<rect x="403" y="44" width="146" height="28" class="nonterminal-box"/>
<text x="476" y="62" text-anchor="middle" class="nonterminal-text">ArgumentExpression</text>
</g>
<line x1="549" y1="58" x2="569" y2="58" class="rail"/>
<polygon points="556,55 562,58 556,61" class="arrow"/>
<g id="1520025571">
<rect x="569" y="44" width="41" height="28" rx="10" ry="10" class="terminal-box"/>
<text x="589" y="62" text-anchor="middle" class="terminal-text">')'</text>
</g>
</g>
<line x1="610" y1="58" x2="618" y2="58" class="rail"/>
<circle cx="624" cy="58" r="6" class="end-circle-outer"/>
<circle cx="624" cy="58" r="3" class="end-circle-inner"/>
</svg>
