<svg xmlns="http://www.w3.org/2000/svg" width="565" height="110">
<style>
  .rail { stroke: #333; stroke-width: 2; fill: none; }
  .arrow { stroke: #333; stroke-width: 2; fill: none; }
  .terminal-box { fill: #e8f5e9; stroke: #2e7d32; stroke-width: 2; }
  .terminal-text { font-family: monospace; font-size: 12px; fill: #1b5e20; }
  .nonterminal-box { fill: #e3f2fd; stroke: #1565c0; stroke-width: 2; }
  .nonterminal-text { font-family: sans-serif; font-size: 12px; fill: #0d47a1; }
  .start-circle { fill: #333; stroke: none; }
  .end-circle-outer { fill: none; stroke: #333; stroke-width: 2; }
  .end-circle-inner { fill: #333; stroke: none; }
  rect, g { transition: all 0.3s; }
</style>
<text x="20" y="38" font-size="13" fill="#555" font-family="sans-serif">Annotation</text>
<circle cx="24" cy="76" r="4" class="start-circle"/>
<line x1="28" y1="76" x2="40" y2="76" class="rail"/>
<g id="202153825">
<g id="638047890">
<rect x="40" y="62" width="41" height="28" rx="10" ry="10" class="terminal-box"/>
<text x="60" y="80" text-anchor="middle" class="terminal-text">'@'</text>
</g>
<line x1="81" y1="76" x2="101" y2="76" class="rail"/>
<polygon points="88,73 94,76 88,79" class="arrow"/>
<g id="21113418">
<rect x="101" y="62" width="90" height="28" class="nonterminal-box"/>
<text x="146" y="80" text-anchor="middle" class="nonterminal-text">IDENTIFIER</text>
</g>
<line x1="191" y1="76" x2="211" y2="76" class="rail"/>
<polygon points="198,73 204,76 198,79" class="arrow"/>
<g id="916267334">
<rect x="211" y="62" width="41" height="28" rx="10" ry="10" class="terminal-box"/>
<text x="231" y="80" text-anchor="middle" class="terminal-text">'('</text>
</g>
<line x1="252" y1="76" x2="272" y2="76" class="rail"/>
<polygon points="259,73 265,76 259,79" class="arrow"/>
<g id="1136943382">
<g id="1542430655">
<rect x="288" y="62" width="160" height="28" class="nonterminal-box"/>
<text x="368" y="80" text-anchor="middle" class="nonterminal-text">AnnotationParameters</text>
</g>
<line x1="272" y1="76" x2="288" y2="76" class="rail"/>
<line x1="448" y1="76" x2="464" y2="76" class="rail"/>
<path d="M272,76 Q280,76 280,68" class="rail" fill="none"/>
<path d="M280,60 Q280,52 288,52" class="rail" fill="none"/>
<line x1="288" y1="52" x2="448" y2="52" class="rail"/>
<path d="M448,52 Q456,52 456,60" class="rail" fill="none"/>
<path d="M456,68 Q456,76 464,76" class="rail" fill="none"/>
</g>
<line x1="464" y1="76" x2="484" y2="76" class="rail"/>
<polygon points="471,73 477,76 471,79" class="arrow"/>
<g id="1396970334">
<rect x="484" y="62" width="41" height="28" rx="10" ry="10" class="terminal-box"/>
<text x="504" y="80" text-anchor="middle" class="terminal-text">')'</text>
</g>
</g>
<line x1="525" y1="76" x2="533" y2="76" class="rail"/>
<circle cx="539" cy="76" r="6" class="end-circle-outer"/>
<circle cx="539" cy="76" r="3" class="end-circle-inner"/>
</svg>
