<svg xmlns="http://www.w3.org/2000/svg" width="671" height="92">
<style>
  .rail { stroke: #333; stroke-width: 2; fill: none; }
  .arrow { stroke: #333; stroke-width: 2; fill: none; }
  .terminal-box { fill: #e8f5e9; stroke: #2e7d32; stroke-width: 2; }
  .terminal-text { font-family: monospace; font-size: 12px; fill: #1b5e20; }
  .nonterminal-box { fill: #e3f2fd; stroke: #1565c0; stroke-width: 2; }
  .nonterminal-text { font-family: sans-serif; font-size: 12px; fill: #0d47a1; }
  .start-circle { fill: #333; stroke: none; }
  .end-circle-outer { fill: none; stroke: #333; stroke-width: 2; }
  .end-circle-inner { fill: #333; stroke: none; }
  rect, g { transition: all 0.3s; }
</style>
<text x="20" y="38" font-size="13" fill="#555" font-family="sans-serif">StartsWithFunction</text>
<circle cx="24" cy="58" r="4" class="start-circle"/>
<line x1="28" y1="58" x2="40" y2="58" class="rail"/>
<g id="1967624519">
<g id="287896198">
<rect x="40" y="44" width="104" height="28" rx="10" ry="10" class="terminal-box"/>
<text x="92" y="62" text-anchor="middle" class="terminal-text">'startsWith'</text>
</g>
<line x1="144" y1="58" x2="164" y2="58" class="rail"/>
<polygon points="151,55 157,58 151,61" class="arrow"/>
<g id="1908422909">
<rect x="164" y="44" width="41" height="28" rx="10" ry="10" class="terminal-box"/>
<text x="184" y="62" text-anchor="middle" class="terminal-text">'('</text>
</g>
<line x1="205" y1="58" x2="225" y2="58" class="rail"/>
<polygon points="212,55 218,58 212,61" class="arrow"/>
<g id="509217327">
<rect x="225" y="44" width="132" height="28" class="nonterminal-box"/>
<text x="291" y="62" text-anchor="middle" class="nonterminal-text">StringExpression</text>
</g>
<line x1="357" y1="58" x2="377" y2="58" class="rail"/>
<polygon points="364,55 370,58 364,61" class="arrow"/>
<g id="496979150">
<rect x="377" y="44" width="41" height="28" rx="10" ry="10" class="terminal-box"/>
<text x="397" y="62" text-anchor="middle" class="terminal-text">','</text>
</g>
<line x1="418" y1="58" x2="438" y2="58" class="rail"/>
<polygon points="425,55 431,58 425,61" class="arrow"/>
<g id="1274360121">
<rect x="438" y="44" width="132" height="28" class="nonterminal-box"/>
<text x="504" y="62" text-anchor="middle" class="nonterminal-text">StringExpression</text>
</g>
<line x1="570" y1="58" x2="590" y2="58" class="rail"/>
<polygon points="577,55 583,58 577,61" class="arrow"/>
<g id="998440810">
<rect x="590" y="44" width="41" height="28" rx="10" ry="10" class="terminal-box"/>
<text x="610" y="62" text-anchor="middle" class="terminal-text">')'</text>
</g>
</g>
<line x1="631" y1="58" x2="639" y2="58" class="rail"/>
<circle cx="645" cy="58" r="6" class="end-circle-outer"/>
<circle cx="645" cy="58" r="3" class="end-circle-inner"/>
</svg>
