<svg xmlns="http://www.w3.org/2000/svg" width="909" height="358">
<style>
  .rail { stroke: #333; stroke-width: 2; fill: none; }
  .arrow { stroke: #333; stroke-width: 2; fill: none; }
  .terminal-box { fill: #e8f5e9; stroke: #2e7d32; stroke-width: 2; }
  .terminal-text { font-family: monospace; font-size: 12px; fill: #1b5e20; }
  .nonterminal-box { fill: #e3f2fd; stroke: #1565c0; stroke-width: 2; }
  .nonterminal-text { font-family: sans-serif; font-size: 12px; fill: #0d47a1; }
  .start-circle { fill: #333; stroke: none; }
  .end-circle-outer { fill: none; stroke: #333; stroke-width: 2; }
  .end-circle-inner { fill: #333; stroke: none; }
  rect, g { transition: all 0.3s; }
</style>
<text x="20" y="38" font-size="13" fill="#555" font-family="sans-serif">SliceBaseExpression</text>
<circle cx="24" cy="58" r="4" class="start-circle"/>
<line x1="28" y1="58" x2="40" y2="58" class="rail"/>
<g id="320577311">
<g id="360427286">
<g id="1518241326">
<rect x="56" y="44" width="139" height="28" class="nonterminal-box"/>
<text x="125" y="62" text-anchor="middle" class="nonterminal-text">SliceBaseReceiver</text>
</g>
<line x1="195" y1="58" x2="215" y2="58" class="rail"/>
<polygon points="202,55 208,58 202,61" class="arrow"/>
<g id="675157930">
<rect x="215" y="44" width="41" height="28" rx="10" ry="10" class="terminal-box"/>
<text x="235" y="62" text-anchor="middle" class="terminal-text">'['</text>
</g>
<line x1="256" y1="58" x2="276" y2="58" class="rail"/>
<polygon points="263,55 269,58 263,61" class="arrow"/>
<g id="1322262356">
<rect x="276" y="44" width="125" height="28" class="nonterminal-box"/>
<text x="338" y="62" text-anchor="middle" class="nonterminal-text">SliceStartIndex</text>
</g>
<line x1="401" y1="58" x2="421" y2="58" class="rail"/>
<polygon points="408,55 414,58 408,61" class="arrow"/>
<g id="237445795">
<rect x="421" y="44" width="41" height="28" rx="10" ry="10" class="terminal-box"/>
<text x="441" y="62" text-anchor="middle" class="terminal-text">':'</text>
</g>
<line x1="462" y1="58" x2="482" y2="58" class="rail"/>
<polygon points="469,55 475,58 469,61" class="arrow"/>
<g id="549886655">
<rect x="482" y="44" width="111" height="28" class="nonterminal-box"/>
<text x="537" y="62" text-anchor="middle" class="nonterminal-text">SliceEndIndex</text>
</g>
<line x1="593" y1="58" x2="613" y2="58" class="rail"/>
<polygon points="600,55 606,58 600,61" class="arrow"/>
<g id="2023574090">
<rect x="613" y="44" width="41" height="28" rx="10" ry="10" class="terminal-box"/>
<text x="633" y="62" text-anchor="middle" class="terminal-text">':'</text>
</g>
<line x1="654" y1="58" x2="674" y2="58" class="rail"/>
<polygon points="661,55 667,58 661,61" class="arrow"/>
<g id="922341554">
<rect x="674" y="44" width="118" height="28" class="nonterminal-box"/>
<text x="733" y="62" text-anchor="middle" class="nonterminal-text">SliceStepIndex</text>
</g>
<line x1="792" y1="58" x2="812" y2="58" class="rail"/>
<polygon points="799,55 805,58 799,61" class="arrow"/>
<g id="33349364">
<rect x="812" y="44" width="41" height="28" rx="10" ry="10" class="terminal-box"/>
<text x="832" y="62" text-anchor="middle" class="terminal-text">']'</text>
</g>
</g>
<line x1="56" y1="58" x2="56" y2="58" class="rail"/>
<line x1="853" y1="58" x2="853" y2="58" class="rail"/>
<line x1="40" y1="58" x2="56" y2="58" class="rail"/>
<line x1="853" y1="58" x2="869" y2="58" class="rail"/>
<g id="1617646097">
<g id="119957737">
<rect x="155" y="82" width="139" height="28" class="nonterminal-box"/>
<text x="224" y="100" text-anchor="middle" class="nonterminal-text">SliceBaseReceiver</text>
</g>
<line x1="294" y1="96" x2="314" y2="96" class="rail"/>
<polygon points="301,93 307,96 301,99" class="arrow"/>
<g id="2141345023">
<rect x="314" y="82" width="41" height="28" rx="10" ry="10" class="terminal-box"/>
<text x="334" y="100" text-anchor="middle" class="terminal-text">'['</text>
</g>
<line x1="355" y1="96" x2="375" y2="96" class="rail"/>
<polygon points="362,93 368,96 362,99" class="arrow"/>
<g id="407780993">
<rect x="375" y="82" width="125" height="28" class="nonterminal-box"/>
<text x="437" y="100" text-anchor="middle" class="nonterminal-text">SliceStartIndex</text>
</g>
<line x1="500" y1="96" x2="520" y2="96" class="rail"/>
<polygon points="507,93 513,96 507,99" class="arrow"/>
<g id="1342513537">
<rect x="520" y="82" width="41" height="28" rx="10" ry="10" class="terminal-box"/>
<text x="540" y="100" text-anchor="middle" class="terminal-text">':'</text>
</g>
<line x1="561" y1="96" x2="581" y2="96" class="rail"/>
<polygon points="568,93 574,96 568,99" class="arrow"/>
<g id="1682991688">
<rect x="581" y="82" width="111" height="28" class="nonterminal-box"/>
<text x="636" y="100" text-anchor="middle" class="nonterminal-text">SliceEndIndex</text>
</g>
<line x1="692" y1="96" x2="712" y2="96" class="rail"/>
<polygon points="699,93 705,96 699,99" class="arrow"/>
<g id="163106705">
<rect x="712" y="82" width="41" height="28" rx="10" ry="10" class="terminal-box"/>
<text x="732" y="100" text-anchor="middle" class="terminal-text">']'</text>
</g>
</g>
<line x1="56" y1="96" x2="155" y2="96" class="rail"/>
<line x1="753" y1="96" x2="853" y2="96" class="rail"/>
<path d="M40,58 Q48,58 48,66" class="rail" fill="none"/>
<path d="M48,88 Q48,96 56,96" class="rail" fill="none"/>
<path d="M853,96 Q861,96 861,88" class="rail" fill="none"/>
<path d="M861,66 Q861,58 869,58" class="rail" fill="none"/>
<g id="1980274720">
<g id="421228212">
<rect x="121" y="120" width="139" height="28" class="nonterminal-box"/>
<text x="190" y="138" text-anchor="middle" class="nonterminal-text">SliceBaseReceiver</text>
</g>
<line x1="260" y1="134" x2="280" y2="134" class="rail"/>
<polygon points="267,131 273,134 267,137" class="arrow"/>
<g id="2130597365">
<rect x="280" y="120" width="41" height="28" rx="10" ry="10" class="terminal-box"/>
<text x="300" y="138" text-anchor="middle" class="terminal-text">'['</text>
</g>
<line x1="321" y1="134" x2="341" y2="134" class="rail"/>
<polygon points="328,131 334,134 328,137" class="arrow"/>
<g id="829807100">
<rect x="341" y="120" width="125" height="28" class="nonterminal-box"/>
<text x="403" y="138" text-anchor="middle" class="nonterminal-text">SliceStartIndex</text>
</g>
<line x1="466" y1="134" x2="486" y2="134" class="rail"/>
<polygon points="473,131 479,134 473,137" class="arrow"/>
<g id="188022297">
<rect x="486" y="120" width="41" height="28" rx="10" ry="10" class="terminal-box"/>
<text x="506" y="138" text-anchor="middle" class="terminal-text">':'</text>
</g>
<line x1="527" y1="134" x2="547" y2="134" class="rail"/>
<polygon points="534,131 540,134 534,137" class="arrow"/>
<g id="1226329861">
<rect x="547" y="120" width="41" height="28" rx="10" ry="10" class="terminal-box"/>
<text x="567" y="138" text-anchor="middle" class="terminal-text">':'</text>
</g>
<line x1="588" y1="134" x2="608" y2="134" class="rail"/>
<polygon points="595,131 601,134 595,137" class="arrow"/>
<g id="1170602542">
<rect x="608" y="120" width="118" height="28" class="nonterminal-box"/>
<text x="667" y="138" text-anchor="middle" class="nonterminal-text">SliceStepIndex</text>
</g>
<line x1="726" y1="134" x2="746" y2="134" class="rail"/>
<polygon points="733,131 739,134 733,137" class="arrow"/>
<g id="1524658515">
<rect x="746" y="120" width="41" height="28" rx="10" ry="10" class="terminal-box"/>
<text x="766" y="138" text-anchor="middle" class="terminal-text">']'</text>
</g>
</g>
<line x1="56" y1="134" x2="121" y2="134" class="rail"/>
<line x1="787" y1="134" x2="853" y2="134" class="rail"/>
<path d="M40,58 Q48,58 48,66" class="rail" fill="none"/>
<path d="M48,126 Q48,134 56,134" class="rail" fill="none"/>
<path d="M853,134 Q861,134 861,126" class="rail" fill="none"/>
<path d="M861,66 Q861,58 869,58" class="rail" fill="none"/>
<g id="1648190023">
<g id="2103673219">
<rect x="221" y="158" width="139" height="28" class="nonterminal-box"/>
<text x="290" y="176" text-anchor="middle" class="nonterminal-text">SliceBaseReceiver</text>
</g>
<line x1="360" y1="172" x2="380" y2="172" class="rail"/>
<polygon points="367,169 373,172 367,175" class="arrow"/>
<g id="387776651">
<rect x="380" y="158" width="41" height="28" rx="10" ry="10" class="terminal-box"/>
<text x="400" y="176" text-anchor="middle" class="terminal-text">'['</text>
</g>
<line x1="421" y1="172" x2="441" y2="172" class="rail"/>
<polygon points="428,169 434,172 428,175" class="arrow"/>
<g id="1320063442">
<rect x="441" y="158" width="125" height="28" class="nonterminal-box"/>
<text x="503" y="176" text-anchor="middle" class="nonterminal-text">SliceStartIndex</text>
</g>
<line x1="566" y1="172" x2="586" y2="172" class="rail"/>
<polygon points="573,169 579,172 573,175" class="arrow"/>
<g id="2094385599">
<rect x="586" y="158" width="41" height="28" rx="10" ry="10" class="terminal-box"/>
<text x="606" y="176" text-anchor="middle" class="terminal-text">':'</text>
</g>
<line x1="627" y1="172" x2="647" y2="172" class="rail"/>
<polygon points="634,169 640,172 634,175" class="arrow"/>
<g id="492511295">
<rect x="647" y="158" width="41" height="28" rx="10" ry="10" class="terminal-box"/>
<text x="667" y="176" text-anchor="middle" class="terminal-text">']'</text>
</g>
</g>
<line x1="56" y1="172" x2="221" y2="172" class="rail"/>
<line x1="688" y1="172" x2="853" y2="172" class="rail"/>
<path d="M40,58 Q48,58 48,66" class="rail" fill="none"/>
<path d="M48,164 Q48,172 56,172" class="rail" fill="none"/>
<path d="M853,172 Q861,172 861,164" class="rail" fill="none"/>
<path d="M861,66 Q861,58 869,58" class="rail" fill="none"/>
<g id="2054560898">
<g id="1478971347">
<rect x="128" y="196" width="139" height="28" class="nonterminal-box"/>
<text x="197" y="214" text-anchor="middle" class="nonterminal-text">SliceBaseReceiver</text>
</g>
<line x1="267" y1="210" x2="287" y2="210" class="rail"/>
<polygon points="274,207 280,210 274,213" class="arrow"/>
<g id="183364953">
<rect x="287" y="196" width="41" height="28" rx="10" ry="10" class="terminal-box"/>
<text x="307" y="214" text-anchor="middle" class="terminal-text">'['</text>
</g>
<line x1="328" y1="210" x2="348" y2="210" class="rail"/>
<polygon points="335,207 341,210 335,213" class="arrow"/>
<g id="1316187875">
<rect x="348" y="196" width="41" height="28" rx="10" ry="10" class="terminal-box"/>
<text x="368" y="214" text-anchor="middle" class="terminal-text">':'</text>
</g>
<line x1="389" y1="210" x2="409" y2="210" class="rail"/>
<polygon points="396,207 402,210 396,213" class="arrow"/>
<g id="1205142064">
<rect x="409" y="196" width="111" height="28" class="nonterminal-box"/>
<text x="464" y="214" text-anchor="middle" class="nonterminal-text">SliceEndIndex</text>
</g>
<line x1="520" y1="210" x2="540" y2="210" class="rail"/>
<polygon points="527,207 533,210 527,213" class="arrow"/>
<g id="636388558">
<rect x="540" y="196" width="41" height="28" rx="10" ry="10" class="terminal-box"/>
<text x="560" y="214" text-anchor="middle" class="terminal-text">':'</text>
</g>
<line x1="581" y1="210" x2="601" y2="210" class="rail"/>
<polygon points="588,207 594,210 588,213" class="arrow"/>
<g id="1074536975">
<rect x="601" y="196" width="118" height="28" class="nonterminal-box"/>
<text x="660" y="214" text-anchor="middle" class="nonterminal-text">SliceStepIndex</text>
</g>
<line x1="719" y1="210" x2="739" y2="210" class="rail"/>
<polygon points="726,207 732,210 726,213" class="arrow"/>
<g id="358439067">
<rect x="739" y="196" width="41" height="28" rx="10" ry="10" class="terminal-box"/>
<text x="759" y="214" text-anchor="middle" class="terminal-text">']'</text>
</g>
</g>
<line x1="56" y1="210" x2="128" y2="210" class="rail"/>
<line x1="780" y1="210" x2="853" y2="210" class="rail"/>
<path d="M40,58 Q48,58 48,66" class="rail" fill="none"/>
<path d="M48,202 Q48,210 56,210" class="rail" fill="none"/>
<path d="M853,210 Q861,210 861,202" class="rail" fill="none"/>
<path d="M861,66 Q861,58 869,58" class="rail" fill="none"/>
<g id="1946376644">
<g id="737099766">
<rect x="228" y="234" width="139" height="28" class="nonterminal-box"/>
<text x="297" y="252" text-anchor="middle" class="nonterminal-text">SliceBaseReceiver</text>
</g>
<line x1="367" y1="248" x2="387" y2="248" class="rail"/>
<polygon points="374,245 380,248 374,251" class="arrow"/>
<g id="181562590">
<rect x="387" y="234" width="41" height="28" rx="10" ry="10" class="terminal-box"/>
<text x="407" y="252" text-anchor="middle" class="terminal-text">'['</text>
</g>
<line x1="428" y1="248" x2="448" y2="248" class="rail"/>
<polygon points="435,245 441,248 435,251" class="arrow"/>
<g id="1974756511">
<rect x="448" y="234" width="41" height="28" rx="10" ry="10" class="terminal-box"/>
<text x="468" y="252" text-anchor="middle" class="terminal-text">':'</text>
</g>
<line x1="489" y1="248" x2="509" y2="248" class="rail"/>
<polygon points="496,245 502,248 496,251" class="arrow"/>
<g id="1064105127">
<rect x="509" y="234" width="111" height="28" class="nonterminal-box"/>
<text x="564" y="252" text-anchor="middle" class="nonterminal-text">SliceEndIndex</text>
</g>
<line x1="620" y1="248" x2="640" y2="248" class="rail"/>
<polygon points="627,245 633,248 627,251" class="arrow"/>
<g id="1840147507">
<rect x="640" y="234" width="41" height="28" rx="10" ry="10" class="terminal-box"/>
<text x="660" y="252" text-anchor="middle" class="terminal-text">']'</text>
</g>
</g>
<line x1="56" y1="248" x2="228" y2="248" class="rail"/>
<line x1="681" y1="248" x2="853" y2="248" class="rail"/>
<path d="M40,58 Q48,58 48,66" class="rail" fill="none"/>
<path d="M48,240 Q48,248 56,248" class="rail" fill="none"/>
<path d="M853,248 Q861,248 861,240" class="rail" fill="none"/>
<path d="M861,66 Q861,58 869,58" class="rail" fill="none"/>
<g id="357796350">
<g id="574966599">
<rect x="194" y="272" width="139" height="28" class="nonterminal-box"/>
<text x="263" y="290" text-anchor="middle" class="nonterminal-text">SliceBaseReceiver</text>
</g>
<line x1="333" y1="286" x2="353" y2="286" class="rail"/>
<polygon points="340,283 346,286 340,289" class="arrow"/>
<g id="2060733028">
<rect x="353" y="272" width="41" height="28" rx="10" ry="10" class="terminal-box"/>
<text x="373" y="290" text-anchor="middle" class="terminal-text">'['</text>
</g>
<line x1="394" y1="286" x2="414" y2="286" class="rail"/>
<polygon points="401,283 407,286 401,289" class="arrow"/>
<g id="1686470393">
<rect x="414" y="272" width="41" height="28" rx="10" ry="10" class="terminal-box"/>
<text x="434" y="290" text-anchor="middle" class="terminal-text">':'</text>
</g>
<line x1="455" y1="286" x2="475" y2="286" class="rail"/>
<polygon points="462,283 468,286 462,289" class="arrow"/>
<g id="178706132">
<rect x="475" y="272" width="41" height="28" rx="10" ry="10" class="terminal-box"/>
<text x="495" y="290" text-anchor="middle" class="terminal-text">':'</text>
</g>
<line x1="516" y1="286" x2="536" y2="286" class="rail"/>
<polygon points="523,283 529,286 523,289" class="arrow"/>
<g id="45202356">
<rect x="536" y="272" width="118" height="28" class="nonterminal-box"/>
<text x="595" y="290" text-anchor="middle" class="nonterminal-text">SliceStepIndex</text>
</g>
<line x1="654" y1="286" x2="674" y2="286" class="rail"/>
<polygon points="661,283 667,286 661,289" class="arrow"/>
<g id="1525569260">
<rect x="674" y="272" width="41" height="28" rx="10" ry="10" class="terminal-box"/>
<text x="694" y="290" text-anchor="middle" class="terminal-text">']'</text>
</g>
</g>
<line x1="56" y1="286" x2="194" y2="286" class="rail"/>
<line x1="715" y1="286" x2="853" y2="286" class="rail"/>
<path d="M40,58 Q48,58 48,66" class="rail" fill="none"/>
<path d="M48,278 Q48,286 56,286" class="rail" fill="none"/>
<path d="M853,286 Q861,286 861,278" class="rail" fill="none"/>
<path d="M861,66 Q861,58 869,58" class="rail" fill="none"/>
<g id="1363074401">
<g id="696249846">
<rect x="293" y="310" width="139" height="28" class="nonterminal-box"/>
<text x="362" y="328" text-anchor="middle" class="nonterminal-text">SliceBaseReceiver</text>
</g>
<line x1="432" y1="324" x2="452" y2="324" class="rail"/>
<polygon points="439,321 445,324 439,327" class="arrow"/>
<g id="647798646">
<rect x="452" y="310" width="41" height="28" rx="10" ry="10" class="terminal-box"/>
<text x="472" y="328" text-anchor="middle" class="terminal-text">'['</text>
</g>
<line x1="493" y1="324" x2="513" y2="324" class="rail"/>
<polygon points="500,321 506,324 500,327" class="arrow"/>
<g id="242082943">
<rect x="513" y="310" width="41" height="28" rx="10" ry="10" class="terminal-box"/>
<text x="533" y="328" text-anchor="middle" class="terminal-text">':'</text>
</g>
<line x1="554" y1="324" x2="574" y2="324" class="rail"/>
<polygon points="561,321 567,324 561,327" class="arrow"/>
<g id="133726261">
<rect x="574" y="310" width="41" height="28" rx="10" ry="10" class="terminal-box"/>
<text x="594" y="328" text-anchor="middle" class="terminal-text">']'</text>
</g>
</g>
<line x1="56" y1="324" x2="293" y2="324" class="rail"/>
<line x1="615" y1="324" x2="853" y2="324" class="rail"/>
<path d="M40,58 Q48,58 48,66" class="rail" fill="none"/>
<path d="M48,316 Q48,324 56,324" class="rail" fill="none"/>
<path d="M853,324 Q861,324 861,316" class="rail" fill="none"/>
<path d="M861,66 Q861,58 869,58" class="rail" fill="none"/>
</g>
<line x1="869" y1="58" x2="877" y2="58" class="rail"/>
<circle cx="883" cy="58" r="6" class="end-circle-outer"/>
<circle cx="883" cy="58" r="3" class="end-circle-inner"/>
</svg>
