<svg xmlns="http://www.w3.org/2000/svg" xmlns:xlink="http://www.w3.org/1999/xlink" width="511" height="112">
<style>
  svg { background: white; font-family: sans-serif; }
  .rail { stroke: #333; stroke-width: 2; fill: none; }
  .arrow { fill: #333; }
  .terminal-box { fill: #E8F4FD; stroke: #2196F3; stroke-width: 2; rx: 10; ry: 10; }
  .nonterminal-box { fill: #E8F5E9; stroke: #4CAF50; stroke-width: 2; }
  .nonterminal-box:hover { fill: #C8E6C9; stroke: #2E7D32; cursor: pointer; }
  .terminal-text { font-family: monospace; font-size: 14px; fill: #0D47A1; }
  .nonterminal-text { font-family: sans-serif; font-size: 14px; fill: #1B5E20; }
  a:hover .nonterminal-text { fill: #1B5E20; text-decoration: underline; }
  .start-circle { fill: #333; stroke: none; }
  .end-circle-outer { fill: #333; stroke: none; }
  .end-circle-inner { fill: white; stroke: none; }
</style>
<text x="20" y="38" font-size="13" fill="#555" font-family="sans-serif">MethodParameter</text>
<circle cx="26" cy="79" r="6" class="start-circle"/>
<line x1="32" y1="79" x2="50" y2="79" class="rail"/>
<rect x="50" y="66" width="47" height="26" rx="10" ry="10" class="terminal-box"/>
<text x="73" y="84" text-anchor="middle" class="terminal-text">'$'</text>
<line x1="97" y1="79" x2="113" y2="79" class="rail"/>
<polygon points="102,76 108,79 102,82" class="arrow"/>
<a xlink:href="#IDENTIFIER" target="_top">
<rect x="113" y="66" width="110" height="26" class="nonterminal-box"/>
<text x="168" y="84" text-anchor="middle" class="nonterminal-text">IDENTIFIER</text>
</a>
<line x1="223" y1="79" x2="239" y2="79" class="rail"/>
<polygon points="228,76 234,79 228,82" class="arrow"/>
<rect x="259" y="66" width="56" height="26" rx="10" ry="10" class="terminal-box"/>
<text x="287" y="84" text-anchor="middle" class="terminal-text">'as'</text>
<line x1="315" y1="79" x2="331" y2="79" class="rail"/>
<polygon points="320,76 326,79 320,82" class="arrow"/>
<a xlink:href="#ReturnType" target="_top">
<rect x="331" y="66" width="110" height="26" class="nonterminal-box"/>
<text x="386" y="84" text-anchor="middle" class="nonterminal-text">ReturnType</text>
</a>
<line x1="239" y1="79" x2="259" y2="79" class="rail"/>
<line x1="441" y1="79" x2="461" y2="79" class="rail"/>
<path d="M 239,79 Q 249,79 249,69" class="rail"/>
<line x1="249" y1="69" x2="249" y2="64" class="rail"/>
<path d="M 249,64 Q 249,54 259,54" class="rail"/>
<line x1="259" y1="54" x2="441" y2="54" class="rail"/>
<path d="M 441,54 Q 451,54 451,64" class="rail"/>
<line x1="451" y1="64" x2="451" y2="69" class="rail"/>
<path d="M 451,69 Q 451,79 461,79" class="rail"/>
<line x1="461" y1="79" x2="475" y2="79" class="rail"/>
<circle cx="483" cy="79" r="8" class="end-circle-outer"/>
<circle cx="483" cy="79" r="5" class="end-circle-inner"/>
</svg>
