<svg xmlns="http://www.w3.org/2000/svg" width="897" height="120">
<style>
  .rail { stroke: #333; stroke-width: 2; fill: none; }
  .arrow { stroke: #333; stroke-width: 2; fill: none; }
  .terminal-box { fill: #e8f5e9; stroke: #2e7d32; stroke-width: 2; }
  .terminal-text { font-family: monospace; font-size: 12px; fill: #1b5e20; }
  .nonterminal-box { fill: #e3f2fd; stroke: #1565c0; stroke-width: 2; }
  .nonterminal-text { font-family: sans-serif; font-size: 12px; fill: #0d47a1; }
  .start-circle { fill: #333; stroke: none; }
  .end-circle-outer { fill: none; stroke: #333; stroke-width: 2; }
  .end-circle-inner { fill: #333; stroke: none; }
  rect, g { transition: all 0.3s; }
</style>
<text x="20" y="38" font-size="13" fill="#555" font-family="sans-serif">ContainsDotMethod</text>
<circle cx="24" cy="58" r="4" class="start-circle"/>
<line x1="28" y1="58" x2="40" y2="58" class="rail"/>
<g id="rr-9">
<g id="rr-0">
<rect x="40" y="44" width="181" height="28" class="nonterminal-box"/>
<text x="130" y="62" text-anchor="middle" class="nonterminal-text">StringPredicateReceiver</text>
</g>
<line x1="221" y1="58" x2="241" y2="58" class="rail"/>
<polygon points="228,55 234,58 228,61" class="arrow"/>
<g id="rr-1">
<rect x="241" y="44" width="97" height="28" rx="10" ry="10" class="terminal-box"/>
<text x="289" y="62" text-anchor="middle" class="terminal-text">'.contains'</text>
</g>
<line x1="338" y1="58" x2="358" y2="58" class="rail"/>
<polygon points="345,55 351,58 345,61" class="arrow"/>
<g id="rr-2">
<rect x="358" y="44" width="41" height="28" rx="10" ry="10" class="terminal-box"/>
<text x="378" y="62" text-anchor="middle" class="terminal-text">'('</text>
</g>
<line x1="399" y1="58" x2="419" y2="58" class="rail"/>
<polygon points="406,55 412,58 406,61" class="arrow"/>
<g id="rr-3">
<rect x="419" y="44" width="132" height="28" class="nonterminal-box"/>
<text x="485" y="62" text-anchor="middle" class="nonterminal-text">StringExpression</text>
</g>
<line x1="551" y1="58" x2="571" y2="58" class="rail"/>
<polygon points="558,55 564,58 558,61" class="arrow"/>
<g id="rr-7">
<g id="rr-6">
<g id="rr-4">
<rect x="587" y="68" width="41" height="28" rx="10" ry="10" class="terminal-box"/>
<text x="607" y="86" text-anchor="middle" class="terminal-text">','</text>
</g>
<line x1="628" y1="82" x2="648" y2="82" class="rail"/>
<polygon points="635,79 641,82 635,85" class="arrow"/>
<g id="rr-5">
<rect x="648" y="68" width="132" height="28" class="nonterminal-box"/>
<text x="714" y="86" text-anchor="middle" class="nonterminal-text">StringExpression</text>
</g>
</g>
<line x1="571" y1="58" x2="796" y2="58" class="rail"/>
<path d="M587,58 Q579,58 579,66" class="rail" fill="none"/>
<path d="M579,74 Q579,82 571,82" class="rail" fill="none"/>
<line x1="571" y1="82" x2="587" y2="82" class="rail"/>
<line x1="780" y1="82" x2="796" y2="82" class="rail"/>
<path d="M796,82 Q788,82 788,74" class="rail" fill="none"/>
<path d="M788,66 Q788,58 780,58" class="rail" fill="none"/>
<path d="M788,82 Q796,82 796,90" class="rail" fill="none"/>
<path d="M796,98 Q796,106 788,106" class="rail" fill="none"/>
<line x1="579" y1="106" x2="788" y2="106" class="rail"/>
<polygon points="689,103 683,106 689,109" class="arrow"/>
<path d="M579,106 Q571,106 571,98" class="rail" fill="none"/>
<path d="M571,90 Q571,82 579,82" class="rail" fill="none"/>
</g>
<line x1="796" y1="58" x2="816" y2="58" class="rail"/>
<polygon points="803,55 809,58 803,61" class="arrow"/>
<g id="rr-8">
<rect x="816" y="44" width="41" height="28" rx="10" ry="10" class="terminal-box"/>
<text x="836" y="62" text-anchor="middle" class="terminal-text">')'</text>
</g>
</g>
<line x1="857" y1="58" x2="865" y2="58" class="rail"/>
<circle cx="871" cy="58" r="6" class="end-circle-outer"/>
<circle cx="871" cy="58" r="3" class="end-circle-inner"/>
</svg>
