<svg xmlns="http://www.w3.org/2000/svg" width="373" height="434">
<style>
  .rail { stroke: #333; stroke-width: 2; fill: none; }
  .arrow { stroke: #333; stroke-width: 2; fill: none; }
  .terminal-box { fill: #e8f5e9; stroke: #2e7d32; stroke-width: 2; }
  .terminal-text { font-family: monospace; font-size: 12px; fill: #1b5e20; }
  .nonterminal-box { fill: #e3f2fd; stroke: #1565c0; stroke-width: 2; }
  .nonterminal-text { font-family: sans-serif; font-size: 12px; fill: #0d47a1; }
  .start-circle { fill: #333; stroke: none; }
  .end-circle-outer { fill: none; stroke: #333; stroke-width: 2; }
  .end-circle-inner { fill: #333; stroke: none; }
  rect, g { transition: all 0.3s; }
</style>
<text x="20" y="38" font-size="13" fill="#555" font-family="sans-serif">BooleanFactor</text>
<circle cx="24" cy="58" r="4" class="start-circle"/>
<line x1="28" y1="58" x2="40" y2="58" class="rail"/>
<g id="1869415688">
<g id="1590030179">
<rect x="131" y="44" width="111" height="28" class="nonterminal-box"/>
<text x="186" y="62" text-anchor="middle" class="nonterminal-text">NotExpression</text>
</g>
<line x1="56" y1="58" x2="131" y2="58" class="rail"/>
<line x1="242" y1="58" x2="317" y2="58" class="rail"/>
<line x1="40" y1="58" x2="56" y2="58" class="rail"/>
<line x1="317" y1="58" x2="333" y2="58" class="rail"/>
<g id="110121302">
<rect x="99" y="82" width="174" height="28" class="nonterminal-box"/>
<text x="186" y="100" text-anchor="middle" class="nonterminal-text">BooleanMatchExpression</text>
</g>
<line x1="56" y1="96" x2="99" y2="96" class="rail"/>
<line x1="273" y1="96" x2="317" y2="96" class="rail"/>
<path d="M40,58 Q48,58 48,66" class="rail" fill="none"/>
<path d="M48,88 Q48,96 56,96" class="rail" fill="none"/>
<path d="M317,96 Q325,96 325,88" class="rail" fill="none"/>
<path d="M325,66 Q325,58 333,58" class="rail" fill="none"/>
<g id="2045613262">
<rect x="89" y="120" width="195" height="28" class="nonterminal-box"/>
<text x="186" y="138" text-anchor="middle" class="nonterminal-text">ExternalBooleanInvocation</text>
</g>
<line x1="56" y1="134" x2="89" y2="134" class="rail"/>
<line x1="284" y1="134" x2="317" y2="134" class="rail"/>
<path d="M40,58 Q48,58 48,66" class="rail" fill="none"/>
<path d="M48,126 Q48,134 56,134" class="rail" fill="none"/>
<path d="M317,134 Q325,134 325,126" class="rail" fill="none"/>
<path d="M325,66 Q325,58 333,58" class="rail" fill="none"/>
<g id="5889745">
<rect x="85" y="158" width="202" height="28" class="nonterminal-box"/>
<text x="186" y="176" text-anchor="middle" class="nonterminal-text">StringComparisonExpression</text>
</g>
<line x1="56" y1="172" x2="85" y2="172" class="rail"/>
<line x1="287" y1="172" x2="317" y2="172" class="rail"/>
<path d="M40,58 Q48,58 48,66" class="rail" fill="none"/>
<path d="M48,164 Q48,172 56,172" class="rail" fill="none"/>
<path d="M317,172 Q325,172 325,164" class="rail" fill="none"/>
<path d="M325,66 Q325,58 333,58" class="rail" fill="none"/>
<g id="1905690446">
<rect x="106" y="196" width="160" height="28" class="nonterminal-box"/>
<text x="186" y="214" text-anchor="middle" class="nonterminal-text">ComparisonExpression</text>
</g>
<line x1="56" y1="210" x2="106" y2="210" class="rail"/>
<line x1="266" y1="210" x2="317" y2="210" class="rail"/>
<path d="M40,58 Q48,58 48,66" class="rail" fill="none"/>
<path d="M48,202 Q48,210 56,210" class="rail" fill="none"/>
<path d="M317,210 Q325,210 325,202" class="rail" fill="none"/>
<path d="M325,66 Q325,58 333,58" class="rail" fill="none"/>
<g id="1971872459">
<rect x="155" y="234" width="62" height="28" rx="10" ry="10" class="terminal-box"/>
<text x="186" y="252" text-anchor="middle" class="terminal-text">'true'</text>
</g>
<line x1="56" y1="248" x2="155" y2="248" class="rail"/>
<line x1="217" y1="248" x2="317" y2="248" class="rail"/>
<path d="M40,58 Q48,58 48,66" class="rail" fill="none"/>
<path d="M48,240 Q48,248 56,248" class="rail" fill="none"/>
<path d="M317,248 Q325,248 325,240" class="rail" fill="none"/>
<path d="M325,66 Q325,58 333,58" class="rail" fill="none"/>
<g id="1624691536">
<rect x="152" y="272" width="69" height="28" rx="10" ry="10" class="terminal-box"/>
<text x="186" y="290" text-anchor="middle" class="terminal-text">'false'</text>
</g>
<line x1="56" y1="286" x2="152" y2="286" class="rail"/>
<line x1="221" y1="286" x2="317" y2="286" class="rail"/>
<path d="M40,58 Q48,58 48,66" class="rail" fill="none"/>
<path d="M48,278 Q48,286 56,286" class="rail" fill="none"/>
<path d="M317,286 Q325,286 325,278" class="rail" fill="none"/>
<path d="M325,66 Q325,58 333,58" class="rail" fill="none"/>
<g id="775370445">
<rect x="138" y="310" width="97" height="28" class="nonterminal-box"/>
<text x="186" y="328" text-anchor="middle" class="nonterminal-text">VariableRef</text>
</g>
<line x1="56" y1="324" x2="138" y2="324" class="rail"/>
<line x1="235" y1="324" x2="317" y2="324" class="rail"/>
<path d="M40,58 Q48,58 48,66" class="rail" fill="none"/>
<path d="M48,316 Q48,324 56,324" class="rail" fill="none"/>
<path d="M317,324 Q325,324 325,316" class="rail" fill="none"/>
<path d="M325,66 Q325,58 333,58" class="rail" fill="none"/>
<g id="1809742002">
<rect x="120" y="348" width="132" height="28" class="nonterminal-box"/>
<text x="186" y="366" text-anchor="middle" class="nonterminal-text">MethodInvocation</text>
</g>
<line x1="56" y1="362" x2="120" y2="362" class="rail"/>
<line x1="252" y1="362" x2="317" y2="362" class="rail"/>
<path d="M40,58 Q48,58 48,66" class="rail" fill="none"/>
<path d="M48,354 Q48,362 56,362" class="rail" fill="none"/>
<path d="M317,362 Q325,362 325,354" class="rail" fill="none"/>
<path d="M325,66 Q325,58 333,58" class="rail" fill="none"/>
<g id="75103166">
<g id="1576452408">
<rect x="56" y="386" width="41" height="28" rx="10" ry="10" class="terminal-box"/>
<text x="76" y="404" text-anchor="middle" class="terminal-text">'('</text>
</g>
<line x1="97" y1="400" x2="117" y2="400" class="rail"/>
<polygon points="104,397 110,400 104,403" class="arrow"/>
<g id="200070533">
<rect x="117" y="386" width="139" height="28" class="nonterminal-box"/>
<text x="186" y="404" text-anchor="middle" class="nonterminal-text">BooleanExpression</text>
</g>
<line x1="256" y1="400" x2="276" y2="400" class="rail"/>
<polygon points="263,397 269,400 263,403" class="arrow"/>
<g id="477760363">
<rect x="276" y="386" width="41" height="28" rx="10" ry="10" class="terminal-box"/>
<text x="296" y="404" text-anchor="middle" class="terminal-text">')'</text>
</g>
</g>
<line x1="56" y1="400" x2="56" y2="400" class="rail"/>
<line x1="317" y1="400" x2="317" y2="400" class="rail"/>
<path d="M40,58 Q48,58 48,66" class="rail" fill="none"/>
<path d="M48,392 Q48,400 56,400" class="rail" fill="none"/>
<path d="M317,400 Q325,400 325,392" class="rail" fill="none"/>
<path d="M325,66 Q325,58 333,58" class="rail" fill="none"/>
</g>
<line x1="333" y1="58" x2="341" y2="58" class="rail"/>
<circle cx="347" cy="58" r="6" class="end-circle-outer"/>
<circle cx="347" cy="58" r="3" class="end-circle-inner"/>
</svg>
