<svg xmlns="http://www.w3.org/2000/svg" xmlns:xlink="http://www.w3.org/1999/xlink" width="259" height="318">
<style>
  svg { background: white; font-family: sans-serif; }
  .rail { stroke: #333; stroke-width: 2; fill: none; }
  .arrow { fill: #333; }
  .terminal-box { fill: #E8F4FD; stroke: #2196F3; stroke-width: 2; rx: 10; ry: 10; }
  .nonterminal-box { fill: #E8F5E9; stroke: #4CAF50; stroke-width: 2; }
  .nonterminal-box:hover { fill: #C8E6C9; stroke: #2E7D32; cursor: pointer; }
  .terminal-text { font-family: monospace; font-size: 14px; fill: #0D47A1; }
  .nonterminal-text { font-family: sans-serif; font-size: 14px; fill: #1B5E20; }
  a:hover .nonterminal-text { fill: #1B5E20; text-decoration: underline; }
  .start-circle { fill: #333; stroke: none; }
  .end-circle-outer { fill: #333; stroke: none; }
  .end-circle-inner { fill: white; stroke: none; }
</style>
<text x="20" y="38" font-size="13" fill="#555" font-family="sans-serif">DayOfWeek</text>
<circle cx="26" cy="57" r="6" class="start-circle"/>
<line x1="32" y1="57" x2="50" y2="57" class="rail"/>
<rect x="83" y="44" width="92" height="26" rx="10" ry="10" class="terminal-box"/>
<text x="129" y="62" text-anchor="middle" class="terminal-text">'MONDAY'</text>
<line x1="70" y1="57" x2="83" y2="57" class="rail"/>
<line x1="175" y1="57" x2="189" y2="57" class="rail"/>
<line x1="50" y1="57" x2="70" y2="57" class="rail"/>
<line x1="189" y1="57" x2="209" y2="57" class="rail"/>
<rect x="79" y="82" width="101" height="26" rx="10" ry="10" class="terminal-box"/>
<text x="129" y="100" text-anchor="middle" class="terminal-text">'TUESDAY'</text>
<line x1="70" y1="95" x2="79" y2="95" class="rail"/>
<line x1="180" y1="95" x2="189" y2="95" class="rail"/>
<path d="M 50,57 Q 60,57 60,67" class="rail"/>
<line x1="60" y1="67" x2="60" y2="85" class="rail"/>
<path d="M 60,85 Q 60,95 70,95" class="rail"/>
<path d="M 189,95 Q 199,95 199,85" class="rail"/>
<line x1="199" y1="85" x2="199" y2="67" class="rail"/>
<path d="M 199,67 Q 199,57 209,57" class="rail"/>
<rect x="70" y="120" width="119" height="26" rx="10" ry="10" class="terminal-box"/>
<text x="129" y="138" text-anchor="middle" class="terminal-text">'WEDNESDAY'</text>
<path d="M 50,57 Q 60,57 60,67" class="rail"/>
<line x1="60" y1="67" x2="60" y2="123" class="rail"/>
<path d="M 60,123 Q 60,133 70,133" class="rail"/>
<path d="M 189,133 Q 199,133 199,123" class="rail"/>
<line x1="199" y1="123" x2="199" y2="67" class="rail"/>
<path d="M 199,67 Q 199,57 209,57" class="rail"/>
<rect x="74" y="158" width="110" height="26" rx="10" ry="10" class="terminal-box"/>
<text x="129" y="176" text-anchor="middle" class="terminal-text">'THURSDAY'</text>
<line x1="70" y1="171" x2="74" y2="171" class="rail"/>
<line x1="184" y1="171" x2="189" y2="171" class="rail"/>
<path d="M 50,57 Q 60,57 60,67" class="rail"/>
<line x1="60" y1="67" x2="60" y2="161" class="rail"/>
<path d="M 60,161 Q 60,171 70,171" class="rail"/>
<path d="M 189,171 Q 199,171 199,161" class="rail"/>
<line x1="199" y1="161" x2="199" y2="67" class="rail"/>
<path d="M 199,67 Q 199,57 209,57" class="rail"/>
<rect x="83" y="196" width="92" height="26" rx="10" ry="10" class="terminal-box"/>
<text x="129" y="214" text-anchor="middle" class="terminal-text">'FRIDAY'</text>
<line x1="70" y1="209" x2="83" y2="209" class="rail"/>
<line x1="175" y1="209" x2="189" y2="209" class="rail"/>
<path d="M 50,57 Q 60,57 60,67" class="rail"/>
<line x1="60" y1="67" x2="60" y2="199" class="rail"/>
<path d="M 60,199 Q 60,209 70,209" class="rail"/>
<path d="M 189,209 Q 199,209 199,199" class="rail"/>
<line x1="199" y1="199" x2="199" y2="67" class="rail"/>
<path d="M 199,67 Q 199,57 209,57" class="rail"/>
<rect x="74" y="234" width="110" height="26" rx="10" ry="10" class="terminal-box"/>
<text x="129" y="252" text-anchor="middle" class="terminal-text">'SATURDAY'</text>
<line x1="70" y1="247" x2="74" y2="247" class="rail"/>
<line x1="184" y1="247" x2="189" y2="247" class="rail"/>
<path d="M 50,57 Q 60,57 60,67" class="rail"/>
<line x1="60" y1="67" x2="60" y2="237" class="rail"/>
<path d="M 60,237 Q 60,247 70,247" class="rail"/>
<path d="M 189,247 Q 199,247 199,237" class="rail"/>
<line x1="199" y1="237" x2="199" y2="67" class="rail"/>
<path d="M 199,67 Q 199,57 209,57" class="rail"/>
<rect x="83" y="272" width="92" height="26" rx="10" ry="10" class="terminal-box"/>
<text x="129" y="290" text-anchor="middle" class="terminal-text">'SUNDAY'</text>
<line x1="70" y1="285" x2="83" y2="285" class="rail"/>
<line x1="175" y1="285" x2="189" y2="285" class="rail"/>
<path d="M 50,57 Q 60,57 60,67" class="rail"/>
<line x1="60" y1="67" x2="60" y2="275" class="rail"/>
<path d="M 60,275 Q 60,285 70,285" class="rail"/>
<path d="M 189,285 Q 199,285 199,275" class="rail"/>
<line x1="199" y1="275" x2="199" y2="67" class="rail"/>
<path d="M 199,67 Q 199,57 209,57" class="rail"/>
<line x1="209" y1="57" x2="223" y2="57" class="rail"/>
<circle cx="231" cy="57" r="8" class="end-circle-outer"/>
<circle cx="231" cy="57" r="5" class="end-circle-inner"/>
</svg>
