<svg xmlns="http://www.w3.org/2000/svg" width="359" height="110">
<style>
  .rail { stroke: #333; stroke-width: 2; fill: none; }
  .arrow { stroke: #333; stroke-width: 2; fill: none; }
  .terminal-box { fill: #e8f5e9; stroke: #2e7d32; stroke-width: 2; }
  .terminal-text { font-family: monospace; font-size: 12px; fill: #1b5e20; }
  .nonterminal-box { fill: #e3f2fd; stroke: #1565c0; stroke-width: 2; }
  .nonterminal-text { font-family: sans-serif; font-size: 12px; fill: #0d47a1; }
  .start-circle { fill: #333; stroke: none; }
  .end-circle-outer { fill: none; stroke: #333; stroke-width: 2; }
  .end-circle-inner { fill: #333; stroke: none; }
  rect, g { transition: all 0.3s; }
</style>
<text x="20" y="38" font-size="13" fill="#555" font-family="sans-serif">VariableRef</text>
<circle cx="24" cy="76" r="4" class="start-circle"/>
<line x1="28" y1="76" x2="40" y2="76" class="rail"/>
<g id="1172793832">
<g id="1355559161">
<rect x="40" y="62" width="41" height="28" rx="10" ry="10" class="terminal-box"/>
<text x="60" y="80" text-anchor="middle" class="terminal-text">'$'</text>
</g>
<line x1="81" y1="76" x2="101" y2="76" class="rail"/>
<polygon points="88,73 94,76 88,79" class="arrow"/>
<g id="458210344">
<rect x="101" y="62" width="90" height="28" class="nonterminal-box"/>
<text x="146" y="80" text-anchor="middle" class="nonterminal-text">IDENTIFIER</text>
</g>
<line x1="191" y1="76" x2="211" y2="76" class="rail"/>
<polygon points="198,73 204,76 198,79" class="arrow"/>
<g id="1948107882">
<g id="1200826551">
<rect x="227" y="62" width="76" height="28" class="nonterminal-box"/>
<text x="265" y="80" text-anchor="middle" class="nonterminal-text">TypeHint</text>
</g>
<line x1="211" y1="76" x2="227" y2="76" class="rail"/>
<line x1="303" y1="76" x2="319" y2="76" class="rail"/>
<path d="M211,76 Q219,76 219,68" class="rail" fill="none"/>
<path d="M219,60 Q219,52 227,52" class="rail" fill="none"/>
<line x1="227" y1="52" x2="303" y2="52" class="rail"/>
<path d="M303,52 Q311,52 311,60" class="rail" fill="none"/>
<path d="M311,68 Q311,76 319,76" class="rail" fill="none"/>
</g>
</g>
<line x1="319" y1="76" x2="327" y2="76" class="rail"/>
<circle cx="333" cy="76" r="6" class="end-circle-outer"/>
<circle cx="333" cy="76" r="3" class="end-circle-inner"/>
</svg>
