<svg xmlns="http://www.w3.org/2000/svg" width="209" height="320">
<style>
  .rail { stroke: #333; stroke-width: 2; fill: none; }
  .arrow { stroke: #333; stroke-width: 2; fill: none; }
  .terminal-box { fill: #e8f5e9; stroke: #2e7d32; stroke-width: 2; }
  .terminal-text { font-family: monospace; font-size: 12px; fill: #1b5e20; }
  .nonterminal-box { fill: #e3f2fd; stroke: #1565c0; stroke-width: 2; }
  .nonterminal-text { font-family: sans-serif; font-size: 12px; fill: #0d47a1; }
  .start-circle { fill: #333; stroke: none; }
  .end-circle-outer { fill: none; stroke: #333; stroke-width: 2; }
  .end-circle-inner { fill: #333; stroke: none; }
  rect, g { transition: all 0.3s; }
</style>
<text x="20" y="38" font-size="13" fill="#555" font-family="sans-serif">DayOfWeek</text>
<circle cx="24" cy="58" r="4" class="start-circle"/>
<line x1="28" y1="58" x2="40" y2="58" class="rail"/>
<g id="44840797">
<g id="1330759884">
<rect x="66" y="44" width="76" height="28" rx="10" ry="10" class="terminal-box"/>
<text x="104" y="62" text-anchor="middle" class="terminal-text">'MONDAY'</text>
</g>
<line x1="56" y1="58" x2="66" y2="58" class="rail"/>
<line x1="142" y1="58" x2="153" y2="58" class="rail"/>
<line x1="40" y1="58" x2="56" y2="58" class="rail"/>
<line x1="153" y1="58" x2="169" y2="58" class="rail"/>
<g id="1967669096">
<rect x="63" y="82" width="83" height="28" rx="10" ry="10" class="terminal-box"/>
<text x="104" y="100" text-anchor="middle" class="terminal-text">'TUESDAY'</text>
</g>
<line x1="56" y1="96" x2="63" y2="96" class="rail"/>
<line x1="146" y1="96" x2="153" y2="96" class="rail"/>
<path d="M40,58 Q48,58 48,66" class="rail" fill="none"/>
<path d="M48,88 Q48,96 56,96" class="rail" fill="none"/>
<path d="M153,96 Q161,96 161,88" class="rail" fill="none"/>
<path d="M161,66 Q161,58 169,58" class="rail" fill="none"/>
<g id="2018325108">
<rect x="56" y="120" width="97" height="28" rx="10" ry="10" class="terminal-box"/>
<text x="104" y="138" text-anchor="middle" class="terminal-text">'WEDNESDAY'</text>
</g>
<line x1="56" y1="134" x2="56" y2="134" class="rail"/>
<line x1="153" y1="134" x2="153" y2="134" class="rail"/>
<path d="M40,58 Q48,58 48,66" class="rail" fill="none"/>
<path d="M48,126 Q48,134 56,134" class="rail" fill="none"/>
<path d="M153,134 Q161,134 161,126" class="rail" fill="none"/>
<path d="M161,66 Q161,58 169,58" class="rail" fill="none"/>
<g id="172805056">
<rect x="59" y="158" width="90" height="28" rx="10" ry="10" class="terminal-box"/>
<text x="104" y="176" text-anchor="middle" class="terminal-text">'THURSDAY'</text>
</g>
<line x1="56" y1="172" x2="59" y2="172" class="rail"/>
<line x1="149" y1="172" x2="153" y2="172" class="rail"/>
<path d="M40,58 Q48,58 48,66" class="rail" fill="none"/>
<path d="M48,164 Q48,172 56,172" class="rail" fill="none"/>
<path d="M153,172 Q161,172 161,164" class="rail" fill="none"/>
<path d="M161,66 Q161,58 169,58" class="rail" fill="none"/>
<g id="1260025325">
<rect x="66" y="196" width="76" height="28" rx="10" ry="10" class="terminal-box"/>
<text x="104" y="214" text-anchor="middle" class="terminal-text">'FRIDAY'</text>
</g>
<line x1="56" y1="210" x2="66" y2="210" class="rail"/>
<line x1="142" y1="210" x2="153" y2="210" class="rail"/>
<path d="M40,58 Q48,58 48,66" class="rail" fill="none"/>
<path d="M48,202 Q48,210 56,210" class="rail" fill="none"/>
<path d="M153,210 Q161,210 161,202" class="rail" fill="none"/>
<path d="M161,66 Q161,58 169,58" class="rail" fill="none"/>
<g id="2141040793">
<rect x="59" y="234" width="90" height="28" rx="10" ry="10" class="terminal-box"/>
<text x="104" y="252" text-anchor="middle" class="terminal-text">'SATURDAY'</text>
</g>
<line x1="56" y1="248" x2="59" y2="248" class="rail"/>
<line x1="149" y1="248" x2="153" y2="248" class="rail"/>
<path d="M40,58 Q48,58 48,66" class="rail" fill="none"/>
<path d="M48,240 Q48,248 56,248" class="rail" fill="none"/>
<path d="M153,248 Q161,248 161,240" class="rail" fill="none"/>
<path d="M161,66 Q161,58 169,58" class="rail" fill="none"/>
<g id="1859318668">
<rect x="66" y="272" width="76" height="28" rx="10" ry="10" class="terminal-box"/>
<text x="104" y="290" text-anchor="middle" class="terminal-text">'SUNDAY'</text>
</g>
<line x1="56" y1="286" x2="66" y2="286" class="rail"/>
<line x1="142" y1="286" x2="153" y2="286" class="rail"/>
<path d="M40,58 Q48,58 48,66" class="rail" fill="none"/>
<path d="M48,278 Q48,286 56,286" class="rail" fill="none"/>
<path d="M153,286 Q161,286 161,278" class="rail" fill="none"/>
<path d="M161,66 Q161,58 169,58" class="rail" fill="none"/>
</g>
<line x1="169" y1="58" x2="177" y2="58" class="rail"/>
<circle cx="183" cy="58" r="6" class="end-circle-outer"/>
<circle cx="183" cy="58" r="3" class="end-circle-inner"/>
</svg>
