<svg xmlns="http://www.w3.org/2000/svg" width="341" height="92">
<style>
  .rail { stroke: #333; stroke-width: 2; fill: none; }
  .arrow { stroke: #333; stroke-width: 2; fill: none; }
  .terminal-box { fill: #e8f5e9; stroke: #2e7d32; stroke-width: 2; }
  .terminal-text { font-family: monospace; font-size: 12px; fill: #1b5e20; }
  .nonterminal-box { fill: #e3f2fd; stroke: #1565c0; stroke-width: 2; }
  .nonterminal-text { font-family: sans-serif; font-size: 12px; fill: #0d47a1; }
  .start-circle { fill: #333; stroke: none; }
  .end-circle-outer { fill: none; stroke: #333; stroke-width: 2; }
  .end-circle-inner { fill: #333; stroke: none; }
  rect, g { transition: all 0.3s; }
</style>
<text x="20" y="38" font-size="13" fill="#555" font-family="sans-serif">AnnotationParameter</text>
<circle cx="24" cy="58" r="4" class="start-circle"/>
<line x1="28" y1="58" x2="40" y2="58" class="rail"/>
<g id="1812650277">
<g id="1345728694">
<rect x="40" y="44" width="90" height="28" class="nonterminal-box"/>
<text x="85" y="62" text-anchor="middle" class="nonterminal-text">IDENTIFIER</text>
</g>
<line x1="130" y1="58" x2="150" y2="58" class="rail"/>
<polygon points="137,55 143,58 137,61" class="arrow"/>
<g id="673941376">
<rect x="150" y="44" width="41" height="28" rx="10" ry="10" class="terminal-box"/>
<text x="170" y="62" text-anchor="middle" class="terminal-text">'='</text>
</g>
<line x1="191" y1="58" x2="211" y2="58" class="rail"/>
<polygon points="198,55 204,58 198,61" class="arrow"/>
<g id="752157036">
<rect x="211" y="44" width="90" height="28" class="nonterminal-box"/>
<text x="256" y="62" text-anchor="middle" class="nonterminal-text">Expression</text>
</g>
</g>
<line x1="301" y1="58" x2="309" y2="58" class="rail"/>
<circle cx="315" cy="58" r="6" class="end-circle-outer"/>
<circle cx="315" cy="58" r="3" class="end-circle-inner"/>
</svg>
