<svg xmlns="http://www.w3.org/2000/svg" xmlns:xlink="http://www.w3.org/1999/xlink" width="286" height="318">
<style>
  svg { background: white; font-family: sans-serif; }
  .rail { stroke: #333; stroke-width: 2; fill: none; }
  .arrow { fill: #333; }
  .terminal-box { fill: #E8F4FD; stroke: #2196F3; stroke-width: 2; rx: 10; ry: 10; }
  .nonterminal-box { fill: #E8F5E9; stroke: #4CAF50; stroke-width: 2; }
  .nonterminal-box:hover { fill: #C8E6C9; stroke: #2E7D32; cursor: pointer; }
  .terminal-text { font-family: monospace; font-size: 14px; fill: #0D47A1; }
  .nonterminal-text { font-family: sans-serif; font-size: 14px; fill: #1B5E20; }
  a:hover .nonterminal-text { fill: #1B5E20; text-decoration: underline; }
  .start-circle { fill: #333; stroke: none; }
  .end-circle-outer { fill: #333; stroke: none; }
  .end-circle-inner { fill: white; stroke: none; }
</style>
<text x="20" y="38" font-size="13" fill="#555" font-family="sans-serif">MathFunction</text>
<circle cx="26" cy="57" r="6" class="start-circle"/>
<line x1="32" y1="57" x2="50" y2="57" class="rail"/>
<a xlink:href="#SinFunction" target="_top">
<rect x="83" y="44" width="119" height="26" class="nonterminal-box"/>
<text x="142" y="62" text-anchor="middle" class="nonterminal-text">SinFunction</text>
</a>
<line x1="70" y1="57" x2="83" y2="57" class="rail"/>
<line x1="202" y1="57" x2="216" y2="57" class="rail"/>
<line x1="50" y1="57" x2="70" y2="57" class="rail"/>
<line x1="216" y1="57" x2="236" y2="57" class="rail"/>
<a xlink:href="#CosFunction" target="_top">
<rect x="83" y="82" width="119" height="26" class="nonterminal-box"/>
<text x="142" y="100" text-anchor="middle" class="nonterminal-text">CosFunction</text>
</a>
<line x1="70" y1="95" x2="83" y2="95" class="rail"/>
<line x1="202" y1="95" x2="216" y2="95" class="rail"/>
<path d="M 50,57 Q 60,57 60,67" class="rail"/>
<line x1="60" y1="67" x2="60" y2="85" class="rail"/>
<path d="M 60,85 Q 60,95 70,95" class="rail"/>
<path d="M 216,95 Q 226,95 226,85" class="rail"/>
<line x1="226" y1="85" x2="226" y2="67" class="rail"/>
<path d="M 226,67 Q 226,57 236,57" class="rail"/>
<a xlink:href="#TanFunction" target="_top">
<rect x="83" y="120" width="119" height="26" class="nonterminal-box"/>
<text x="142" y="138" text-anchor="middle" class="nonterminal-text">TanFunction</text>
</a>
<line x1="70" y1="133" x2="83" y2="133" class="rail"/>
<line x1="202" y1="133" x2="216" y2="133" class="rail"/>
<path d="M 50,57 Q 60,57 60,67" class="rail"/>
<line x1="60" y1="67" x2="60" y2="123" class="rail"/>
<path d="M 60,123 Q 60,133 70,133" class="rail"/>
<path d="M 216,133 Q 226,133 226,123" class="rail"/>
<line x1="226" y1="123" x2="226" y2="67" class="rail"/>
<path d="M 226,67 Q 226,57 236,57" class="rail"/>
<a xlink:href="#SqrtFunction" target="_top">
<rect x="79" y="158" width="128" height="26" class="nonterminal-box"/>
<text x="143" y="176" text-anchor="middle" class="nonterminal-text">SqrtFunction</text>
</a>
<line x1="70" y1="171" x2="79" y2="171" class="rail"/>
<line x1="207" y1="171" x2="216" y2="171" class="rail"/>
<path d="M 50,57 Q 60,57 60,67" class="rail"/>
<line x1="60" y1="67" x2="60" y2="161" class="rail"/>
<path d="M 60,161 Q 60,171 70,171" class="rail"/>
<path d="M 216,171 Q 226,171 226,161" class="rail"/>
<line x1="226" y1="161" x2="226" y2="67" class="rail"/>
<path d="M 226,67 Q 226,57 236,57" class="rail"/>
<a xlink:href="#MinFunction" target="_top">
<rect x="83" y="196" width="119" height="26" class="nonterminal-box"/>
<text x="142" y="214" text-anchor="middle" class="nonterminal-text">MinFunction</text>
</a>
<line x1="70" y1="209" x2="83" y2="209" class="rail"/>
<line x1="202" y1="209" x2="216" y2="209" class="rail"/>
<path d="M 50,57 Q 60,57 60,67" class="rail"/>
<line x1="60" y1="67" x2="60" y2="199" class="rail"/>
<path d="M 60,199 Q 60,209 70,209" class="rail"/>
<path d="M 216,209 Q 226,209 226,199" class="rail"/>
<line x1="226" y1="199" x2="226" y2="67" class="rail"/>
<path d="M 226,67 Q 226,57 236,57" class="rail"/>
<a xlink:href="#MaxFunction" target="_top">
<rect x="83" y="234" width="119" height="26" class="nonterminal-box"/>
<text x="142" y="252" text-anchor="middle" class="nonterminal-text">MaxFunction</text>
</a>
<line x1="70" y1="247" x2="83" y2="247" class="rail"/>
<line x1="202" y1="247" x2="216" y2="247" class="rail"/>
<path d="M 50,57 Q 60,57 60,67" class="rail"/>
<line x1="60" y1="67" x2="60" y2="237" class="rail"/>
<path d="M 60,237 Q 60,247 70,247" class="rail"/>
<path d="M 216,247 Q 226,247 226,237" class="rail"/>
<line x1="226" y1="237" x2="226" y2="67" class="rail"/>
<path d="M 226,67 Q 226,57 236,57" class="rail"/>
<a xlink:href="#RandomFunction" target="_top">
<rect x="70" y="272" width="146" height="26" class="nonterminal-box"/>
<text x="143" y="290" text-anchor="middle" class="nonterminal-text">RandomFunction</text>
</a>
<path d="M 50,57 Q 60,57 60,67" class="rail"/>
<line x1="60" y1="67" x2="60" y2="275" class="rail"/>
<path d="M 60,275 Q 60,285 70,285" class="rail"/>
<path d="M 216,285 Q 226,285 226,275" class="rail"/>
<line x1="226" y1="275" x2="226" y2="67" class="rail"/>
<path d="M 226,67 Q 226,57 236,57" class="rail"/>
<line x1="236" y1="57" x2="250" y2="57" class="rail"/>
<circle cx="258" cy="57" r="8" class="end-circle-outer"/>
<circle cx="258" cy="57" r="5" class="end-circle-inner"/>
</svg>
