<svg xmlns="http://www.w3.org/2000/svg" width="874" height="110">
<style>
  .rail { stroke: #333; stroke-width: 2; fill: none; }
  .arrow { stroke: #333; stroke-width: 2; fill: none; }
  .terminal-box { fill: #e8f5e9; stroke: #2e7d32; stroke-width: 2; }
  .terminal-text { font-family: monospace; font-size: 12px; fill: #1b5e20; }
  .nonterminal-box { fill: #e3f2fd; stroke: #1565c0; stroke-width: 2; }
  .nonterminal-text { font-family: sans-serif; font-size: 12px; fill: #0d47a1; }
  .start-circle { fill: #333; stroke: none; }
  .end-circle-outer { fill: none; stroke: #333; stroke-width: 2; }
  .end-circle-inner { fill: #333; stroke: none; }
  rect, g { transition: all 0.3s; }
</style>
<text x="20" y="38" font-size="13" fill="#555" font-family="sans-serif">ExternalObjectInvocation</text>
<circle cx="24" cy="76" r="4" class="start-circle"/>
<line x1="28" y1="76" x2="40" y2="76" class="rail"/>
<g id="910975409">
<g id="2102276971">
<rect x="40" y="62" width="90" height="28" rx="10" ry="10" class="terminal-box"/>
<text x="85" y="80" text-anchor="middle" class="terminal-text">'external'</text>
</g>
<line x1="130" y1="76" x2="150" y2="76" class="rail"/>
<polygon points="137,73 143,76 137,79" class="arrow"/>
<g id="135554442">
<rect x="150" y="62" width="97" height="28" rx="10" ry="10" class="terminal-box"/>
<text x="198" y="80" text-anchor="middle" class="terminal-text">'returning'</text>
</g>
<line x1="247" y1="76" x2="267" y2="76" class="rail"/>
<polygon points="254,73 260,76 254,79" class="arrow"/>
<g id="1359090215">
<rect x="267" y="62" width="48" height="28" rx="10" ry="10" class="terminal-box"/>
<text x="291" y="80" text-anchor="middle" class="terminal-text">'as'</text>
</g>
<line x1="315" y1="76" x2="335" y2="76" class="rail"/>
<polygon points="322,73 328,76 322,79" class="arrow"/>
<g id="449605336">
<rect x="335" y="62" width="132" height="28" class="nonterminal-box"/>
<text x="401" y="80" text-anchor="middle" class="nonterminal-text">ObjectReturnType</text>
</g>
<line x1="467" y1="76" x2="487" y2="76" class="rail"/>
<polygon points="474,73 480,76 474,79" class="arrow"/>
<g id="378913665">
<rect x="487" y="62" width="90" height="28" class="nonterminal-box"/>
<text x="532" y="80" text-anchor="middle" class="nonterminal-text">IDENTIFIER</text>
</g>
<line x1="577" y1="76" x2="597" y2="76" class="rail"/>
<polygon points="584,73 590,76 584,79" class="arrow"/>
<g id="1032244460">
<rect x="597" y="62" width="41" height="28" rx="10" ry="10" class="terminal-box"/>
<text x="617" y="80" text-anchor="middle" class="terminal-text">'('</text>
</g>
<line x1="638" y1="76" x2="658" y2="76" class="rail"/>
<polygon points="645,73 651,76 645,79" class="arrow"/>
<g id="93813181">
<g id="2094297681">
<rect x="674" y="62" width="83" height="28" class="nonterminal-box"/>
<text x="715" y="80" text-anchor="middle" class="nonterminal-text">Arguments</text>
</g>
<line x1="658" y1="76" x2="674" y2="76" class="rail"/>
<line x1="757" y1="76" x2="773" y2="76" class="rail"/>
<path d="M658,76 Q666,76 666,68" class="rail" fill="none"/>
<path d="M666,60 Q666,52 674,52" class="rail" fill="none"/>
<line x1="674" y1="52" x2="757" y2="52" class="rail"/>
<path d="M757,52 Q765,52 765,60" class="rail" fill="none"/>
<path d="M765,68 Q765,76 773,76" class="rail" fill="none"/>
</g>
<line x1="773" y1="76" x2="793" y2="76" class="rail"/>
<polygon points="780,73 786,76 780,79" class="arrow"/>
<g id="1034304325">
<rect x="793" y="62" width="41" height="28" rx="10" ry="10" class="terminal-box"/>
<text x="813" y="80" text-anchor="middle" class="terminal-text">')'</text>
</g>
</g>
<line x1="834" y1="76" x2="842" y2="76" class="rail"/>
<circle cx="848" cy="76" r="6" class="end-circle-outer"/>
<circle cx="848" cy="76" r="3" class="end-circle-inner"/>
</svg>
