<svg xmlns="http://www.w3.org/2000/svg" width="288" height="130">
<style>
  .rail { stroke: #333; stroke-width: 2; fill: none; }
  .arrow { stroke: #333; stroke-width: 2; fill: none; }
  .terminal-box { fill: #e8f5e9; stroke: #2e7d32; stroke-width: 2; }
  .terminal-text { font-family: monospace; font-size: 12px; fill: #1b5e20; }
  .nonterminal-box { fill: #e3f2fd; stroke: #1565c0; stroke-width: 2; }
  .nonterminal-text { font-family: sans-serif; font-size: 12px; fill: #0d47a1; }
  .start-circle { fill: #333; stroke: none; }
  .end-circle-outer { fill: none; stroke: #333; stroke-width: 2; }
  .end-circle-inner { fill: #333; stroke: none; }
  rect, g { transition: all 0.3s; }
</style>
<text x="20" y="38" font-size="13" fill="#555" font-family="sans-serif">NumberTypeHint</text>
<circle cx="24" cy="76" r="4" class="start-circle"/>
<line x1="28" y1="76" x2="40" y2="76" class="rail"/>
<g id="591723622">
<g id="1167116739">
<g id="194494468">
<rect x="56" y="62" width="48" height="28" rx="10" ry="10" class="terminal-box"/>
<text x="80" y="80" text-anchor="middle" class="terminal-text">'as'</text>
</g>
<line x1="40" y1="76" x2="56" y2="76" class="rail"/>
<line x1="104" y1="76" x2="120" y2="76" class="rail"/>
<path d="M40,76 Q48,76 48,68" class="rail" fill="none"/>
<path d="M48,60 Q48,52 56,52" class="rail" fill="none"/>
<line x1="56" y1="52" x2="104" y2="52" class="rail"/>
<path d="M104,52 Q112,52 112,60" class="rail" fill="none"/>
<path d="M112,68 Q112,76 120,76" class="rail" fill="none"/>
</g>
<line x1="120" y1="76" x2="140" y2="76" class="rail"/>
<polygon points="127,73 133,76 127,79" class="arrow"/>
<g id="1702146597">
<g id="853993923">
<rect x="156" y="62" width="76" height="28" rx="10" ry="10" class="terminal-box"/>
<text x="194" y="80" text-anchor="middle" class="terminal-text">'number'</text>
</g>
<line x1="156" y1="76" x2="156" y2="76" class="rail"/>
<line x1="232" y1="76" x2="232" y2="76" class="rail"/>
<line x1="140" y1="76" x2="156" y2="76" class="rail"/>
<line x1="232" y1="76" x2="248" y2="76" class="rail"/>
<g id="1347870667">
<rect x="159" y="100" width="69" height="28" rx="10" ry="10" class="terminal-box"/>
<text x="193" y="118" text-anchor="middle" class="terminal-text">'float'</text>
</g>
<line x1="156" y1="114" x2="159" y2="114" class="rail"/>
<line x1="228" y1="114" x2="232" y2="114" class="rail"/>
<path d="M140,76 Q148,76 148,84" class="rail" fill="none"/>
<path d="M148,106 Q148,114 156,114" class="rail" fill="none"/>
<path d="M232,114 Q240,114 240,106" class="rail" fill="none"/>
<path d="M240,84 Q240,76 248,76" class="rail" fill="none"/>
</g>
</g>
<line x1="248" y1="76" x2="256" y2="76" class="rail"/>
<circle cx="262" cy="76" r="6" class="end-circle-outer"/>
<circle cx="262" cy="76" r="3" class="end-circle-inner"/>
</svg>
