<svg xmlns="http://www.w3.org/2000/svg" xmlns:xlink="http://www.w3.org/1999/xlink" width="304" height="112">
<style>
  svg { background: white; font-family: sans-serif; }
  .rail { stroke: #333; stroke-width: 2; fill: none; }
  .arrow { fill: #333; }
  .terminal-box { fill: #E8F4FD; stroke: #2196F3; stroke-width: 2; rx: 10; ry: 10; }
  .nonterminal-box { fill: #E8F5E9; stroke: #4CAF50; stroke-width: 2; }
  .nonterminal-box:hover { fill: #C8E6C9; stroke: #2E7D32; cursor: pointer; }
  .terminal-text { font-family: monospace; font-size: 14px; fill: #0D47A1; }
  .nonterminal-text { font-family: sans-serif; font-size: 14px; fill: #1B5E20; }
  a:hover .nonterminal-text { fill: #1B5E20; text-decoration: underline; }
  .start-circle { fill: #333; stroke: none; }
  .end-circle-outer { fill: #333; stroke: none; }
  .end-circle-inner { fill: white; stroke: none; }
</style>
<text x="20" y="38" font-size="13" fill="#555" font-family="sans-serif">ObjectTypeHint</text>
<circle cx="26" cy="79" r="6" class="start-circle"/>
<line x1="32" y1="79" x2="50" y2="79" class="rail"/>
<rect x="70" y="66" width="56" height="26" rx="10" ry="10" class="terminal-box"/>
<text x="98" y="84" text-anchor="middle" class="terminal-text">'as'</text>
<line x1="50" y1="79" x2="70" y2="79" class="rail"/>
<line x1="126" y1="79" x2="146" y2="79" class="rail"/>
<path d="M 50,79 Q 60,79 60,69" class="rail"/>
<line x1="60" y1="69" x2="60" y2="64" class="rail"/>
<path d="M 60,64 Q 60,54 70,54" class="rail"/>
<line x1="70" y1="54" x2="126" y2="54" class="rail"/>
<path d="M 126,54 Q 136,54 136,64" class="rail"/>
<line x1="136" y1="64" x2="136" y2="69" class="rail"/>
<path d="M 136,69 Q 136,79 146,79" class="rail"/>
<line x1="146" y1="79" x2="162" y2="79" class="rail"/>
<polygon points="151,76 157,79 151,82" class="arrow"/>
<rect x="162" y="66" width="92" height="26" rx="10" ry="10" class="terminal-box"/>
<text x="208" y="84" text-anchor="middle" class="terminal-text">'object'</text>
<line x1="254" y1="79" x2="268" y2="79" class="rail"/>
<circle cx="276" cy="79" r="8" class="end-circle-outer"/>
<circle cx="276" cy="79" r="5" class="end-circle-inner"/>
</svg>
