<svg xmlns="http://www.w3.org/2000/svg" width="430" height="92">
<style>
  .rail { stroke: #333; stroke-width: 2; fill: none; }
  .arrow { stroke: #333; stroke-width: 2; fill: none; }
  .terminal-box { fill: #e8f5e9; stroke: #2e7d32; stroke-width: 2; }
  .terminal-text { font-family: monospace; font-size: 12px; fill: #1b5e20; }
  .nonterminal-box { fill: #e3f2fd; stroke: #1565c0; stroke-width: 2; }
  .nonterminal-text { font-family: sans-serif; font-size: 12px; fill: #0d47a1; }
  .start-circle { fill: #333; stroke: none; }
  .end-circle-outer { fill: none; stroke: #333; stroke-width: 2; }
  .end-circle-inner { fill: #333; stroke: none; }
  rect, g { transition: all 0.3s; }
</style>
<text x="20" y="38" font-size="13" fill="#555" font-family="sans-serif">SqrtFunction</text>
<circle cx="24" cy="58" r="4" class="start-circle"/>
<line x1="28" y1="58" x2="40" y2="58" class="rail"/>
<g id="717076496">
<g id="1614245983">
<rect x="40" y="44" width="62" height="28" rx="10" ry="10" class="terminal-box"/>
<text x="71" y="62" text-anchor="middle" class="terminal-text">'sqrt'</text>
</g>
<line x1="102" y1="58" x2="122" y2="58" class="rail"/>
<polygon points="109,55 115,58 109,61" class="arrow"/>
<g id="1264034979">
<rect x="122" y="44" width="41" height="28" rx="10" ry="10" class="terminal-box"/>
<text x="142" y="62" text-anchor="middle" class="terminal-text">'('</text>
</g>
<line x1="163" y1="58" x2="183" y2="58" class="rail"/>
<polygon points="170,55 176,58 170,61" class="arrow"/>
<g id="1606032577">
<rect x="183" y="44" width="146" height="28" class="nonterminal-box"/>
<text x="256" y="62" text-anchor="middle" class="nonterminal-text">ArgumentExpression</text>
</g>
<line x1="329" y1="58" x2="349" y2="58" class="rail"/>
<polygon points="336,55 342,58 336,61" class="arrow"/>
<g id="1909693437">
<rect x="349" y="44" width="41" height="28" rx="10" ry="10" class="terminal-box"/>
<text x="369" y="62" text-anchor="middle" class="terminal-text">')'</text>
</g>
</g>
<line x1="390" y1="58" x2="398" y2="58" class="rail"/>
<circle cx="404" cy="58" r="6" class="end-circle-outer"/>
<circle cx="404" cy="58" r="3" class="end-circle-inner"/>
</svg>
