<svg xmlns="http://www.w3.org/2000/svg" width="485" height="120">
<style>
  .rail { stroke: #333; stroke-width: 2; fill: none; }
  .arrow { stroke: #333; stroke-width: 2; fill: none; }
  .terminal-box { fill: #e8f5e9; stroke: #2e7d32; stroke-width: 2; }
  .terminal-text { font-family: monospace; font-size: 12px; fill: #1b5e20; }
  .nonterminal-box { fill: #e3f2fd; stroke: #1565c0; stroke-width: 2; }
  .nonterminal-text { font-family: sans-serif; font-size: 12px; fill: #0d47a1; }
  .start-circle { fill: #333; stroke: none; }
  .end-circle-outer { fill: none; stroke: #333; stroke-width: 2; }
  .end-circle-inner { fill: #333; stroke: none; }
  rect, g { transition: all 0.3s; }
</style>
<text x="20" y="38" font-size="13" fill="#555" font-family="sans-serif">Arguments</text>
<circle cx="24" cy="58" r="4" class="start-circle"/>
<line x1="28" y1="58" x2="40" y2="58" class="rail"/>
<g id="710142504">
<g id="6630412">
<rect x="40" y="44" width="146" height="28" class="nonterminal-box"/>
<text x="113" y="62" text-anchor="middle" class="nonterminal-text">ArgumentExpression</text>
</g>
<line x1="186" y1="58" x2="206" y2="58" class="rail"/>
<polygon points="193,55 199,58 193,61" class="arrow"/>
<g id="796882273">
<g id="106118379">
<g id="695573397">
<rect x="222" y="68" width="41" height="28" rx="10" ry="10" class="terminal-box"/>
<text x="242" y="86" text-anchor="middle" class="terminal-text">','</text>
</g>
<line x1="263" y1="82" x2="283" y2="82" class="rail"/>
<polygon points="270,79 276,82 270,85" class="arrow"/>
<g id="1226644338">
<rect x="283" y="68" width="146" height="28" class="nonterminal-box"/>
<text x="356" y="86" text-anchor="middle" class="nonterminal-text">ArgumentExpression</text>
</g>
</g>
<line x1="206" y1="58" x2="445" y2="58" class="rail"/>
<path d="M222,58 Q214,58 214,66" class="rail" fill="none"/>
<path d="M214,74 Q214,82 206,82" class="rail" fill="none"/>
<line x1="206" y1="82" x2="222" y2="82" class="rail"/>
<line x1="429" y1="82" x2="445" y2="82" class="rail"/>
<path d="M445,82 Q437,82 437,74" class="rail" fill="none"/>
<path d="M437,66 Q437,58 429,58" class="rail" fill="none"/>
<path d="M437,82 Q445,82 445,90" class="rail" fill="none"/>
<path d="M445,98 Q445,106 437,106" class="rail" fill="none"/>
<line x1="214" y1="106" x2="437" y2="106" class="rail"/>
<polygon points="331,103 325,106 331,109" class="arrow"/>
<path d="M214,106 Q206,106 206,98" class="rail" fill="none"/>
<path d="M206,90 Q206,82 214,82" class="rail" fill="none"/>
</g>
</g>
<line x1="445" y1="58" x2="453" y2="58" class="rail"/>
<circle cx="459" cy="58" r="6" class="end-circle-outer"/>
<circle cx="459" cy="58" r="3" class="end-circle-inner"/>
</svg>
