<svg xmlns="http://www.w3.org/2000/svg" width="902" height="110">
<style>
  .rail { stroke: #333; stroke-width: 2; fill: none; }
  .arrow { stroke: #333; stroke-width: 2; fill: none; }
  .terminal-box { fill: #e8f5e9; stroke: #2e7d32; stroke-width: 2; }
  .terminal-text { font-family: monospace; font-size: 12px; fill: #1b5e20; }
  .nonterminal-box { fill: #e3f2fd; stroke: #1565c0; stroke-width: 2; }
  .nonterminal-text { font-family: sans-serif; font-size: 12px; fill: #0d47a1; }
  .start-circle { fill: #333; stroke: none; }
  .end-circle-outer { fill: none; stroke: #333; stroke-width: 2; }
  .end-circle-inner { fill: #333; stroke: none; }
  rect, g { transition: all 0.3s; }
</style>
<text x="20" y="38" font-size="13" fill="#555" font-family="sans-serif">StringMethodDeclaration</text>
<circle cx="24" cy="76" r="4" class="start-circle"/>
<line x1="28" y1="76" x2="40" y2="76" class="rail"/>
<g id="386861173">
<g id="1176823540">
<rect x="40" y="62" width="132" height="28" class="nonterminal-box"/>
<text x="106" y="80" text-anchor="middle" class="nonterminal-text">StringReturnType</text>
</g>
<line x1="172" y1="76" x2="192" y2="76" class="rail"/>
<polygon points="179,73 185,76 179,79" class="arrow"/>
<g id="903543994">
<rect x="192" y="62" width="90" height="28" class="nonterminal-box"/>
<text x="237" y="80" text-anchor="middle" class="nonterminal-text">IDENTIFIER</text>
</g>
<line x1="282" y1="76" x2="302" y2="76" class="rail"/>
<polygon points="289,73 295,76 289,79" class="arrow"/>
<g id="2022058439">
<rect x="302" y="62" width="41" height="28" rx="10" ry="10" class="terminal-box"/>
<text x="322" y="80" text-anchor="middle" class="terminal-text">'('</text>
</g>
<line x1="343" y1="76" x2="363" y2="76" class="rail"/>
<polygon points="350,73 356,76 350,79" class="arrow"/>
<g id="1851305922">
<g id="254471061">
<rect x="379" y="62" width="132" height="28" class="nonterminal-box"/>
<text x="445" y="80" text-anchor="middle" class="nonterminal-text">MethodParameters</text>
</g>
<line x1="363" y1="76" x2="379" y2="76" class="rail"/>
<line x1="511" y1="76" x2="527" y2="76" class="rail"/>
<path d="M363,76 Q371,76 371,68" class="rail" fill="none"/>
<path d="M371,60 Q371,52 379,52" class="rail" fill="none"/>
<line x1="379" y1="52" x2="511" y2="52" class="rail"/>
<path d="M511,52 Q519,52 519,60" class="rail" fill="none"/>
<path d="M519,68 Q519,76 527,76" class="rail" fill="none"/>
</g>
<line x1="527" y1="76" x2="547" y2="76" class="rail"/>
<polygon points="534,73 540,76 534,79" class="arrow"/>
<g id="210084255">
<rect x="547" y="62" width="41" height="28" rx="10" ry="10" class="terminal-box"/>
<text x="567" y="80" text-anchor="middle" class="terminal-text">')'</text>
</g>
<line x1="588" y1="76" x2="608" y2="76" class="rail"/>
<polygon points="595,73 601,76 595,79" class="arrow"/>
<g id="1157921241">
<rect x="608" y="62" width="41" height="28" rx="10" ry="10" class="terminal-box"/>
<text x="628" y="80" text-anchor="middle" class="terminal-text">'{'</text>
</g>
<line x1="649" y1="76" x2="669" y2="76" class="rail"/>
<polygon points="656,73 662,76 656,79" class="arrow"/>
<g id="497697967">
<rect x="669" y="62" width="132" height="28" class="nonterminal-box"/>
<text x="735" y="80" text-anchor="middle" class="nonterminal-text">StringExpression</text>
</g>
<line x1="801" y1="76" x2="821" y2="76" class="rail"/>
<polygon points="808,73 814,76 808,79" class="arrow"/>
<g id="916967015">
<rect x="821" y="62" width="41" height="28" rx="10" ry="10" class="terminal-box"/>
<text x="841" y="80" text-anchor="middle" class="terminal-text">'}'</text>
</g>
</g>
<line x1="862" y1="76" x2="870" y2="76" class="rail"/>
<circle cx="876" cy="76" r="6" class="end-circle-outer"/>
<circle cx="876" cy="76" r="3" class="end-circle-inner"/>
</svg>
