<svg xmlns="http://www.w3.org/2000/svg" width="316" height="148">
<style>
  .rail { stroke: #333; stroke-width: 2; fill: none; }
  .arrow { stroke: #333; stroke-width: 2; fill: none; }
  .terminal-box { fill: #e8f5e9; stroke: #2e7d32; stroke-width: 2; }
  .terminal-text { font-family: monospace; font-size: 12px; fill: #1b5e20; }
  .nonterminal-box { fill: #e3f2fd; stroke: #1565c0; stroke-width: 2; }
  .nonterminal-text { font-family: sans-serif; font-size: 12px; fill: #0d47a1; }
  .start-circle { fill: #333; stroke: none; }
  .end-circle-outer { fill: none; stroke: #333; stroke-width: 2; }
  .end-circle-inner { fill: #333; stroke: none; }
  rect, g { transition: all 0.3s; }
</style>
<text x="20" y="38" font-size="13" fill="#555" font-family="sans-serif">MethodInvocationHeader</text>
<circle cx="24" cy="76" r="4" class="start-circle"/>
<line x1="28" y1="76" x2="40" y2="76" class="rail"/>
<g id="1748574597">
<g id="931859049">
<g id="1361207017">
<rect x="56" y="62" width="62" height="28" rx="10" ry="10" class="terminal-box"/>
<text x="87" y="80" text-anchor="middle" class="terminal-text">'call'</text>
</g>
<line x1="118" y1="76" x2="138" y2="76" class="rail"/>
<polygon points="125,73 131,76 125,79" class="arrow"/>
<g id="154848982">
<g id="1958547641">
<rect x="154" y="62" width="90" height="28" rx="10" ry="10" class="terminal-box"/>
<text x="199" y="80" text-anchor="middle" class="terminal-text">'internal'</text>
</g>
<line x1="138" y1="76" x2="154" y2="76" class="rail"/>
<line x1="244" y1="76" x2="260" y2="76" class="rail"/>
<path d="M138,76 Q146,76 146,68" class="rail" fill="none"/>
<path d="M146,60 Q146,52 154,52" class="rail" fill="none"/>
<line x1="154" y1="52" x2="244" y2="52" class="rail"/>
<path d="M244,52 Q252,52 252,60" class="rail" fill="none"/>
<path d="M252,68 Q252,76 260,76" class="rail" fill="none"/>
</g>
</g>
<line x1="56" y1="76" x2="56" y2="76" class="rail"/>
<line x1="260" y1="76" x2="260" y2="76" class="rail"/>
<line x1="40" y1="76" x2="56" y2="76" class="rail"/>
<line x1="260" y1="76" x2="276" y2="76" class="rail"/>
<g id="1948110695">
<rect x="113" y="100" width="90" height="28" rx="10" ry="10" class="terminal-box"/>
<text x="158" y="118" text-anchor="middle" class="terminal-text">'internal'</text>
</g>
<line x1="56" y1="114" x2="113" y2="114" class="rail"/>
<line x1="203" y1="114" x2="260" y2="114" class="rail"/>
<path d="M40,76 Q48,76 48,84" class="rail" fill="none"/>
<path d="M48,106 Q48,114 56,114" class="rail" fill="none"/>
<path d="M260,114 Q268,114 268,106" class="rail" fill="none"/>
<path d="M268,84 Q268,76 276,76" class="rail" fill="none"/>
</g>
<line x1="276" y1="76" x2="284" y2="76" class="rail"/>
<circle cx="290" cy="76" r="6" class="end-circle-outer"/>
<circle cx="290" cy="76" r="3" class="end-circle-inner"/>
</svg>
