<svg xmlns="http://www.w3.org/2000/svg" width="911" height="120">
<style>
  .rail { stroke: #333; stroke-width: 2; fill: none; }
  .arrow { stroke: #333; stroke-width: 2; fill: none; }
  .terminal-box { fill: #e8f5e9; stroke: #2e7d32; stroke-width: 2; }
  .terminal-text { font-family: monospace; font-size: 12px; fill: #1b5e20; }
  .nonterminal-box { fill: #e3f2fd; stroke: #1565c0; stroke-width: 2; }
  .nonterminal-text { font-family: sans-serif; font-size: 12px; fill: #0d47a1; }
  .start-circle { fill: #333; stroke: none; }
  .end-circle-outer { fill: none; stroke: #333; stroke-width: 2; }
  .end-circle-inner { fill: #333; stroke: none; }
  rect, g { transition: all 0.3s; }
</style>
<text x="20" y="38" font-size="13" fill="#555" font-family="sans-serif">StartsWithDotMethod</text>
<circle cx="24" cy="58" r="4" class="start-circle"/>
<line x1="28" y1="58" x2="40" y2="58" class="rail"/>
<g id="205773018">
<g id="1273648747">
<rect x="40" y="44" width="181" height="28" class="nonterminal-box"/>
<text x="130" y="62" text-anchor="middle" class="nonterminal-text">StringPredicateReceiver</text>
</g>
<line x1="221" y1="58" x2="241" y2="58" class="rail"/>
<polygon points="228,55 234,58 228,61" class="arrow"/>
<g id="1456951730">
<rect x="241" y="44" width="111" height="28" rx="10" ry="10" class="terminal-box"/>
<text x="296" y="62" text-anchor="middle" class="terminal-text">'.startsWith'</text>
</g>
<line x1="352" y1="58" x2="372" y2="58" class="rail"/>
<polygon points="359,55 365,58 359,61" class="arrow"/>
<g id="1367416592">
<rect x="372" y="44" width="41" height="28" rx="10" ry="10" class="terminal-box"/>
<text x="392" y="62" text-anchor="middle" class="terminal-text">'('</text>
</g>
<line x1="413" y1="58" x2="433" y2="58" class="rail"/>
<polygon points="420,55 426,58 420,61" class="arrow"/>
<g id="1016006711">
<rect x="433" y="44" width="132" height="28" class="nonterminal-box"/>
<text x="499" y="62" text-anchor="middle" class="nonterminal-text">StringExpression</text>
</g>
<line x1="565" y1="58" x2="585" y2="58" class="rail"/>
<polygon points="572,55 578,58 572,61" class="arrow"/>
<g id="1423135781">
<g id="282671289">
<g id="634341571">
<rect x="601" y="68" width="41" height="28" rx="10" ry="10" class="terminal-box"/>
<text x="621" y="86" text-anchor="middle" class="terminal-text">','</text>
</g>
<line x1="642" y1="82" x2="662" y2="82" class="rail"/>
<polygon points="649,79 655,82 649,85" class="arrow"/>
<g id="1241106185">
<rect x="662" y="68" width="132" height="28" class="nonterminal-box"/>
<text x="728" y="86" text-anchor="middle" class="nonterminal-text">StringExpression</text>
</g>
</g>
<line x1="585" y1="58" x2="810" y2="58" class="rail"/>
<path d="M601,58 Q593,58 593,66" class="rail" fill="none"/>
<path d="M593,74 Q593,82 585,82" class="rail" fill="none"/>
<line x1="585" y1="82" x2="601" y2="82" class="rail"/>
<line x1="794" y1="82" x2="810" y2="82" class="rail"/>
<path d="M810,82 Q802,82 802,74" class="rail" fill="none"/>
<path d="M802,66 Q802,58 794,58" class="rail" fill="none"/>
<path d="M802,82 Q810,82 810,90" class="rail" fill="none"/>
<path d="M810,98 Q810,106 802,106" class="rail" fill="none"/>
<line x1="593" y1="106" x2="802" y2="106" class="rail"/>
<polygon points="703,103 697,106 703,109" class="arrow"/>
<path d="M593,106 Q585,106 585,98" class="rail" fill="none"/>
<path d="M585,90 Q585,82 593,82" class="rail" fill="none"/>
</g>
<line x1="810" y1="58" x2="830" y2="58" class="rail"/>
<polygon points="817,55 823,58 817,61" class="arrow"/>
<g id="193300268">
<rect x="830" y="44" width="41" height="28" rx="10" ry="10" class="terminal-box"/>
<text x="850" y="62" text-anchor="middle" class="terminal-text">')'</text>
</g>
</g>
<line x1="871" y1="58" x2="879" y2="58" class="rail"/>
<circle cx="885" cy="58" r="6" class="end-circle-outer"/>
<circle cx="885" cy="58" r="3" class="end-circle-inner"/>
</svg>
